%TF.GenerationSoftware,KiCad,Pcbnew,9.0.6*%
%TF.CreationDate,2026-01-06T07:36:32-07:00*%
%TF.ProjectId,PCRAMXpander,50435241-4d58-4706-916e-6465722e6b69,rev?*%
%TF.SameCoordinates,Original*%
%TF.FileFunction,Soldermask,Bot*%
%TF.FilePolarity,Negative*%
%FSLAX46Y46*%
G04 Gerber Fmt 4.6, Leading zero omitted, Abs format (unit mm)*
G04 Created by KiCad (PCBNEW 9.0.6) date 2026-01-06 07:36:32*
%MOMM*%
%LPD*%
G01*
G04 APERTURE LIST*
%ADD10R,1.320800X1.320800*%
%ADD11C,1.320800*%
%ADD12R,1.780000X7.620000*%
%ADD13R,1.700000X1.700000*%
%ADD14C,1.700000*%
%ADD15R,1.219200X1.219200*%
%ADD16C,1.219200*%
G04 APERTURE END LIST*
D10*
%TO.C,C7*%
X68580000Y-135636000D03*
D11*
X68580000Y-133629400D03*
%TD*%
D10*
%TO.C,C8*%
X81915000Y-124460000D03*
D11*
X79908400Y-124460000D03*
%TD*%
D12*
%TO.C,J1*%
X195580000Y-148590000D03*
X193040000Y-148590000D03*
X190500000Y-148590000D03*
X187960000Y-148590000D03*
X185420000Y-148590000D03*
X182880000Y-148590000D03*
X180340000Y-148590000D03*
X177800000Y-148590000D03*
X175260000Y-148590000D03*
X172720000Y-148590000D03*
X170180000Y-148590000D03*
X167640000Y-148590000D03*
X165100000Y-148590000D03*
X162560000Y-148590000D03*
X160020000Y-148590000D03*
X157480000Y-148590000D03*
X154940000Y-148590000D03*
X152400000Y-148590000D03*
X149860000Y-148590000D03*
X147320000Y-148590000D03*
X144780000Y-148590000D03*
X142240000Y-148590000D03*
X139700000Y-148590000D03*
X137160000Y-148590000D03*
X134620000Y-148590000D03*
X132080000Y-148590000D03*
X129540000Y-148590000D03*
X127000000Y-148590000D03*
X124460000Y-148590000D03*
X121920000Y-148590000D03*
X119380000Y-148590000D03*
X109220000Y-148590000D03*
X106680000Y-148590000D03*
X104140000Y-148590000D03*
X101600000Y-148590000D03*
X99060000Y-148590000D03*
X96520000Y-148590000D03*
X93980000Y-148590000D03*
X91440000Y-148590000D03*
X88900000Y-148590000D03*
X86360000Y-148590000D03*
X83820000Y-148590000D03*
X81280000Y-148590000D03*
X78740000Y-148590000D03*
X76200000Y-148590000D03*
X73660000Y-148590000D03*
X71120000Y-148590000D03*
X68580000Y-148590000D03*
X66040000Y-148590000D03*
%TD*%
D13*
%TO.C,JP2*%
X71755000Y-107950000D03*
D14*
X71755000Y-105410000D03*
%TD*%
D13*
%TO.C,JP3*%
X173990000Y-103886000D03*
D14*
X176530000Y-103886000D03*
%TD*%
D13*
%TO.C,JP1*%
X71755000Y-96520000D03*
D14*
X71755000Y-99060000D03*
%TD*%
D15*
%TO.C,R3*%
X116205000Y-80010000D03*
D16*
X116205000Y-77470000D03*
X116205000Y-74930000D03*
X116205000Y-72390000D03*
X116205000Y-69850000D03*
%TD*%
D10*
%TO.C,U1*%
X78740000Y-91440000D03*
D11*
X78740000Y-93980000D03*
X78740000Y-96520000D03*
X78740000Y-99060000D03*
X78740000Y-101600000D03*
X78740000Y-104140000D03*
X78740000Y-106680000D03*
X78740000Y-109220000D03*
X78740000Y-111760000D03*
X78740000Y-114300000D03*
X86582001Y-114300000D03*
X86582001Y-111760000D03*
X86582001Y-109220000D03*
X86582001Y-106680000D03*
X86582001Y-104140000D03*
X86582001Y-101600000D03*
X86582001Y-99060000D03*
X86582001Y-96520000D03*
X86582001Y-93980000D03*
X86582001Y-91440000D03*
%TD*%
M02*
