%TF.GenerationSoftware,KiCad,Pcbnew,9.0.6*%
%TF.CreationDate,2026-01-06T07:36:32-07:00*%
%TF.ProjectId,PCRAMXpander,50435241-4d58-4706-916e-6465722e6b69,rev?*%
%TF.SameCoordinates,Original*%
%TF.FileFunction,Legend,Top*%
%TF.FilePolarity,Positive*%
%FSLAX46Y46*%
G04 Gerber Fmt 4.6, Leading zero omitted, Abs format (unit mm)*
G04 Created by KiCad (PCBNEW 9.0.6) date 2026-01-06 07:36:32*
%MOMM*%
%LPD*%
G01*
G04 APERTURE LIST*
%ADD10C,0.150000*%
%ADD11C,0.127000*%
%ADD12C,0.200000*%
%ADD13C,0.152400*%
%ADD14C,0.120000*%
%ADD15C,0.000000*%
G04 APERTURE END LIST*
D10*
X123098819Y-104647904D02*
X123908342Y-104647904D01*
X123908342Y-104647904D02*
X124003580Y-104600285D01*
X124003580Y-104600285D02*
X124051200Y-104552666D01*
X124051200Y-104552666D02*
X124098819Y-104457428D01*
X124098819Y-104457428D02*
X124098819Y-104266952D01*
X124098819Y-104266952D02*
X124051200Y-104171714D01*
X124051200Y-104171714D02*
X124003580Y-104124095D01*
X124003580Y-104124095D02*
X123908342Y-104076476D01*
X123908342Y-104076476D02*
X123098819Y-104076476D01*
X123194057Y-103647904D02*
X123146438Y-103600285D01*
X123146438Y-103600285D02*
X123098819Y-103505047D01*
X123098819Y-103505047D02*
X123098819Y-103266952D01*
X123098819Y-103266952D02*
X123146438Y-103171714D01*
X123146438Y-103171714D02*
X123194057Y-103124095D01*
X123194057Y-103124095D02*
X123289295Y-103076476D01*
X123289295Y-103076476D02*
X123384533Y-103076476D01*
X123384533Y-103076476D02*
X123527390Y-103124095D01*
X123527390Y-103124095D02*
X124098819Y-103695523D01*
X124098819Y-103695523D02*
X124098819Y-103076476D01*
X65129580Y-134799366D02*
X65177200Y-134846985D01*
X65177200Y-134846985D02*
X65224819Y-134989842D01*
X65224819Y-134989842D02*
X65224819Y-135085080D01*
X65224819Y-135085080D02*
X65177200Y-135227937D01*
X65177200Y-135227937D02*
X65081961Y-135323175D01*
X65081961Y-135323175D02*
X64986723Y-135370794D01*
X64986723Y-135370794D02*
X64796247Y-135418413D01*
X64796247Y-135418413D02*
X64653390Y-135418413D01*
X64653390Y-135418413D02*
X64462914Y-135370794D01*
X64462914Y-135370794D02*
X64367676Y-135323175D01*
X64367676Y-135323175D02*
X64272438Y-135227937D01*
X64272438Y-135227937D02*
X64224819Y-135085080D01*
X64224819Y-135085080D02*
X64224819Y-134989842D01*
X64224819Y-134989842D02*
X64272438Y-134846985D01*
X64272438Y-134846985D02*
X64320057Y-134799366D01*
X64224819Y-134466032D02*
X64224819Y-133799366D01*
X64224819Y-133799366D02*
X65224819Y-134227937D01*
X67127333Y-107769819D02*
X66794000Y-107293628D01*
X66555905Y-107769819D02*
X66555905Y-106769819D01*
X66555905Y-106769819D02*
X66936857Y-106769819D01*
X66936857Y-106769819D02*
X67032095Y-106817438D01*
X67032095Y-106817438D02*
X67079714Y-106865057D01*
X67079714Y-106865057D02*
X67127333Y-106960295D01*
X67127333Y-106960295D02*
X67127333Y-107103152D01*
X67127333Y-107103152D02*
X67079714Y-107198390D01*
X67079714Y-107198390D02*
X67032095Y-107246009D01*
X67032095Y-107246009D02*
X66936857Y-107293628D01*
X66936857Y-107293628D02*
X66555905Y-107293628D01*
X67508286Y-106865057D02*
X67555905Y-106817438D01*
X67555905Y-106817438D02*
X67651143Y-106769819D01*
X67651143Y-106769819D02*
X67889238Y-106769819D01*
X67889238Y-106769819D02*
X67984476Y-106817438D01*
X67984476Y-106817438D02*
X68032095Y-106865057D01*
X68032095Y-106865057D02*
X68079714Y-106960295D01*
X68079714Y-106960295D02*
X68079714Y-107055533D01*
X68079714Y-107055533D02*
X68032095Y-107198390D01*
X68032095Y-107198390D02*
X67460667Y-107769819D01*
X67460667Y-107769819D02*
X68079714Y-107769819D01*
X81078366Y-127910419D02*
X81125985Y-127862800D01*
X81125985Y-127862800D02*
X81268842Y-127815180D01*
X81268842Y-127815180D02*
X81364080Y-127815180D01*
X81364080Y-127815180D02*
X81506937Y-127862800D01*
X81506937Y-127862800D02*
X81602175Y-127958038D01*
X81602175Y-127958038D02*
X81649794Y-128053276D01*
X81649794Y-128053276D02*
X81697413Y-128243752D01*
X81697413Y-128243752D02*
X81697413Y-128386609D01*
X81697413Y-128386609D02*
X81649794Y-128577085D01*
X81649794Y-128577085D02*
X81602175Y-128672323D01*
X81602175Y-128672323D02*
X81506937Y-128767561D01*
X81506937Y-128767561D02*
X81364080Y-128815180D01*
X81364080Y-128815180D02*
X81268842Y-128815180D01*
X81268842Y-128815180D02*
X81125985Y-128767561D01*
X81125985Y-128767561D02*
X81078366Y-128719942D01*
X80506937Y-128386609D02*
X80602175Y-128434228D01*
X80602175Y-128434228D02*
X80649794Y-128481847D01*
X80649794Y-128481847D02*
X80697413Y-128577085D01*
X80697413Y-128577085D02*
X80697413Y-128624704D01*
X80697413Y-128624704D02*
X80649794Y-128719942D01*
X80649794Y-128719942D02*
X80602175Y-128767561D01*
X80602175Y-128767561D02*
X80506937Y-128815180D01*
X80506937Y-128815180D02*
X80316461Y-128815180D01*
X80316461Y-128815180D02*
X80221223Y-128767561D01*
X80221223Y-128767561D02*
X80173604Y-128719942D01*
X80173604Y-128719942D02*
X80125985Y-128624704D01*
X80125985Y-128624704D02*
X80125985Y-128577085D01*
X80125985Y-128577085D02*
X80173604Y-128481847D01*
X80173604Y-128481847D02*
X80221223Y-128434228D01*
X80221223Y-128434228D02*
X80316461Y-128386609D01*
X80316461Y-128386609D02*
X80506937Y-128386609D01*
X80506937Y-128386609D02*
X80602175Y-128338990D01*
X80602175Y-128338990D02*
X80649794Y-128291371D01*
X80649794Y-128291371D02*
X80697413Y-128196133D01*
X80697413Y-128196133D02*
X80697413Y-128005657D01*
X80697413Y-128005657D02*
X80649794Y-127910419D01*
X80649794Y-127910419D02*
X80602175Y-127862800D01*
X80602175Y-127862800D02*
X80506937Y-127815180D01*
X80506937Y-127815180D02*
X80316461Y-127815180D01*
X80316461Y-127815180D02*
X80221223Y-127862800D01*
X80221223Y-127862800D02*
X80173604Y-127910419D01*
X80173604Y-127910419D02*
X80125985Y-128005657D01*
X80125985Y-128005657D02*
X80125985Y-128196133D01*
X80125985Y-128196133D02*
X80173604Y-128291371D01*
X80173604Y-128291371D02*
X80221223Y-128338990D01*
X80221223Y-128338990D02*
X80316461Y-128386609D01*
X76350476Y-128469819D02*
X76683809Y-129469819D01*
X76683809Y-129469819D02*
X77017142Y-128469819D01*
X77921904Y-129469819D02*
X77588571Y-128993628D01*
X77350476Y-129469819D02*
X77350476Y-128469819D01*
X77350476Y-128469819D02*
X77731428Y-128469819D01*
X77731428Y-128469819D02*
X77826666Y-128517438D01*
X77826666Y-128517438D02*
X77874285Y-128565057D01*
X77874285Y-128565057D02*
X77921904Y-128660295D01*
X77921904Y-128660295D02*
X77921904Y-128803152D01*
X77921904Y-128803152D02*
X77874285Y-128898390D01*
X77874285Y-128898390D02*
X77826666Y-128946009D01*
X77826666Y-128946009D02*
X77731428Y-128993628D01*
X77731428Y-128993628D02*
X77350476Y-128993628D01*
X78874285Y-129469819D02*
X78302857Y-129469819D01*
X78588571Y-129469819D02*
X78588571Y-128469819D01*
X78588571Y-128469819D02*
X78493333Y-128612676D01*
X78493333Y-128612676D02*
X78398095Y-128707914D01*
X78398095Y-128707914D02*
X78302857Y-128755533D01*
X147103180Y-124163095D02*
X146293657Y-124163095D01*
X146293657Y-124163095D02*
X146198419Y-124210714D01*
X146198419Y-124210714D02*
X146150800Y-124258333D01*
X146150800Y-124258333D02*
X146103180Y-124353571D01*
X146103180Y-124353571D02*
X146103180Y-124544047D01*
X146103180Y-124544047D02*
X146150800Y-124639285D01*
X146150800Y-124639285D02*
X146198419Y-124686904D01*
X146198419Y-124686904D02*
X146293657Y-124734523D01*
X146293657Y-124734523D02*
X147103180Y-124734523D01*
X147103180Y-125115476D02*
X147103180Y-125734523D01*
X147103180Y-125734523D02*
X146722228Y-125401190D01*
X146722228Y-125401190D02*
X146722228Y-125544047D01*
X146722228Y-125544047D02*
X146674609Y-125639285D01*
X146674609Y-125639285D02*
X146626990Y-125686904D01*
X146626990Y-125686904D02*
X146531752Y-125734523D01*
X146531752Y-125734523D02*
X146293657Y-125734523D01*
X146293657Y-125734523D02*
X146198419Y-125686904D01*
X146198419Y-125686904D02*
X146150800Y-125639285D01*
X146150800Y-125639285D02*
X146103180Y-125544047D01*
X146103180Y-125544047D02*
X146103180Y-125258333D01*
X146103180Y-125258333D02*
X146150800Y-125163095D01*
X146150800Y-125163095D02*
X146198419Y-125115476D01*
X67127333Y-101514819D02*
X66794000Y-101038628D01*
X66555905Y-101514819D02*
X66555905Y-100514819D01*
X66555905Y-100514819D02*
X66936857Y-100514819D01*
X66936857Y-100514819D02*
X67032095Y-100562438D01*
X67032095Y-100562438D02*
X67079714Y-100610057D01*
X67079714Y-100610057D02*
X67127333Y-100705295D01*
X67127333Y-100705295D02*
X67127333Y-100848152D01*
X67127333Y-100848152D02*
X67079714Y-100943390D01*
X67079714Y-100943390D02*
X67032095Y-100991009D01*
X67032095Y-100991009D02*
X66936857Y-101038628D01*
X66936857Y-101038628D02*
X66555905Y-101038628D01*
X68079714Y-101514819D02*
X67508286Y-101514819D01*
X67794000Y-101514819D02*
X67794000Y-100514819D01*
X67794000Y-100514819D02*
X67698762Y-100657676D01*
X67698762Y-100657676D02*
X67603524Y-100752914D01*
X67603524Y-100752914D02*
X67508286Y-100800533D01*
X154813095Y-55842819D02*
X154813095Y-56652342D01*
X154813095Y-56652342D02*
X154860714Y-56747580D01*
X154860714Y-56747580D02*
X154908333Y-56795200D01*
X154908333Y-56795200D02*
X155003571Y-56842819D01*
X155003571Y-56842819D02*
X155194047Y-56842819D01*
X155194047Y-56842819D02*
X155289285Y-56795200D01*
X155289285Y-56795200D02*
X155336904Y-56747580D01*
X155336904Y-56747580D02*
X155384523Y-56652342D01*
X155384523Y-56652342D02*
X155384523Y-55842819D01*
X156336904Y-55842819D02*
X155860714Y-55842819D01*
X155860714Y-55842819D02*
X155813095Y-56319009D01*
X155813095Y-56319009D02*
X155860714Y-56271390D01*
X155860714Y-56271390D02*
X155955952Y-56223771D01*
X155955952Y-56223771D02*
X156194047Y-56223771D01*
X156194047Y-56223771D02*
X156289285Y-56271390D01*
X156289285Y-56271390D02*
X156336904Y-56319009D01*
X156336904Y-56319009D02*
X156384523Y-56414247D01*
X156384523Y-56414247D02*
X156384523Y-56652342D01*
X156384523Y-56652342D02*
X156336904Y-56747580D01*
X156336904Y-56747580D02*
X156289285Y-56795200D01*
X156289285Y-56795200D02*
X156194047Y-56842819D01*
X156194047Y-56842819D02*
X155955952Y-56842819D01*
X155955952Y-56842819D02*
X155860714Y-56795200D01*
X155860714Y-56795200D02*
X155813095Y-56747580D01*
X165677849Y-71217580D02*
X165677849Y-70979485D01*
X165915944Y-71074723D02*
X165677849Y-70979485D01*
X165677849Y-70979485D02*
X165439754Y-71074723D01*
X165820706Y-70789009D02*
X165677849Y-70979485D01*
X165677849Y-70979485D02*
X165534992Y-70789009D01*
X165677850Y-70127219D02*
X165677850Y-70365314D01*
X165439755Y-70270076D02*
X165677850Y-70365314D01*
X165677850Y-70365314D02*
X165915945Y-70270076D01*
X165534993Y-70555790D02*
X165677850Y-70365314D01*
X165677850Y-70365314D02*
X165820707Y-70555790D01*
X87129580Y-86526666D02*
X87177200Y-86574285D01*
X87177200Y-86574285D02*
X87224819Y-86717142D01*
X87224819Y-86717142D02*
X87224819Y-86812380D01*
X87224819Y-86812380D02*
X87177200Y-86955237D01*
X87177200Y-86955237D02*
X87081961Y-87050475D01*
X87081961Y-87050475D02*
X86986723Y-87098094D01*
X86986723Y-87098094D02*
X86796247Y-87145713D01*
X86796247Y-87145713D02*
X86653390Y-87145713D01*
X86653390Y-87145713D02*
X86462914Y-87098094D01*
X86462914Y-87098094D02*
X86367676Y-87050475D01*
X86367676Y-87050475D02*
X86272438Y-86955237D01*
X86272438Y-86955237D02*
X86224819Y-86812380D01*
X86224819Y-86812380D02*
X86224819Y-86717142D01*
X86224819Y-86717142D02*
X86272438Y-86574285D01*
X86272438Y-86574285D02*
X86320057Y-86526666D01*
X87224819Y-85574285D02*
X87224819Y-86145713D01*
X87224819Y-85859999D02*
X86224819Y-85859999D01*
X86224819Y-85859999D02*
X86367676Y-85955237D01*
X86367676Y-85955237D02*
X86462914Y-86050475D01*
X86462914Y-86050475D02*
X86510533Y-86145713D01*
X150709333Y-75064580D02*
X150661714Y-75112200D01*
X150661714Y-75112200D02*
X150518857Y-75159819D01*
X150518857Y-75159819D02*
X150423619Y-75159819D01*
X150423619Y-75159819D02*
X150280762Y-75112200D01*
X150280762Y-75112200D02*
X150185524Y-75016961D01*
X150185524Y-75016961D02*
X150137905Y-74921723D01*
X150137905Y-74921723D02*
X150090286Y-74731247D01*
X150090286Y-74731247D02*
X150090286Y-74588390D01*
X150090286Y-74588390D02*
X150137905Y-74397914D01*
X150137905Y-74397914D02*
X150185524Y-74302676D01*
X150185524Y-74302676D02*
X150280762Y-74207438D01*
X150280762Y-74207438D02*
X150423619Y-74159819D01*
X150423619Y-74159819D02*
X150518857Y-74159819D01*
X150518857Y-74159819D02*
X150661714Y-74207438D01*
X150661714Y-74207438D02*
X150709333Y-74255057D01*
X151566476Y-74159819D02*
X151376000Y-74159819D01*
X151376000Y-74159819D02*
X151280762Y-74207438D01*
X151280762Y-74207438D02*
X151233143Y-74255057D01*
X151233143Y-74255057D02*
X151137905Y-74397914D01*
X151137905Y-74397914D02*
X151090286Y-74588390D01*
X151090286Y-74588390D02*
X151090286Y-74969342D01*
X151090286Y-74969342D02*
X151137905Y-75064580D01*
X151137905Y-75064580D02*
X151185524Y-75112200D01*
X151185524Y-75112200D02*
X151280762Y-75159819D01*
X151280762Y-75159819D02*
X151471238Y-75159819D01*
X151471238Y-75159819D02*
X151566476Y-75112200D01*
X151566476Y-75112200D02*
X151614095Y-75064580D01*
X151614095Y-75064580D02*
X151661714Y-74969342D01*
X151661714Y-74969342D02*
X151661714Y-74731247D01*
X151661714Y-74731247D02*
X151614095Y-74636009D01*
X151614095Y-74636009D02*
X151566476Y-74588390D01*
X151566476Y-74588390D02*
X151471238Y-74540771D01*
X151471238Y-74540771D02*
X151280762Y-74540771D01*
X151280762Y-74540771D02*
X151185524Y-74588390D01*
X151185524Y-74588390D02*
X151137905Y-74636009D01*
X151137905Y-74636009D02*
X151090286Y-74731247D01*
X108465580Y-103036666D02*
X108513200Y-103084285D01*
X108513200Y-103084285D02*
X108560819Y-103227142D01*
X108560819Y-103227142D02*
X108560819Y-103322380D01*
X108560819Y-103322380D02*
X108513200Y-103465237D01*
X108513200Y-103465237D02*
X108417961Y-103560475D01*
X108417961Y-103560475D02*
X108322723Y-103608094D01*
X108322723Y-103608094D02*
X108132247Y-103655713D01*
X108132247Y-103655713D02*
X107989390Y-103655713D01*
X107989390Y-103655713D02*
X107798914Y-103608094D01*
X107798914Y-103608094D02*
X107703676Y-103560475D01*
X107703676Y-103560475D02*
X107608438Y-103465237D01*
X107608438Y-103465237D02*
X107560819Y-103322380D01*
X107560819Y-103322380D02*
X107560819Y-103227142D01*
X107560819Y-103227142D02*
X107608438Y-103084285D01*
X107608438Y-103084285D02*
X107656057Y-103036666D01*
X107656057Y-102655713D02*
X107608438Y-102608094D01*
X107608438Y-102608094D02*
X107560819Y-102512856D01*
X107560819Y-102512856D02*
X107560819Y-102274761D01*
X107560819Y-102274761D02*
X107608438Y-102179523D01*
X107608438Y-102179523D02*
X107656057Y-102131904D01*
X107656057Y-102131904D02*
X107751295Y-102084285D01*
X107751295Y-102084285D02*
X107846533Y-102084285D01*
X107846533Y-102084285D02*
X107989390Y-102131904D01*
X107989390Y-102131904D02*
X108560819Y-102703332D01*
X108560819Y-102703332D02*
X108560819Y-102084285D01*
X143383095Y-79337819D02*
X143383095Y-80147342D01*
X143383095Y-80147342D02*
X143430714Y-80242580D01*
X143430714Y-80242580D02*
X143478333Y-80290200D01*
X143478333Y-80290200D02*
X143573571Y-80337819D01*
X143573571Y-80337819D02*
X143764047Y-80337819D01*
X143764047Y-80337819D02*
X143859285Y-80290200D01*
X143859285Y-80290200D02*
X143906904Y-80242580D01*
X143906904Y-80242580D02*
X143954523Y-80147342D01*
X143954523Y-80147342D02*
X143954523Y-79337819D01*
X144859285Y-79337819D02*
X144668809Y-79337819D01*
X144668809Y-79337819D02*
X144573571Y-79385438D01*
X144573571Y-79385438D02*
X144525952Y-79433057D01*
X144525952Y-79433057D02*
X144430714Y-79575914D01*
X144430714Y-79575914D02*
X144383095Y-79766390D01*
X144383095Y-79766390D02*
X144383095Y-80147342D01*
X144383095Y-80147342D02*
X144430714Y-80242580D01*
X144430714Y-80242580D02*
X144478333Y-80290200D01*
X144478333Y-80290200D02*
X144573571Y-80337819D01*
X144573571Y-80337819D02*
X144764047Y-80337819D01*
X144764047Y-80337819D02*
X144859285Y-80290200D01*
X144859285Y-80290200D02*
X144906904Y-80242580D01*
X144906904Y-80242580D02*
X144954523Y-80147342D01*
X144954523Y-80147342D02*
X144954523Y-79909247D01*
X144954523Y-79909247D02*
X144906904Y-79814009D01*
X144906904Y-79814009D02*
X144859285Y-79766390D01*
X144859285Y-79766390D02*
X144764047Y-79718771D01*
X144764047Y-79718771D02*
X144573571Y-79718771D01*
X144573571Y-79718771D02*
X144478333Y-79766390D01*
X144478333Y-79766390D02*
X144430714Y-79814009D01*
X144430714Y-79814009D02*
X144383095Y-79909247D01*
X154559000Y-93307819D02*
X154559000Y-93545914D01*
X154320905Y-93450676D02*
X154559000Y-93545914D01*
X154559000Y-93545914D02*
X154797095Y-93450676D01*
X154416143Y-93736390D02*
X154559000Y-93545914D01*
X154559000Y-93545914D02*
X154701857Y-93736390D01*
X70921666Y-109784819D02*
X70921666Y-110499104D01*
X70921666Y-110499104D02*
X70874047Y-110641961D01*
X70874047Y-110641961D02*
X70778809Y-110737200D01*
X70778809Y-110737200D02*
X70635952Y-110784819D01*
X70635952Y-110784819D02*
X70540714Y-110784819D01*
X71397857Y-110784819D02*
X71397857Y-109784819D01*
X71397857Y-109784819D02*
X71778809Y-109784819D01*
X71778809Y-109784819D02*
X71874047Y-109832438D01*
X71874047Y-109832438D02*
X71921666Y-109880057D01*
X71921666Y-109880057D02*
X71969285Y-109975295D01*
X71969285Y-109975295D02*
X71969285Y-110118152D01*
X71969285Y-110118152D02*
X71921666Y-110213390D01*
X71921666Y-110213390D02*
X71874047Y-110261009D01*
X71874047Y-110261009D02*
X71778809Y-110308628D01*
X71778809Y-110308628D02*
X71397857Y-110308628D01*
X72350238Y-109880057D02*
X72397857Y-109832438D01*
X72397857Y-109832438D02*
X72493095Y-109784819D01*
X72493095Y-109784819D02*
X72731190Y-109784819D01*
X72731190Y-109784819D02*
X72826428Y-109832438D01*
X72826428Y-109832438D02*
X72874047Y-109880057D01*
X72874047Y-109880057D02*
X72921666Y-109975295D01*
X72921666Y-109975295D02*
X72921666Y-110070533D01*
X72921666Y-110070533D02*
X72874047Y-110213390D01*
X72874047Y-110213390D02*
X72302619Y-110784819D01*
X72302619Y-110784819D02*
X72921666Y-110784819D01*
X171064819Y-104719333D02*
X171779104Y-104719333D01*
X171779104Y-104719333D02*
X171921961Y-104766952D01*
X171921961Y-104766952D02*
X172017200Y-104862190D01*
X172017200Y-104862190D02*
X172064819Y-105005047D01*
X172064819Y-105005047D02*
X172064819Y-105100285D01*
X172064819Y-104243142D02*
X171064819Y-104243142D01*
X171064819Y-104243142D02*
X171064819Y-103862190D01*
X171064819Y-103862190D02*
X171112438Y-103766952D01*
X171112438Y-103766952D02*
X171160057Y-103719333D01*
X171160057Y-103719333D02*
X171255295Y-103671714D01*
X171255295Y-103671714D02*
X171398152Y-103671714D01*
X171398152Y-103671714D02*
X171493390Y-103719333D01*
X171493390Y-103719333D02*
X171541009Y-103766952D01*
X171541009Y-103766952D02*
X171588628Y-103862190D01*
X171588628Y-103862190D02*
X171588628Y-104243142D01*
X171064819Y-103338380D02*
X171064819Y-102719333D01*
X171064819Y-102719333D02*
X171445771Y-103052666D01*
X171445771Y-103052666D02*
X171445771Y-102909809D01*
X171445771Y-102909809D02*
X171493390Y-102814571D01*
X171493390Y-102814571D02*
X171541009Y-102766952D01*
X171541009Y-102766952D02*
X171636247Y-102719333D01*
X171636247Y-102719333D02*
X171874342Y-102719333D01*
X171874342Y-102719333D02*
X171969580Y-102766952D01*
X171969580Y-102766952D02*
X172017200Y-102814571D01*
X172017200Y-102814571D02*
X172064819Y-102909809D01*
X172064819Y-102909809D02*
X172064819Y-103195523D01*
X172064819Y-103195523D02*
X172017200Y-103290761D01*
X172017200Y-103290761D02*
X171969580Y-103338380D01*
X70921666Y-93594819D02*
X70921666Y-94309104D01*
X70921666Y-94309104D02*
X70874047Y-94451961D01*
X70874047Y-94451961D02*
X70778809Y-94547200D01*
X70778809Y-94547200D02*
X70635952Y-94594819D01*
X70635952Y-94594819D02*
X70540714Y-94594819D01*
X71397857Y-94594819D02*
X71397857Y-93594819D01*
X71397857Y-93594819D02*
X71778809Y-93594819D01*
X71778809Y-93594819D02*
X71874047Y-93642438D01*
X71874047Y-93642438D02*
X71921666Y-93690057D01*
X71921666Y-93690057D02*
X71969285Y-93785295D01*
X71969285Y-93785295D02*
X71969285Y-93928152D01*
X71969285Y-93928152D02*
X71921666Y-94023390D01*
X71921666Y-94023390D02*
X71874047Y-94071009D01*
X71874047Y-94071009D02*
X71778809Y-94118628D01*
X71778809Y-94118628D02*
X71397857Y-94118628D01*
X72921666Y-94594819D02*
X72350238Y-94594819D01*
X72635952Y-94594819D02*
X72635952Y-93594819D01*
X72635952Y-93594819D02*
X72540714Y-93737676D01*
X72540714Y-93737676D02*
X72445476Y-93832914D01*
X72445476Y-93832914D02*
X72350238Y-93880533D01*
X114373819Y-75096666D02*
X113897628Y-75429999D01*
X114373819Y-75668094D02*
X113373819Y-75668094D01*
X113373819Y-75668094D02*
X113373819Y-75287142D01*
X113373819Y-75287142D02*
X113421438Y-75191904D01*
X113421438Y-75191904D02*
X113469057Y-75144285D01*
X113469057Y-75144285D02*
X113564295Y-75096666D01*
X113564295Y-75096666D02*
X113707152Y-75096666D01*
X113707152Y-75096666D02*
X113802390Y-75144285D01*
X113802390Y-75144285D02*
X113850009Y-75191904D01*
X113850009Y-75191904D02*
X113897628Y-75287142D01*
X113897628Y-75287142D02*
X113897628Y-75668094D01*
X113373819Y-74763332D02*
X113373819Y-74144285D01*
X113373819Y-74144285D02*
X113754771Y-74477618D01*
X113754771Y-74477618D02*
X113754771Y-74334761D01*
X113754771Y-74334761D02*
X113802390Y-74239523D01*
X113802390Y-74239523D02*
X113850009Y-74191904D01*
X113850009Y-74191904D02*
X113945247Y-74144285D01*
X113945247Y-74144285D02*
X114183342Y-74144285D01*
X114183342Y-74144285D02*
X114278580Y-74191904D01*
X114278580Y-74191904D02*
X114326200Y-74239523D01*
X114326200Y-74239523D02*
X114373819Y-74334761D01*
X114373819Y-74334761D02*
X114373819Y-74620475D01*
X114373819Y-74620475D02*
X114326200Y-74715713D01*
X114326200Y-74715713D02*
X114278580Y-74763332D01*
X114770819Y-81914999D02*
X115008914Y-81914999D01*
X114913676Y-82153094D02*
X115008914Y-81914999D01*
X115008914Y-81914999D02*
X114913676Y-81676904D01*
X115199390Y-82057856D02*
X115008914Y-81914999D01*
X115008914Y-81914999D02*
X115199390Y-81772142D01*
X135701833Y-95228580D02*
X135654214Y-95276200D01*
X135654214Y-95276200D02*
X135511357Y-95323819D01*
X135511357Y-95323819D02*
X135416119Y-95323819D01*
X135416119Y-95323819D02*
X135273262Y-95276200D01*
X135273262Y-95276200D02*
X135178024Y-95180961D01*
X135178024Y-95180961D02*
X135130405Y-95085723D01*
X135130405Y-95085723D02*
X135082786Y-94895247D01*
X135082786Y-94895247D02*
X135082786Y-94752390D01*
X135082786Y-94752390D02*
X135130405Y-94561914D01*
X135130405Y-94561914D02*
X135178024Y-94466676D01*
X135178024Y-94466676D02*
X135273262Y-94371438D01*
X135273262Y-94371438D02*
X135416119Y-94323819D01*
X135416119Y-94323819D02*
X135511357Y-94323819D01*
X135511357Y-94323819D02*
X135654214Y-94371438D01*
X135654214Y-94371438D02*
X135701833Y-94419057D01*
X136606595Y-94323819D02*
X136130405Y-94323819D01*
X136130405Y-94323819D02*
X136082786Y-94800009D01*
X136082786Y-94800009D02*
X136130405Y-94752390D01*
X136130405Y-94752390D02*
X136225643Y-94704771D01*
X136225643Y-94704771D02*
X136463738Y-94704771D01*
X136463738Y-94704771D02*
X136558976Y-94752390D01*
X136558976Y-94752390D02*
X136606595Y-94800009D01*
X136606595Y-94800009D02*
X136654214Y-94895247D01*
X136654214Y-94895247D02*
X136654214Y-95133342D01*
X136654214Y-95133342D02*
X136606595Y-95228580D01*
X136606595Y-95228580D02*
X136558976Y-95276200D01*
X136558976Y-95276200D02*
X136463738Y-95323819D01*
X136463738Y-95323819D02*
X136225643Y-95323819D01*
X136225643Y-95323819D02*
X136130405Y-95276200D01*
X136130405Y-95276200D02*
X136082786Y-95228580D01*
X112347596Y-135637819D02*
X112347596Y-136447342D01*
X112347596Y-136447342D02*
X112395215Y-136542580D01*
X112395215Y-136542580D02*
X112442834Y-136590200D01*
X112442834Y-136590200D02*
X112538072Y-136637819D01*
X112538072Y-136637819D02*
X112728548Y-136637819D01*
X112728548Y-136637819D02*
X112823786Y-136590200D01*
X112823786Y-136590200D02*
X112871405Y-136542580D01*
X112871405Y-136542580D02*
X112919024Y-136447342D01*
X112919024Y-136447342D02*
X112919024Y-135637819D01*
X113823786Y-135971152D02*
X113823786Y-136637819D01*
X113585691Y-135590200D02*
X113347596Y-136304485D01*
X113347596Y-136304485D02*
X113966643Y-136304485D01*
X81899096Y-87846819D02*
X81899096Y-88656342D01*
X81899096Y-88656342D02*
X81946715Y-88751580D01*
X81946715Y-88751580D02*
X81994334Y-88799200D01*
X81994334Y-88799200D02*
X82089572Y-88846819D01*
X82089572Y-88846819D02*
X82280048Y-88846819D01*
X82280048Y-88846819D02*
X82375286Y-88799200D01*
X82375286Y-88799200D02*
X82422905Y-88751580D01*
X82422905Y-88751580D02*
X82470524Y-88656342D01*
X82470524Y-88656342D02*
X82470524Y-87846819D01*
X83470524Y-88846819D02*
X82899096Y-88846819D01*
X83184810Y-88846819D02*
X83184810Y-87846819D01*
X83184810Y-87846819D02*
X83089572Y-87989676D01*
X83089572Y-87989676D02*
X82994334Y-88084914D01*
X82994334Y-88084914D02*
X82899096Y-88132533D01*
X78232000Y-89472419D02*
X78232000Y-89710514D01*
X77993905Y-89615276D02*
X78232000Y-89710514D01*
X78232000Y-89710514D02*
X78470095Y-89615276D01*
X78089143Y-89900990D02*
X78232000Y-89710514D01*
X78232000Y-89710514D02*
X78374857Y-89900990D01*
X113879333Y-119485580D02*
X113831714Y-119533200D01*
X113831714Y-119533200D02*
X113688857Y-119580819D01*
X113688857Y-119580819D02*
X113593619Y-119580819D01*
X113593619Y-119580819D02*
X113450762Y-119533200D01*
X113450762Y-119533200D02*
X113355524Y-119437961D01*
X113355524Y-119437961D02*
X113307905Y-119342723D01*
X113307905Y-119342723D02*
X113260286Y-119152247D01*
X113260286Y-119152247D02*
X113260286Y-119009390D01*
X113260286Y-119009390D02*
X113307905Y-118818914D01*
X113307905Y-118818914D02*
X113355524Y-118723676D01*
X113355524Y-118723676D02*
X113450762Y-118628438D01*
X113450762Y-118628438D02*
X113593619Y-118580819D01*
X113593619Y-118580819D02*
X113688857Y-118580819D01*
X113688857Y-118580819D02*
X113831714Y-118628438D01*
X113831714Y-118628438D02*
X113879333Y-118676057D01*
X114736476Y-118914152D02*
X114736476Y-119580819D01*
X114498381Y-118533200D02*
X114260286Y-119247485D01*
X114260286Y-119247485D02*
X114879333Y-119247485D01*
X164168080Y-127039666D02*
X164215700Y-127087285D01*
X164215700Y-127087285D02*
X164263319Y-127230142D01*
X164263319Y-127230142D02*
X164263319Y-127325380D01*
X164263319Y-127325380D02*
X164215700Y-127468237D01*
X164215700Y-127468237D02*
X164120461Y-127563475D01*
X164120461Y-127563475D02*
X164025223Y-127611094D01*
X164025223Y-127611094D02*
X163834747Y-127658713D01*
X163834747Y-127658713D02*
X163691890Y-127658713D01*
X163691890Y-127658713D02*
X163501414Y-127611094D01*
X163501414Y-127611094D02*
X163406176Y-127563475D01*
X163406176Y-127563475D02*
X163310938Y-127468237D01*
X163310938Y-127468237D02*
X163263319Y-127325380D01*
X163263319Y-127325380D02*
X163263319Y-127230142D01*
X163263319Y-127230142D02*
X163310938Y-127087285D01*
X163310938Y-127087285D02*
X163358557Y-127039666D01*
X163263319Y-126706332D02*
X163263319Y-126087285D01*
X163263319Y-126087285D02*
X163644271Y-126420618D01*
X163644271Y-126420618D02*
X163644271Y-126277761D01*
X163644271Y-126277761D02*
X163691890Y-126182523D01*
X163691890Y-126182523D02*
X163739509Y-126134904D01*
X163739509Y-126134904D02*
X163834747Y-126087285D01*
X163834747Y-126087285D02*
X164072842Y-126087285D01*
X164072842Y-126087285D02*
X164168080Y-126134904D01*
X164168080Y-126134904D02*
X164215700Y-126182523D01*
X164215700Y-126182523D02*
X164263319Y-126277761D01*
X164263319Y-126277761D02*
X164263319Y-126563475D01*
X164263319Y-126563475D02*
X164215700Y-126658713D01*
X164215700Y-126658713D02*
X164168080Y-126706332D01*
D11*
%TO.C,U2*%
X110082000Y-100836000D02*
X110082000Y-106936000D01*
X122582000Y-100836000D02*
X122582000Y-106936000D01*
D12*
X122462000Y-98796000D02*
G75*
G02*
X122262000Y-98796000I-100000J0D01*
G01*
X122262000Y-98796000D02*
G75*
G02*
X122462000Y-98796000I100000J0D01*
G01*
D13*
%TO.C,C7*%
X67945000Y-138277600D02*
X69215000Y-138277600D01*
X68580000Y-138912600D02*
X68580000Y-137642600D01*
X71462900Y-134632700D02*
G75*
G02*
X65697100Y-134632700I-2882900J0D01*
G01*
X65697100Y-134632700D02*
G75*
G02*
X71462900Y-134632700I2882900J0D01*
G01*
D14*
%TO.C,R2*%
X67521064Y-104675000D02*
X67066936Y-104675000D01*
X67521064Y-106145000D02*
X67066936Y-106145000D01*
D13*
%TO.C,C8*%
X84556600Y-125095000D02*
X84556600Y-123825000D01*
X85191600Y-124460000D02*
X83921600Y-124460000D01*
X83794600Y-124460000D02*
G75*
G02*
X78028800Y-124460000I-2882900J0D01*
G01*
X78028800Y-124460000D02*
G75*
G02*
X83794600Y-124460000I2882900J0D01*
G01*
D11*
%TO.C,VR1*%
X76990000Y-130100000D02*
X76990000Y-130265000D01*
X76990000Y-136600000D02*
X76990000Y-136435000D01*
X76990000Y-136600000D02*
X80490000Y-136600000D01*
X80490000Y-130100000D02*
X76990000Y-130100000D01*
X80490000Y-131415000D02*
X80490000Y-130100000D01*
X80490000Y-136600000D02*
X80490000Y-135285000D01*
D12*
X73835000Y-131050000D02*
G75*
G02*
X73635000Y-131050000I-100000J0D01*
G01*
X73635000Y-131050000D02*
G75*
G02*
X73835000Y-131050000I100000J0D01*
G01*
%TO.C,U3*%
X147703500Y-122531000D02*
X147703500Y-127230998D01*
X160303498Y-120580999D02*
X160303498Y-127230998D01*
D14*
%TO.C,R1*%
X67066936Y-98690000D02*
X67521064Y-98690000D01*
X67066936Y-100160000D02*
X67521064Y-100160000D01*
%TO.C,J1*%
X63430000Y-143490000D02*
X63030000Y-143490000D01*
X63430000Y-152440000D02*
X63430000Y-143490000D01*
X111830000Y-144840000D02*
X116780000Y-144840000D01*
X111830000Y-152440000D02*
X111830000Y-144840000D01*
X116780000Y-144840000D02*
X116780000Y-152440000D01*
X198180000Y-143490000D02*
X198580000Y-143490000D01*
X198180000Y-152440000D02*
X198180000Y-143490000D01*
D13*
%TO.C,U5*%
X146505213Y-69672200D02*
X164644791Y-69672200D01*
X164644787Y-57327800D02*
X146505209Y-57327800D01*
D15*
G36*
X144868900Y-60440499D02*
G01*
X144614900Y-60440499D01*
X144614900Y-60059499D01*
X144868900Y-60059499D01*
X144868900Y-60440499D01*
G37*
G36*
X144868900Y-65440502D02*
G01*
X144614900Y-65440502D01*
X144614900Y-65059502D01*
X144868900Y-65059502D01*
X144868900Y-65440502D01*
G37*
G36*
X166535100Y-59940500D02*
G01*
X166281100Y-59940500D01*
X166281100Y-59559500D01*
X166535100Y-59559500D01*
X166535100Y-59940500D01*
G37*
G36*
X166535100Y-64940500D02*
G01*
X166281100Y-64940500D01*
X166281100Y-64559500D01*
X166535100Y-64559500D01*
X166535100Y-64940500D01*
G37*
D14*
%TO.C,C1*%
X84355000Y-86098748D02*
X84355000Y-86621252D01*
X85825000Y-86098748D02*
X85825000Y-86621252D01*
%TO.C,C6*%
X151137252Y-72290000D02*
X150614748Y-72290000D01*
X151137252Y-73760000D02*
X150614748Y-73760000D01*
%TO.C,C2*%
X105691000Y-102608748D02*
X105691000Y-103131252D01*
X107161000Y-102608748D02*
X107161000Y-103131252D01*
D13*
%TO.C,U6*%
X135075213Y-93167200D02*
X153214791Y-93167200D01*
X153214787Y-80822800D02*
X135075209Y-80822800D01*
D15*
G36*
X133438900Y-83935499D02*
G01*
X133184900Y-83935499D01*
X133184900Y-83554499D01*
X133438900Y-83554499D01*
X133438900Y-83935499D01*
G37*
G36*
X133438900Y-88935502D02*
G01*
X133184900Y-88935502D01*
X133184900Y-88554502D01*
X133438900Y-88554502D01*
X133438900Y-88935502D01*
G37*
G36*
X155105100Y-83435500D02*
G01*
X154851100Y-83435500D01*
X154851100Y-83054500D01*
X155105100Y-83054500D01*
X155105100Y-83435500D01*
G37*
G36*
X155105100Y-88435500D02*
G01*
X154851100Y-88435500D01*
X154851100Y-88054500D01*
X155105100Y-88054500D01*
X155105100Y-88435500D01*
G37*
D14*
%TO.C,JP2*%
X70375000Y-106680000D02*
X70375000Y-104030000D01*
X73135000Y-104030000D02*
X70375000Y-104030000D01*
X73135000Y-106680000D02*
X70375000Y-106680000D01*
X73135000Y-106680000D02*
X73135000Y-104030000D01*
X73135000Y-107950000D02*
X73135000Y-109330000D01*
X73135000Y-109330000D02*
X71755000Y-109330000D01*
%TO.C,JP3*%
X172610000Y-105266000D02*
X172610000Y-103886000D01*
X173990000Y-105266000D02*
X172610000Y-105266000D01*
X175260000Y-102506000D02*
X177910000Y-102506000D01*
X175260000Y-105266000D02*
X175260000Y-102506000D01*
X175260000Y-105266000D02*
X177910000Y-105266000D01*
X177910000Y-105266000D02*
X177910000Y-102506000D01*
%TO.C,JP1*%
X70375000Y-95140000D02*
X71755000Y-95140000D01*
X70375000Y-96520000D02*
X70375000Y-95140000D01*
X70375000Y-97790000D02*
X70375000Y-100440000D01*
X70375000Y-97790000D02*
X73135000Y-97790000D01*
X70375000Y-100440000D02*
X73135000Y-100440000D01*
X73135000Y-97790000D02*
X73135000Y-100440000D01*
D13*
%TO.C,R3*%
X114833400Y-68580000D02*
X114833400Y-81280000D01*
X114833400Y-81280000D02*
X117576600Y-81280000D01*
X117576600Y-68580000D02*
X114833400Y-68580000D01*
X117576600Y-81280000D02*
X117576600Y-68580000D01*
D14*
%TO.C,C5*%
X135628748Y-96039000D02*
X136151252Y-96039000D01*
X135628748Y-97509000D02*
X136151252Y-97509000D01*
D12*
%TO.C,U4*%
X115459499Y-122434002D02*
X110759501Y-122434002D01*
X117409500Y-135034000D02*
X110759501Y-135034000D01*
D13*
%TO.C,U1*%
X78978001Y-89281000D02*
X78978001Y-90446860D01*
X78978001Y-92433140D02*
X78978001Y-93015799D01*
X78978001Y-94944201D02*
X78978001Y-95555799D01*
X78978001Y-97484201D02*
X78978001Y-98095799D01*
X78978001Y-100024201D02*
X78978001Y-100635799D01*
X78978001Y-102564201D02*
X78978001Y-103175799D01*
X78978001Y-105104201D02*
X78978001Y-105715799D01*
X78978001Y-107644201D02*
X78978001Y-108255799D01*
X78978001Y-110184201D02*
X78978001Y-110795799D01*
X78978001Y-112724201D02*
X78978001Y-113335799D01*
X78978001Y-115264201D02*
X78978001Y-116459000D01*
X78978001Y-116459000D02*
X86344001Y-116459000D01*
X86344001Y-89281000D02*
X78978001Y-89281000D01*
X86344001Y-90475799D02*
X86344001Y-89281000D01*
X86344001Y-93015799D02*
X86344001Y-92404201D01*
X86344001Y-95555799D02*
X86344001Y-94944201D01*
X86344001Y-98095799D02*
X86344001Y-97484201D01*
X86344001Y-100635799D02*
X86344001Y-100024201D01*
X86344001Y-103175799D02*
X86344001Y-102564201D01*
X86344001Y-105715799D02*
X86344001Y-105104201D01*
X86344001Y-108255799D02*
X86344001Y-107644201D01*
X86344001Y-110795799D02*
X86344001Y-110184201D01*
X86344001Y-113335799D02*
X86344001Y-112724201D01*
X86344001Y-116459000D02*
X86344001Y-115264201D01*
D14*
%TO.C,C4*%
X114307252Y-120042000D02*
X113784748Y-120042000D01*
X114307252Y-121512000D02*
X113784748Y-121512000D01*
%TO.C,C3*%
X161317000Y-127134252D02*
X161317000Y-126611748D01*
X162787000Y-127134252D02*
X162787000Y-126611748D01*
%TD*%
M02*
