M48
; DRILL file {KiCad 9.0.6} date 2026-01-06T07:36:24-0700
; FORMAT={-:-/ absolute / metric / decimal}
; #@! TF.CreationDate,2026-01-06T07:36:24-07:00
; #@! TF.GenerationSoftware,Kicad,Pcbnew,9.0.6
; #@! TF.FileFunction,Plated,1,2,PTH
FMAT,2
METRIC
; #@! TA.AperFunction,Plated,PTH,ViaDrill
T1C0.300
; #@! TA.AperFunction,Plated,PTH,ViaDrill
T2C0.400
; #@! TA.AperFunction,Plated,PTH,ComponentDrill
T3C0.711
; #@! TA.AperFunction,Plated,PTH,ComponentDrill
T4C0.813
; #@! TA.AperFunction,Plated,PTH,ComponentDrill
T5C1.000
%
G90
G05
T1
X64.897Y-60.192
X64.897Y-65.533
X64.897Y-69.533
X64.897Y-73.533
X64.897Y-77.533
X64.897Y-81.533
X64.897Y-85.533
X64.897Y-89.533
X64.897Y-93.533
X64.897Y-97.533
X64.897Y-101.533
X64.897Y-105.537
X64.897Y-109.533
X64.897Y-113.533
X64.897Y-117.533
X64.897Y-121.533
X64.897Y-125.533
X64.897Y-129.533
X64.897Y-133.533
X64.897Y-137.533
X64.897Y-141.533
X65.07Y-56.007
X66.04Y-120.142
X68.07Y-56.007
X68.58Y-130.683
X69.85Y-118.364
X71.07Y-56.007
X71.628Y-102.108
X74.041Y-129.032
X74.07Y-56.007
X75.057Y-141.605
X75.692Y-128.905
X76.327Y-138.8
X76.708Y-137.16
X77.07Y-56.007
X77.188Y-137.8
X77.597Y-128.778
X78.359Y-121.92
X78.74Y-136.535
X80.07Y-56.007
X81.28Y-141.097
X82.804Y-141.605
X83.07Y-56.007
X83.739Y-118.872
X84.582Y-136.398
X84.734Y-113.259
X85.09Y-83.566
X85.344Y-140.6
X85.979Y-117.094
X86.07Y-56.007
X86.106Y-121.412
X86.487Y-137.785
X86.751Y-115.824
X87.122Y-137.15
X87.63Y-141.605
X87.757Y-138.049
X88.011Y-111.135
X88.138Y-109.855
X88.265Y-114.3
X88.265Y-138.684
X88.895Y-111.135
X89.07Y-56.007
X89.535Y-134.747
X89.672Y-131.699
X89.916Y-104.521
X89.916Y-107.305
X90.297Y-112.014
X90.678Y-138.43
X90.932Y-109.601
X91.313Y-126.873
X91.821Y-137.932
X92.07Y-56.007
X93.218Y-134.874
X93.599Y-112.268
X93.599Y-114.427
X94.615Y-141.351
X95.07Y-56.007
X97.663Y-131.435
X98.055Y-114.173
X98.07Y-56.007
X98.171Y-134.874
X98.679Y-132.588
X99.568Y-128.788
X99.568Y-131.445
X101.07Y-56.007
X101.6Y-112.141
X101.6Y-129.794
X103.378Y-69.85
X104.07Y-56.007
X104.14Y-95.504
X104.902Y-129.794
X105.101Y-132.484
X105.156Y-128.524
X105.339Y-131.609
X105.41Y-134.493
X105.537Y-125.984
X105.596Y-136.847
X105.664Y-127.254
X106.296Y-130.359
X106.426Y-100.076
X106.553Y-107.696
X106.553Y-128.778
X107.07Y-56.007
X107.112Y-126.975
X107.559Y-133.109
X107.696Y-128.859
X107.95Y-138.8
X107.95Y-141.478
X109.22Y-101.6
X109.601Y-118.999
X109.982Y-91.567
X110.07Y-56.007
X110.49Y-93.599
X110.617Y-90.678
X110.617Y-101.6
X110.777Y-131.474
X110.861Y-116.215
X110.871Y-106.055
X111.506Y-137.795
X111.557Y-127.279
X111.633Y-125.806
X111.76Y-97.917
X111.879Y-110.439
X111.887Y-109.474
X111.887Y-115.062
X112.014Y-102.235
X112.09Y-128.143
X112.141Y-106.172
X112.522Y-140.6
X112.588Y-110.81
X112.626Y-89.027
X113.07Y-56.007
X113.538Y-114.3
X113.792Y-87.63
X114.503Y-127.483
X114.681Y-85.852
X114.808Y-111.506
X114.935Y-96.901
X115.062Y-102.235
X115.316Y-113.274
X115.316Y-125.98
X115.443Y-84.963
X115.447Y-131.481
X115.951Y-117.475
X116.07Y-56.007
X116.078Y-106.172
X116.707Y-92.329
X116.713Y-120.777
X116.723Y-111.379
X117.094Y-90.551
X117.475Y-141.224
X117.602Y-83.058
X117.729Y-89.408
X117.856Y-98.044
X117.856Y-109.728
X118.237Y-88.011
X118.237Y-131.191
X118.364Y-114.3
X118.415Y-126.136
X118.796Y-134.645
X118.872Y-131.826
X118.999Y-115.824
X119.07Y-56.007
X119.126Y-114.925
X119.304Y-127.889
X119.361Y-134.02
X119.431Y-130.566
X119.438Y-132.451
X119.457Y-86.487
X120.01Y-114.925
X120.142Y-84.953
X120.358Y-129.149
X120.396Y-110.49
X120.498Y-137.897
X120.523Y-102.362
X120.523Y-106.172
X120.523Y-112.004
X121.031Y-109.728
X121.158Y-97.663
X121.314Y-125.462
X121.488Y-123.032
X121.498Y-128.077
X121.793Y-106.055
X121.95Y-83.693
X122.047Y-101.473
X122.07Y-56.007
X122.116Y-125.545
X122.174Y-123.444
X122.174Y-133.985
X122.428Y-109.766
X122.438Y-108.966
X122.575Y-82.414
X123.066Y-125.479
X123.136Y-81.788
X123.825Y-122.682
X123.888Y-78.803
X124.714Y-132.832
X125.07Y-56.007
X125.73Y-137.947
X127.254Y-134.102
X128.07Y-56.007
X128.27Y-141.097
X129.159Y-84.328
X129.54Y-92.837
X129.667Y-83.693
X129.667Y-86.301
X129.667Y-134.737
X130.012Y-85.578
X130.013Y-92.192
X130.175Y-83.058
X130.514Y-91.288
X130.556Y-84.953
X130.683Y-82.413
X130.943Y-88.363
X131.064Y-132.07
X131.07Y-56.007
X131.071Y-90.663
X131.191Y-75.174
X131.191Y-81.788
X131.555Y-88.988
X131.572Y-87.738
X131.61Y-89.818
X132.334Y-135.362
X132.588Y-81.915
X132.711Y-86.87
X132.715Y-80.137
X132.842Y-92.837
X133.35Y-141.097
X134.07Y-56.007
X134.296Y-79.451
X134.874Y-135.987
X135.077Y-77.724
X137.033Y-117.221
X137.033Y-126.365
X137.033Y-128.778
X137.07Y-56.007
X137.287Y-136.612
X138.43Y-141.097
X138.938Y-96.774
X139.827Y-137.15
X140.07Y-56.007
X140.499Y-92.542
X141.554Y-58.471
X141.986Y-90.399
X142.113Y-57.531
X142.494Y-137.601
X142.815Y-119.38
X143.07Y-56.007
X143.129Y-125.36
X143.266Y-123.19
X143.51Y-141.097
X143.774Y-82.042
X143.811Y-129.498
X143.929Y-125.36
X144.399Y-80.772
X144.653Y-129.54
X144.729Y-125.36
X144.729Y-71.018
X145.034Y-138.226
X145.726Y-81.464
X146.07Y-56.007
X146.242Y-89.346
X146.431Y-125.36
X146.768Y-85.471
X146.768Y-86.624
X147.193Y-67.945
X147.32Y-73.787
X147.32Y-132.207
X147.374Y-115.951
X147.447Y-58.801
X147.448Y-88.139
X147.825Y-116.854
X148.019Y-85.217
X148.275Y-117.602
X148.308Y-89.761
X148.59Y-141.097
X148.615Y-130.531
X148.644Y-84.332
X148.717Y-131.699
X148.726Y-118.532
X149.07Y-56.007
X149.177Y-94.996
X149.225Y-123.19
X149.225Y-126.365
X149.629Y-92.364
X149.86Y-140.6
X150.114Y-112.903
X150.241Y-91.704
X150.292Y-131.807
X150.702Y-91.05
X151.291Y-88.393
X151.48Y-85.87
X151.483Y-85.068
X151.765Y-89.037
X151.992Y-91.018
X152.009Y-132.432
X152.07Y-56.007
X152.104Y-86.37
X152.146Y-84.62
X152.4Y-102.997
X152.4Y-140.6
X152.428Y-91.689
X152.716Y-138.319
X152.781Y-126.746
X152.798Y-88.887
X152.857Y-132.486
X152.908Y-92.329
X153.068Y-137.601
X153.492Y-140.6
X153.72Y-114.601
X153.769Y-137.15
X153.924Y-94.488
X154.127Y-138.455
X154.305Y-80.772
X154.402Y-118.532
X154.432Y-117.475
X154.559Y-136.612
X154.686Y-115.062
X155.07Y-56.007
X155.096Y-81.413
X155.321Y-135.987
X155.575Y-82.12
X155.6Y-132.563
X155.977Y-116.705
X156.083Y-135.362
X156.598Y-116.068
X157.099Y-134.737
X157.106Y-89.036
X157.353Y-112.903
X157.353Y-116.332
X157.643Y-89.652
X158.017Y-134.102
X158.07Y-56.007
X158.174Y-116.703
X158.313Y-90.103
X158.75Y-123.063
X158.75Y-126.238
X159.131Y-117.983
X159.258Y-141.097
X159.334Y-132.969
X159.461Y-134.772
X159.766Y-119.507
X160.401Y-92.837
X160.665Y-133.502
X161.07Y-56.007
X161.275Y-132.105
X161.357Y-91.38
X161.489Y-131.181
X161.798Y-118.999
X162.052Y-129.413
X162.23Y-130.835
X162.433Y-114.427
X162.563Y-90.173
X162.687Y-115.443
X163.195Y-141.097
X163.322Y-89.414
X163.576Y-117.729
X164.07Y-56.007
X164.719Y-72.771
X164.719Y-84.201
X165.224Y-117.126
X166.049Y-80.772
X166.497Y-141.097
X166.852Y-116.433
X167.07Y-56.007
X167.122Y-81.487
X167.884Y-82.165
X170.07Y-56.007
X170.18Y-141.097
X173.07Y-56.007
X173.609Y-109.22
X174.244Y-141.097
X176.07Y-56.007
X176.53Y-141.732
X177.8Y-109.855
X179.07Y-56.007
X179.07Y-141.097
X180.086Y-110.998
X182.07Y-56.007
X182.631Y-112.517
X184.15Y-141.097
X185.07Y-56.007
X185.42Y-120.523
X185.928Y-112.903
X186.563Y-141.097
X187.96Y-121.412
X188.07Y-56.007
X189.865Y-112.258
X191.07Y-56.007
X191.77Y-141.097
X193.04Y-114.427
X193.929Y-141.097
X194.07Y-56.007
X196.977Y-59.817
X196.977Y-65.158
X196.977Y-69.158
X196.977Y-73.158
X196.977Y-77.158
X196.977Y-81.158
X196.977Y-85.158
X196.977Y-89.158
X196.977Y-93.158
X196.977Y-97.158
X196.977Y-101.158
X196.977Y-105.158
X196.977Y-109.158
X196.977Y-113.158
X196.977Y-117.158
X196.977Y-121.158
X196.977Y-125.158
X196.977Y-129.158
X196.977Y-133.158
X196.977Y-137.158
X196.977Y-141.158
X197.07Y-56.007
T2
X66.294Y-111.887
X71.12Y-138.938
X72.39Y-138.938
X72.644Y-116.84
X85.09Y-109.734
X97.155Y-105.41
X97.155Y-122.555
X97.79Y-84.709
X108.585Y-104.14
X112.395Y-104.14
X113.03Y-124.46
X116.205Y-82.55
X117.475Y-104.14
X134.747Y-103.505
X134.874Y-94.742
X137.668Y-86.741
X151.765Y-124.46
X152.019Y-75.057
X152.806Y-87.02
X152.908Y-63.754
X157.48Y-124.46
X161.29Y-124.46
X163.322Y-63.475
T3
X116.205Y-69.85
X116.205Y-72.39
X116.205Y-74.93
X116.205Y-77.47
X116.205Y-80.01
T4
X68.58Y-133.629
X68.58Y-135.636
X78.74Y-91.44
X78.74Y-93.98
X78.74Y-96.52
X78.74Y-99.06
X78.74Y-101.6
X78.74Y-104.14
X78.74Y-106.68
X78.74Y-109.22
X78.74Y-111.76
X78.74Y-114.3
X79.908Y-124.46
X81.915Y-124.46
X86.582Y-91.44
X86.582Y-93.98
X86.582Y-96.52
X86.582Y-99.06
X86.582Y-101.6
X86.582Y-104.14
X86.582Y-106.68
X86.582Y-109.22
X86.582Y-111.76
X86.582Y-114.3
T5
X71.755Y-96.52
X71.755Y-99.06
X71.755Y-105.41
X71.755Y-107.95
X173.99Y-103.886
X176.53Y-103.886
M30
