%TF.GenerationSoftware,KiCad,Pcbnew,9.0.6*%
%TF.CreationDate,2026-01-11T16:50:18-07:00*%
%TF.ProjectId,PCRAMXpander,50435241-4d58-4706-916e-6465722e6b69,rev?*%
%TF.SameCoordinates,Original*%
%TF.FileFunction,Legend,Top*%
%TF.FilePolarity,Positive*%
%FSLAX46Y46*%
G04 Gerber Fmt 4.6, Leading zero omitted, Abs format (unit mm)*
G04 Created by KiCad (PCBNEW 9.0.6) date 2026-01-11 16:50:18*
%MOMM*%
%LPD*%
G01*
G04 APERTURE LIST*
%ADD10C,0.300000*%
%ADD11C,0.158750*%
%ADD12C,0.150000*%
%ADD13C,0.254000*%
%ADD14C,0.100000*%
%ADD15C,0.127000*%
%ADD16C,0.200000*%
%ADD17C,0.120000*%
%ADD18C,0.152400*%
%ADD19C,0.000000*%
G04 APERTURE END LIST*
D10*
X65900758Y-60242438D02*
X65900758Y-58242438D01*
X65900758Y-58242438D02*
X66662663Y-58242438D01*
X66662663Y-58242438D02*
X66853139Y-58337676D01*
X66853139Y-58337676D02*
X66948377Y-58432914D01*
X66948377Y-58432914D02*
X67043615Y-58623390D01*
X67043615Y-58623390D02*
X67043615Y-58909104D01*
X67043615Y-58909104D02*
X66948377Y-59099580D01*
X66948377Y-59099580D02*
X66853139Y-59194819D01*
X66853139Y-59194819D02*
X66662663Y-59290057D01*
X66662663Y-59290057D02*
X65900758Y-59290057D01*
X69043615Y-60051961D02*
X68948377Y-60147200D01*
X68948377Y-60147200D02*
X68662663Y-60242438D01*
X68662663Y-60242438D02*
X68472187Y-60242438D01*
X68472187Y-60242438D02*
X68186472Y-60147200D01*
X68186472Y-60147200D02*
X67995996Y-59956723D01*
X67995996Y-59956723D02*
X67900758Y-59766247D01*
X67900758Y-59766247D02*
X67805520Y-59385295D01*
X67805520Y-59385295D02*
X67805520Y-59099580D01*
X67805520Y-59099580D02*
X67900758Y-58718628D01*
X67900758Y-58718628D02*
X67995996Y-58528152D01*
X67995996Y-58528152D02*
X68186472Y-58337676D01*
X68186472Y-58337676D02*
X68472187Y-58242438D01*
X68472187Y-58242438D02*
X68662663Y-58242438D01*
X68662663Y-58242438D02*
X68948377Y-58337676D01*
X68948377Y-58337676D02*
X69043615Y-58432914D01*
X71043615Y-60242438D02*
X70376948Y-59290057D01*
X69900758Y-60242438D02*
X69900758Y-58242438D01*
X69900758Y-58242438D02*
X70662663Y-58242438D01*
X70662663Y-58242438D02*
X70853139Y-58337676D01*
X70853139Y-58337676D02*
X70948377Y-58432914D01*
X70948377Y-58432914D02*
X71043615Y-58623390D01*
X71043615Y-58623390D02*
X71043615Y-58909104D01*
X71043615Y-58909104D02*
X70948377Y-59099580D01*
X70948377Y-59099580D02*
X70853139Y-59194819D01*
X70853139Y-59194819D02*
X70662663Y-59290057D01*
X70662663Y-59290057D02*
X69900758Y-59290057D01*
X71805520Y-59671009D02*
X72757901Y-59671009D01*
X71615044Y-60242438D02*
X72281710Y-58242438D01*
X72281710Y-58242438D02*
X72948377Y-60242438D01*
X73615044Y-60242438D02*
X73615044Y-58242438D01*
X73615044Y-58242438D02*
X74281711Y-59671009D01*
X74281711Y-59671009D02*
X74948377Y-58242438D01*
X74948377Y-58242438D02*
X74948377Y-60242438D01*
X75710282Y-58242438D02*
X77043615Y-60242438D01*
X77043615Y-58242438D02*
X75710282Y-60242438D01*
X77805520Y-58909104D02*
X77805520Y-60909104D01*
X77805520Y-59004342D02*
X77995996Y-58909104D01*
X77995996Y-58909104D02*
X78376949Y-58909104D01*
X78376949Y-58909104D02*
X78567425Y-59004342D01*
X78567425Y-59004342D02*
X78662663Y-59099580D01*
X78662663Y-59099580D02*
X78757901Y-59290057D01*
X78757901Y-59290057D02*
X78757901Y-59861485D01*
X78757901Y-59861485D02*
X78662663Y-60051961D01*
X78662663Y-60051961D02*
X78567425Y-60147200D01*
X78567425Y-60147200D02*
X78376949Y-60242438D01*
X78376949Y-60242438D02*
X77995996Y-60242438D01*
X77995996Y-60242438D02*
X77805520Y-60147200D01*
X80472187Y-60242438D02*
X80472187Y-59194819D01*
X80472187Y-59194819D02*
X80376949Y-59004342D01*
X80376949Y-59004342D02*
X80186473Y-58909104D01*
X80186473Y-58909104D02*
X79805520Y-58909104D01*
X79805520Y-58909104D02*
X79615044Y-59004342D01*
X80472187Y-60147200D02*
X80281711Y-60242438D01*
X80281711Y-60242438D02*
X79805520Y-60242438D01*
X79805520Y-60242438D02*
X79615044Y-60147200D01*
X79615044Y-60147200D02*
X79519806Y-59956723D01*
X79519806Y-59956723D02*
X79519806Y-59766247D01*
X79519806Y-59766247D02*
X79615044Y-59575771D01*
X79615044Y-59575771D02*
X79805520Y-59480533D01*
X79805520Y-59480533D02*
X80281711Y-59480533D01*
X80281711Y-59480533D02*
X80472187Y-59385295D01*
X81424568Y-58909104D02*
X81424568Y-60242438D01*
X81424568Y-59099580D02*
X81519806Y-59004342D01*
X81519806Y-59004342D02*
X81710282Y-58909104D01*
X81710282Y-58909104D02*
X81995997Y-58909104D01*
X81995997Y-58909104D02*
X82186473Y-59004342D01*
X82186473Y-59004342D02*
X82281711Y-59194819D01*
X82281711Y-59194819D02*
X82281711Y-60242438D01*
X84091235Y-60242438D02*
X84091235Y-58242438D01*
X84091235Y-60147200D02*
X83900759Y-60242438D01*
X83900759Y-60242438D02*
X83519806Y-60242438D01*
X83519806Y-60242438D02*
X83329330Y-60147200D01*
X83329330Y-60147200D02*
X83234092Y-60051961D01*
X83234092Y-60051961D02*
X83138854Y-59861485D01*
X83138854Y-59861485D02*
X83138854Y-59290057D01*
X83138854Y-59290057D02*
X83234092Y-59099580D01*
X83234092Y-59099580D02*
X83329330Y-59004342D01*
X83329330Y-59004342D02*
X83519806Y-58909104D01*
X83519806Y-58909104D02*
X83900759Y-58909104D01*
X83900759Y-58909104D02*
X84091235Y-59004342D01*
X85805521Y-60147200D02*
X85615045Y-60242438D01*
X85615045Y-60242438D02*
X85234092Y-60242438D01*
X85234092Y-60242438D02*
X85043616Y-60147200D01*
X85043616Y-60147200D02*
X84948378Y-59956723D01*
X84948378Y-59956723D02*
X84948378Y-59194819D01*
X84948378Y-59194819D02*
X85043616Y-59004342D01*
X85043616Y-59004342D02*
X85234092Y-58909104D01*
X85234092Y-58909104D02*
X85615045Y-58909104D01*
X85615045Y-58909104D02*
X85805521Y-59004342D01*
X85805521Y-59004342D02*
X85900759Y-59194819D01*
X85900759Y-59194819D02*
X85900759Y-59385295D01*
X85900759Y-59385295D02*
X84948378Y-59575771D01*
X86757902Y-60242438D02*
X86757902Y-58909104D01*
X86757902Y-59290057D02*
X86853140Y-59099580D01*
X86853140Y-59099580D02*
X86948378Y-59004342D01*
X86948378Y-59004342D02*
X87138854Y-58909104D01*
X87138854Y-58909104D02*
X87329331Y-58909104D01*
X89805521Y-59099580D02*
X89615045Y-59004342D01*
X89615045Y-59004342D02*
X89519807Y-58909104D01*
X89519807Y-58909104D02*
X89424569Y-58718628D01*
X89424569Y-58718628D02*
X89424569Y-58623390D01*
X89424569Y-58623390D02*
X89519807Y-58432914D01*
X89519807Y-58432914D02*
X89615045Y-58337676D01*
X89615045Y-58337676D02*
X89805521Y-58242438D01*
X89805521Y-58242438D02*
X90186474Y-58242438D01*
X90186474Y-58242438D02*
X90376950Y-58337676D01*
X90376950Y-58337676D02*
X90472188Y-58432914D01*
X90472188Y-58432914D02*
X90567426Y-58623390D01*
X90567426Y-58623390D02*
X90567426Y-58718628D01*
X90567426Y-58718628D02*
X90472188Y-58909104D01*
X90472188Y-58909104D02*
X90376950Y-59004342D01*
X90376950Y-59004342D02*
X90186474Y-59099580D01*
X90186474Y-59099580D02*
X89805521Y-59099580D01*
X89805521Y-59099580D02*
X89615045Y-59194819D01*
X89615045Y-59194819D02*
X89519807Y-59290057D01*
X89519807Y-59290057D02*
X89424569Y-59480533D01*
X89424569Y-59480533D02*
X89424569Y-59861485D01*
X89424569Y-59861485D02*
X89519807Y-60051961D01*
X89519807Y-60051961D02*
X89615045Y-60147200D01*
X89615045Y-60147200D02*
X89805521Y-60242438D01*
X89805521Y-60242438D02*
X90186474Y-60242438D01*
X90186474Y-60242438D02*
X90376950Y-60147200D01*
X90376950Y-60147200D02*
X90472188Y-60051961D01*
X90472188Y-60051961D02*
X90567426Y-59861485D01*
X90567426Y-59861485D02*
X90567426Y-59480533D01*
X90567426Y-59480533D02*
X90472188Y-59290057D01*
X90472188Y-59290057D02*
X90376950Y-59194819D01*
X90376950Y-59194819D02*
X90186474Y-59099580D01*
X91424569Y-60242438D02*
X91424569Y-58242438D01*
X91424569Y-58242438D02*
X92091236Y-59671009D01*
X92091236Y-59671009D02*
X92757902Y-58242438D01*
X92757902Y-58242438D02*
X92757902Y-60242438D01*
X94376950Y-59194819D02*
X94662664Y-59290057D01*
X94662664Y-59290057D02*
X94757902Y-59385295D01*
X94757902Y-59385295D02*
X94853140Y-59575771D01*
X94853140Y-59575771D02*
X94853140Y-59861485D01*
X94853140Y-59861485D02*
X94757902Y-60051961D01*
X94757902Y-60051961D02*
X94662664Y-60147200D01*
X94662664Y-60147200D02*
X94472188Y-60242438D01*
X94472188Y-60242438D02*
X93710283Y-60242438D01*
X93710283Y-60242438D02*
X93710283Y-58242438D01*
X93710283Y-58242438D02*
X94376950Y-58242438D01*
X94376950Y-58242438D02*
X94567426Y-58337676D01*
X94567426Y-58337676D02*
X94662664Y-58432914D01*
X94662664Y-58432914D02*
X94757902Y-58623390D01*
X94757902Y-58623390D02*
X94757902Y-58813866D01*
X94757902Y-58813866D02*
X94662664Y-59004342D01*
X94662664Y-59004342D02*
X94567426Y-59099580D01*
X94567426Y-59099580D02*
X94376950Y-59194819D01*
X94376950Y-59194819D02*
X93710283Y-59194819D01*
D11*
X66726220Y-63006121D02*
X66726220Y-61736121D01*
X66726220Y-62219930D02*
X66847173Y-62159454D01*
X66847173Y-62159454D02*
X67089078Y-62159454D01*
X67089078Y-62159454D02*
X67210030Y-62219930D01*
X67210030Y-62219930D02*
X67270506Y-62280406D01*
X67270506Y-62280406D02*
X67330982Y-62401359D01*
X67330982Y-62401359D02*
X67330982Y-62764216D01*
X67330982Y-62764216D02*
X67270506Y-62885168D01*
X67270506Y-62885168D02*
X67210030Y-62945645D01*
X67210030Y-62945645D02*
X67089078Y-63006121D01*
X67089078Y-63006121D02*
X66847173Y-63006121D01*
X66847173Y-63006121D02*
X66726220Y-62945645D01*
X67754316Y-62159454D02*
X68056697Y-63006121D01*
X68359078Y-62159454D02*
X68056697Y-63006121D01*
X68056697Y-63006121D02*
X67935745Y-63308502D01*
X67935745Y-63308502D02*
X67875268Y-63368978D01*
X67875268Y-63368978D02*
X67754316Y-63429454D01*
X70173364Y-61736121D02*
X70173364Y-62643264D01*
X70173364Y-62643264D02*
X70112887Y-62824692D01*
X70112887Y-62824692D02*
X69991935Y-62945645D01*
X69991935Y-62945645D02*
X69810506Y-63006121D01*
X69810506Y-63006121D02*
X69689554Y-63006121D01*
X71261935Y-62945645D02*
X71140983Y-63006121D01*
X71140983Y-63006121D02*
X70899078Y-63006121D01*
X70899078Y-63006121D02*
X70778125Y-62945645D01*
X70778125Y-62945645D02*
X70717649Y-62824692D01*
X70717649Y-62824692D02*
X70717649Y-62340883D01*
X70717649Y-62340883D02*
X70778125Y-62219930D01*
X70778125Y-62219930D02*
X70899078Y-62159454D01*
X70899078Y-62159454D02*
X71140983Y-62159454D01*
X71140983Y-62159454D02*
X71261935Y-62219930D01*
X71261935Y-62219930D02*
X71322411Y-62340883D01*
X71322411Y-62340883D02*
X71322411Y-62461835D01*
X71322411Y-62461835D02*
X70717649Y-62582787D01*
X71685268Y-62159454D02*
X72169077Y-62159454D01*
X71866696Y-63006121D02*
X71866696Y-61917549D01*
X71866696Y-61917549D02*
X71927173Y-61796597D01*
X71927173Y-61796597D02*
X72048125Y-61736121D01*
X72048125Y-61736121D02*
X72169077Y-61736121D01*
X72410982Y-62159454D02*
X72894791Y-62159454D01*
X72592410Y-63006121D02*
X72592410Y-61917549D01*
X72592410Y-61917549D02*
X72652887Y-61796597D01*
X72652887Y-61796597D02*
X72773839Y-61736121D01*
X72773839Y-61736121D02*
X72894791Y-61736121D01*
X74709077Y-62340883D02*
X74285743Y-62340883D01*
X74285743Y-63006121D02*
X74285743Y-61736121D01*
X74285743Y-61736121D02*
X74890505Y-61736121D01*
X75555743Y-63006121D02*
X75434791Y-62945645D01*
X75434791Y-62945645D02*
X75374314Y-62824692D01*
X75374314Y-62824692D02*
X75374314Y-61736121D01*
X76039552Y-63006121D02*
X76039552Y-62159454D01*
X76039552Y-61736121D02*
X75979076Y-61796597D01*
X75979076Y-61796597D02*
X76039552Y-61857073D01*
X76039552Y-61857073D02*
X76100029Y-61796597D01*
X76100029Y-61796597D02*
X76039552Y-61736121D01*
X76039552Y-61736121D02*
X76039552Y-61857073D01*
X76462886Y-62159454D02*
X76946695Y-62159454D01*
X76644314Y-61736121D02*
X76644314Y-62824692D01*
X76644314Y-62824692D02*
X76704791Y-62945645D01*
X76704791Y-62945645D02*
X76825743Y-63006121D01*
X76825743Y-63006121D02*
X76946695Y-63006121D01*
X77188600Y-62159454D02*
X77672409Y-62159454D01*
X77370028Y-61736121D02*
X77370028Y-62824692D01*
X77370028Y-62824692D02*
X77430505Y-62945645D01*
X77430505Y-62945645D02*
X77551457Y-63006121D01*
X77551457Y-63006121D02*
X77672409Y-63006121D01*
X78277171Y-63006121D02*
X78156219Y-62945645D01*
X78156219Y-62945645D02*
X78095742Y-62885168D01*
X78095742Y-62885168D02*
X78035266Y-62764216D01*
X78035266Y-62764216D02*
X78035266Y-62401359D01*
X78035266Y-62401359D02*
X78095742Y-62280406D01*
X78095742Y-62280406D02*
X78156219Y-62219930D01*
X78156219Y-62219930D02*
X78277171Y-62159454D01*
X78277171Y-62159454D02*
X78458600Y-62159454D01*
X78458600Y-62159454D02*
X78579552Y-62219930D01*
X78579552Y-62219930D02*
X78640028Y-62280406D01*
X78640028Y-62280406D02*
X78700504Y-62401359D01*
X78700504Y-62401359D02*
X78700504Y-62764216D01*
X78700504Y-62764216D02*
X78640028Y-62885168D01*
X78640028Y-62885168D02*
X78579552Y-62945645D01*
X78579552Y-62945645D02*
X78458600Y-63006121D01*
X78458600Y-63006121D02*
X78277171Y-63006121D01*
X79244790Y-62159454D02*
X79244790Y-63006121D01*
X79244790Y-62280406D02*
X79305267Y-62219930D01*
X79305267Y-62219930D02*
X79426219Y-62159454D01*
X79426219Y-62159454D02*
X79607648Y-62159454D01*
X79607648Y-62159454D02*
X79728600Y-62219930D01*
X79728600Y-62219930D02*
X79789076Y-62340883D01*
X79789076Y-62340883D02*
X79789076Y-63006121D01*
X81724315Y-63489930D02*
X81663838Y-63429454D01*
X81663838Y-63429454D02*
X81542886Y-63248025D01*
X81542886Y-63248025D02*
X81482410Y-63127073D01*
X81482410Y-63127073D02*
X81421934Y-62945645D01*
X81421934Y-62945645D02*
X81361457Y-62643264D01*
X81361457Y-62643264D02*
X81361457Y-62401359D01*
X81361457Y-62401359D02*
X81421934Y-62098978D01*
X81421934Y-62098978D02*
X81482410Y-61917549D01*
X81482410Y-61917549D02*
X81542886Y-61796597D01*
X81542886Y-61796597D02*
X81663838Y-61615168D01*
X81663838Y-61615168D02*
X81724315Y-61554692D01*
X82208124Y-62159454D02*
X82208124Y-63248025D01*
X82208124Y-63248025D02*
X82147648Y-63368978D01*
X82147648Y-63368978D02*
X82026696Y-63429454D01*
X82026696Y-63429454D02*
X81966220Y-63429454D01*
X82208124Y-61736121D02*
X82147648Y-61796597D01*
X82147648Y-61796597D02*
X82208124Y-61857073D01*
X82208124Y-61857073D02*
X82268601Y-61796597D01*
X82268601Y-61796597D02*
X82208124Y-61736121D01*
X82208124Y-61736121D02*
X82208124Y-61857073D01*
X83296696Y-62945645D02*
X83175744Y-63006121D01*
X83175744Y-63006121D02*
X82933839Y-63006121D01*
X82933839Y-63006121D02*
X82812886Y-62945645D01*
X82812886Y-62945645D02*
X82752410Y-62824692D01*
X82752410Y-62824692D02*
X82752410Y-62340883D01*
X82752410Y-62340883D02*
X82812886Y-62219930D01*
X82812886Y-62219930D02*
X82933839Y-62159454D01*
X82933839Y-62159454D02*
X83175744Y-62159454D01*
X83175744Y-62159454D02*
X83296696Y-62219930D01*
X83296696Y-62219930D02*
X83357172Y-62340883D01*
X83357172Y-62340883D02*
X83357172Y-62461835D01*
X83357172Y-62461835D02*
X82752410Y-62582787D01*
X83720029Y-62159454D02*
X84203838Y-62159454D01*
X83901457Y-63006121D02*
X83901457Y-61917549D01*
X83901457Y-61917549D02*
X83961934Y-61796597D01*
X83961934Y-61796597D02*
X84082886Y-61736121D01*
X84082886Y-61736121D02*
X84203838Y-61736121D01*
X84445743Y-62159454D02*
X84929552Y-62159454D01*
X84627171Y-63006121D02*
X84627171Y-61917549D01*
X84627171Y-61917549D02*
X84687648Y-61796597D01*
X84687648Y-61796597D02*
X84808600Y-61736121D01*
X84808600Y-61736121D02*
X84929552Y-61736121D01*
X86139076Y-62401359D02*
X86078600Y-62340883D01*
X86078600Y-62340883D02*
X85957647Y-62280406D01*
X85957647Y-62280406D02*
X85836695Y-62280406D01*
X85836695Y-62280406D02*
X85715743Y-62340883D01*
X85715743Y-62340883D02*
X85655266Y-62401359D01*
X85655266Y-62401359D02*
X85594790Y-62522311D01*
X85594790Y-62522311D02*
X85594790Y-62643264D01*
X85594790Y-62643264D02*
X85655266Y-62764216D01*
X85655266Y-62764216D02*
X85715743Y-62824692D01*
X85715743Y-62824692D02*
X85836695Y-62885168D01*
X85836695Y-62885168D02*
X85957647Y-62885168D01*
X85957647Y-62885168D02*
X86078600Y-62824692D01*
X86078600Y-62824692D02*
X86139076Y-62764216D01*
X86139076Y-62280406D02*
X86139076Y-62764216D01*
X86139076Y-62764216D02*
X86199552Y-62824692D01*
X86199552Y-62824692D02*
X86260028Y-62824692D01*
X86260028Y-62824692D02*
X86380981Y-62764216D01*
X86380981Y-62764216D02*
X86441457Y-62643264D01*
X86441457Y-62643264D02*
X86441457Y-62340883D01*
X86441457Y-62340883D02*
X86320505Y-62159454D01*
X86320505Y-62159454D02*
X86139076Y-62038502D01*
X86139076Y-62038502D02*
X85897171Y-61978025D01*
X85897171Y-61978025D02*
X85655266Y-62038502D01*
X85655266Y-62038502D02*
X85473838Y-62159454D01*
X85473838Y-62159454D02*
X85352885Y-62340883D01*
X85352885Y-62340883D02*
X85292409Y-62582787D01*
X85292409Y-62582787D02*
X85352885Y-62824692D01*
X85352885Y-62824692D02*
X85473838Y-63006121D01*
X85473838Y-63006121D02*
X85655266Y-63127073D01*
X85655266Y-63127073D02*
X85897171Y-63187549D01*
X85897171Y-63187549D02*
X86139076Y-63127073D01*
X86139076Y-63127073D02*
X86320505Y-63006121D01*
X86804314Y-62159454D02*
X87288123Y-62159454D01*
X86985742Y-63006121D02*
X86985742Y-61917549D01*
X86985742Y-61917549D02*
X87046219Y-61796597D01*
X87046219Y-61796597D02*
X87167171Y-61736121D01*
X87167171Y-61736121D02*
X87288123Y-61736121D01*
X87892885Y-63006121D02*
X87771933Y-62945645D01*
X87771933Y-62945645D02*
X87711456Y-62824692D01*
X87711456Y-62824692D02*
X87711456Y-61736121D01*
X88376694Y-63006121D02*
X88376694Y-62159454D01*
X88376694Y-61736121D02*
X88316218Y-61796597D01*
X88316218Y-61796597D02*
X88376694Y-61857073D01*
X88376694Y-61857073D02*
X88437171Y-61796597D01*
X88437171Y-61796597D02*
X88376694Y-61736121D01*
X88376694Y-61736121D02*
X88376694Y-61857073D01*
X88800028Y-62159454D02*
X89283837Y-62159454D01*
X88981456Y-61736121D02*
X88981456Y-62824692D01*
X88981456Y-62824692D02*
X89041933Y-62945645D01*
X89041933Y-62945645D02*
X89162885Y-63006121D01*
X89162885Y-63006121D02*
X89283837Y-63006121D01*
X89525742Y-62159454D02*
X90009551Y-62159454D01*
X89707170Y-61736121D02*
X89707170Y-62824692D01*
X89707170Y-62824692D02*
X89767647Y-62945645D01*
X89767647Y-62945645D02*
X89888599Y-63006121D01*
X89888599Y-63006121D02*
X90009551Y-63006121D01*
X90614313Y-63006121D02*
X90493361Y-62945645D01*
X90493361Y-62945645D02*
X90432884Y-62885168D01*
X90432884Y-62885168D02*
X90372408Y-62764216D01*
X90372408Y-62764216D02*
X90372408Y-62401359D01*
X90372408Y-62401359D02*
X90432884Y-62280406D01*
X90432884Y-62280406D02*
X90493361Y-62219930D01*
X90493361Y-62219930D02*
X90614313Y-62159454D01*
X90614313Y-62159454D02*
X90795742Y-62159454D01*
X90795742Y-62159454D02*
X90916694Y-62219930D01*
X90916694Y-62219930D02*
X90977170Y-62280406D01*
X90977170Y-62280406D02*
X91037646Y-62401359D01*
X91037646Y-62401359D02*
X91037646Y-62764216D01*
X91037646Y-62764216D02*
X90977170Y-62885168D01*
X90977170Y-62885168D02*
X90916694Y-62945645D01*
X90916694Y-62945645D02*
X90795742Y-63006121D01*
X90795742Y-63006121D02*
X90614313Y-63006121D01*
X91581932Y-62159454D02*
X91581932Y-63006121D01*
X91581932Y-62280406D02*
X91642409Y-62219930D01*
X91642409Y-62219930D02*
X91763361Y-62159454D01*
X91763361Y-62159454D02*
X91944790Y-62159454D01*
X91944790Y-62159454D02*
X92065742Y-62219930D01*
X92065742Y-62219930D02*
X92126218Y-62340883D01*
X92126218Y-62340883D02*
X92126218Y-63006121D01*
X92730980Y-62885168D02*
X92791457Y-62945645D01*
X92791457Y-62945645D02*
X92730980Y-63006121D01*
X92730980Y-63006121D02*
X92670504Y-62945645D01*
X92670504Y-62945645D02*
X92730980Y-62885168D01*
X92730980Y-62885168D02*
X92730980Y-63006121D01*
X93880028Y-63006121D02*
X93880028Y-61736121D01*
X93880028Y-62945645D02*
X93759076Y-63006121D01*
X93759076Y-63006121D02*
X93517171Y-63006121D01*
X93517171Y-63006121D02*
X93396219Y-62945645D01*
X93396219Y-62945645D02*
X93335742Y-62885168D01*
X93335742Y-62885168D02*
X93275266Y-62764216D01*
X93275266Y-62764216D02*
X93275266Y-62401359D01*
X93275266Y-62401359D02*
X93335742Y-62280406D01*
X93335742Y-62280406D02*
X93396219Y-62219930D01*
X93396219Y-62219930D02*
X93517171Y-62159454D01*
X93517171Y-62159454D02*
X93759076Y-62159454D01*
X93759076Y-62159454D02*
X93880028Y-62219930D01*
X94968600Y-62945645D02*
X94847648Y-63006121D01*
X94847648Y-63006121D02*
X94605743Y-63006121D01*
X94605743Y-63006121D02*
X94484790Y-62945645D01*
X94484790Y-62945645D02*
X94424314Y-62824692D01*
X94424314Y-62824692D02*
X94424314Y-62340883D01*
X94424314Y-62340883D02*
X94484790Y-62219930D01*
X94484790Y-62219930D02*
X94605743Y-62159454D01*
X94605743Y-62159454D02*
X94847648Y-62159454D01*
X94847648Y-62159454D02*
X94968600Y-62219930D01*
X94968600Y-62219930D02*
X95029076Y-62340883D01*
X95029076Y-62340883D02*
X95029076Y-62461835D01*
X95029076Y-62461835D02*
X94424314Y-62582787D01*
X95452409Y-62159454D02*
X95754790Y-63006121D01*
X95754790Y-63006121D02*
X96057171Y-62159454D01*
X96420028Y-63489930D02*
X96480504Y-63429454D01*
X96480504Y-63429454D02*
X96601457Y-63248025D01*
X96601457Y-63248025D02*
X96661933Y-63127073D01*
X96661933Y-63127073D02*
X96722409Y-62945645D01*
X96722409Y-62945645D02*
X96782885Y-62643264D01*
X96782885Y-62643264D02*
X96782885Y-62401359D01*
X96782885Y-62401359D02*
X96722409Y-62098978D01*
X96722409Y-62098978D02*
X96661933Y-61917549D01*
X96661933Y-61917549D02*
X96601457Y-61796597D01*
X96601457Y-61796597D02*
X96480504Y-61615168D01*
X96480504Y-61615168D02*
X96420028Y-61554692D01*
X175605135Y-59551721D02*
X175181801Y-58946959D01*
X174879420Y-59551721D02*
X174879420Y-58281721D01*
X174879420Y-58281721D02*
X175363230Y-58281721D01*
X175363230Y-58281721D02*
X175484182Y-58342197D01*
X175484182Y-58342197D02*
X175544659Y-58402673D01*
X175544659Y-58402673D02*
X175605135Y-58523625D01*
X175605135Y-58523625D02*
X175605135Y-58705054D01*
X175605135Y-58705054D02*
X175544659Y-58826006D01*
X175544659Y-58826006D02*
X175484182Y-58886483D01*
X175484182Y-58886483D02*
X175363230Y-58946959D01*
X175363230Y-58946959D02*
X174879420Y-58946959D01*
X176633230Y-59491245D02*
X176512278Y-59551721D01*
X176512278Y-59551721D02*
X176270373Y-59551721D01*
X176270373Y-59551721D02*
X176149420Y-59491245D01*
X176149420Y-59491245D02*
X176088944Y-59370292D01*
X176088944Y-59370292D02*
X176088944Y-58886483D01*
X176088944Y-58886483D02*
X176149420Y-58765530D01*
X176149420Y-58765530D02*
X176270373Y-58705054D01*
X176270373Y-58705054D02*
X176512278Y-58705054D01*
X176512278Y-58705054D02*
X176633230Y-58765530D01*
X176633230Y-58765530D02*
X176693706Y-58886483D01*
X176693706Y-58886483D02*
X176693706Y-59007435D01*
X176693706Y-59007435D02*
X176088944Y-59128387D01*
X177117039Y-58705054D02*
X177419420Y-59551721D01*
X177419420Y-59551721D02*
X177721801Y-58705054D01*
X179838468Y-59551721D02*
X179112753Y-59551721D01*
X179475610Y-59551721D02*
X179475610Y-58281721D01*
X179475610Y-58281721D02*
X179354658Y-58463149D01*
X179354658Y-58463149D02*
X179233706Y-58584102D01*
X179233706Y-58584102D02*
X179112753Y-58644578D01*
X180382753Y-59430768D02*
X180443230Y-59491245D01*
X180443230Y-59491245D02*
X180382753Y-59551721D01*
X180382753Y-59551721D02*
X180322277Y-59491245D01*
X180322277Y-59491245D02*
X180382753Y-59430768D01*
X180382753Y-59430768D02*
X180382753Y-59551721D01*
X181229420Y-58281721D02*
X181350373Y-58281721D01*
X181350373Y-58281721D02*
X181471325Y-58342197D01*
X181471325Y-58342197D02*
X181531801Y-58402673D01*
X181531801Y-58402673D02*
X181592277Y-58523625D01*
X181592277Y-58523625D02*
X181652754Y-58765530D01*
X181652754Y-58765530D02*
X181652754Y-59067911D01*
X181652754Y-59067911D02*
X181592277Y-59309816D01*
X181592277Y-59309816D02*
X181531801Y-59430768D01*
X181531801Y-59430768D02*
X181471325Y-59491245D01*
X181471325Y-59491245D02*
X181350373Y-59551721D01*
X181350373Y-59551721D02*
X181229420Y-59551721D01*
X181229420Y-59551721D02*
X181108468Y-59491245D01*
X181108468Y-59491245D02*
X181047992Y-59430768D01*
X181047992Y-59430768D02*
X180987515Y-59309816D01*
X180987515Y-59309816D02*
X180927039Y-59067911D01*
X180927039Y-59067911D02*
X180927039Y-58765530D01*
X180927039Y-58765530D02*
X180987515Y-58523625D01*
X180987515Y-58523625D02*
X181047992Y-58402673D01*
X181047992Y-58402673D02*
X181108468Y-58342197D01*
X181108468Y-58342197D02*
X181229420Y-58281721D01*
X183527516Y-60035530D02*
X183467039Y-59975054D01*
X183467039Y-59975054D02*
X183346087Y-59793625D01*
X183346087Y-59793625D02*
X183285611Y-59672673D01*
X183285611Y-59672673D02*
X183225135Y-59491245D01*
X183225135Y-59491245D02*
X183164658Y-59188864D01*
X183164658Y-59188864D02*
X183164658Y-58946959D01*
X183164658Y-58946959D02*
X183225135Y-58644578D01*
X183225135Y-58644578D02*
X183285611Y-58463149D01*
X183285611Y-58463149D02*
X183346087Y-58342197D01*
X183346087Y-58342197D02*
X183467039Y-58160768D01*
X183467039Y-58160768D02*
X183527516Y-58100292D01*
X184253230Y-58281721D02*
X184374183Y-58281721D01*
X184374183Y-58281721D02*
X184495135Y-58342197D01*
X184495135Y-58342197D02*
X184555611Y-58402673D01*
X184555611Y-58402673D02*
X184616087Y-58523625D01*
X184616087Y-58523625D02*
X184676564Y-58765530D01*
X184676564Y-58765530D02*
X184676564Y-59067911D01*
X184676564Y-59067911D02*
X184616087Y-59309816D01*
X184616087Y-59309816D02*
X184555611Y-59430768D01*
X184555611Y-59430768D02*
X184495135Y-59491245D01*
X184495135Y-59491245D02*
X184374183Y-59551721D01*
X184374183Y-59551721D02*
X184253230Y-59551721D01*
X184253230Y-59551721D02*
X184132278Y-59491245D01*
X184132278Y-59491245D02*
X184071802Y-59430768D01*
X184071802Y-59430768D02*
X184011325Y-59309816D01*
X184011325Y-59309816D02*
X183950849Y-59067911D01*
X183950849Y-59067911D02*
X183950849Y-58765530D01*
X183950849Y-58765530D02*
X184011325Y-58523625D01*
X184011325Y-58523625D02*
X184071802Y-58402673D01*
X184071802Y-58402673D02*
X184132278Y-58342197D01*
X184132278Y-58342197D02*
X184253230Y-58281721D01*
X185886088Y-59551721D02*
X185160373Y-59551721D01*
X185523230Y-59551721D02*
X185523230Y-58281721D01*
X185523230Y-58281721D02*
X185402278Y-58463149D01*
X185402278Y-58463149D02*
X185281326Y-58584102D01*
X185281326Y-58584102D02*
X185160373Y-58644578D01*
X187337516Y-58221245D02*
X186248945Y-59854102D01*
X187700373Y-58402673D02*
X187760849Y-58342197D01*
X187760849Y-58342197D02*
X187881802Y-58281721D01*
X187881802Y-58281721D02*
X188184183Y-58281721D01*
X188184183Y-58281721D02*
X188305135Y-58342197D01*
X188305135Y-58342197D02*
X188365611Y-58402673D01*
X188365611Y-58402673D02*
X188426088Y-58523625D01*
X188426088Y-58523625D02*
X188426088Y-58644578D01*
X188426088Y-58644578D02*
X188365611Y-58826006D01*
X188365611Y-58826006D02*
X187639897Y-59551721D01*
X187639897Y-59551721D02*
X188426088Y-59551721D01*
X189212278Y-58281721D02*
X189333231Y-58281721D01*
X189333231Y-58281721D02*
X189454183Y-58342197D01*
X189454183Y-58342197D02*
X189514659Y-58402673D01*
X189514659Y-58402673D02*
X189575135Y-58523625D01*
X189575135Y-58523625D02*
X189635612Y-58765530D01*
X189635612Y-58765530D02*
X189635612Y-59067911D01*
X189635612Y-59067911D02*
X189575135Y-59309816D01*
X189575135Y-59309816D02*
X189514659Y-59430768D01*
X189514659Y-59430768D02*
X189454183Y-59491245D01*
X189454183Y-59491245D02*
X189333231Y-59551721D01*
X189333231Y-59551721D02*
X189212278Y-59551721D01*
X189212278Y-59551721D02*
X189091326Y-59491245D01*
X189091326Y-59491245D02*
X189030850Y-59430768D01*
X189030850Y-59430768D02*
X188970373Y-59309816D01*
X188970373Y-59309816D02*
X188909897Y-59067911D01*
X188909897Y-59067911D02*
X188909897Y-58765530D01*
X188909897Y-58765530D02*
X188970373Y-58523625D01*
X188970373Y-58523625D02*
X189030850Y-58402673D01*
X189030850Y-58402673D02*
X189091326Y-58342197D01*
X189091326Y-58342197D02*
X189212278Y-58281721D01*
X190119421Y-58402673D02*
X190179897Y-58342197D01*
X190179897Y-58342197D02*
X190300850Y-58281721D01*
X190300850Y-58281721D02*
X190603231Y-58281721D01*
X190603231Y-58281721D02*
X190724183Y-58342197D01*
X190724183Y-58342197D02*
X190784659Y-58402673D01*
X190784659Y-58402673D02*
X190845136Y-58523625D01*
X190845136Y-58523625D02*
X190845136Y-58644578D01*
X190845136Y-58644578D02*
X190784659Y-58826006D01*
X190784659Y-58826006D02*
X190058945Y-59551721D01*
X190058945Y-59551721D02*
X190845136Y-59551721D01*
X191933707Y-58281721D02*
X191691802Y-58281721D01*
X191691802Y-58281721D02*
X191570850Y-58342197D01*
X191570850Y-58342197D02*
X191510374Y-58402673D01*
X191510374Y-58402673D02*
X191389421Y-58584102D01*
X191389421Y-58584102D02*
X191328945Y-58826006D01*
X191328945Y-58826006D02*
X191328945Y-59309816D01*
X191328945Y-59309816D02*
X191389421Y-59430768D01*
X191389421Y-59430768D02*
X191449898Y-59491245D01*
X191449898Y-59491245D02*
X191570850Y-59551721D01*
X191570850Y-59551721D02*
X191812755Y-59551721D01*
X191812755Y-59551721D02*
X191933707Y-59491245D01*
X191933707Y-59491245D02*
X191994183Y-59430768D01*
X191994183Y-59430768D02*
X192054660Y-59309816D01*
X192054660Y-59309816D02*
X192054660Y-59007435D01*
X192054660Y-59007435D02*
X191994183Y-58886483D01*
X191994183Y-58886483D02*
X191933707Y-58826006D01*
X191933707Y-58826006D02*
X191812755Y-58765530D01*
X191812755Y-58765530D02*
X191570850Y-58765530D01*
X191570850Y-58765530D02*
X191449898Y-58826006D01*
X191449898Y-58826006D02*
X191389421Y-58886483D01*
X191389421Y-58886483D02*
X191328945Y-59007435D01*
X192477993Y-60035530D02*
X192538469Y-59975054D01*
X192538469Y-59975054D02*
X192659422Y-59793625D01*
X192659422Y-59793625D02*
X192719898Y-59672673D01*
X192719898Y-59672673D02*
X192780374Y-59491245D01*
X192780374Y-59491245D02*
X192840850Y-59188864D01*
X192840850Y-59188864D02*
X192840850Y-58946959D01*
X192840850Y-58946959D02*
X192780374Y-58644578D01*
X192780374Y-58644578D02*
X192719898Y-58463149D01*
X192719898Y-58463149D02*
X192659422Y-58342197D01*
X192659422Y-58342197D02*
X192538469Y-58160768D01*
X192538469Y-58160768D02*
X192477993Y-58100292D01*
D12*
X114770819Y-81914999D02*
X115008914Y-81914999D01*
X114913676Y-82153094D02*
X115008914Y-81914999D01*
X115008914Y-81914999D02*
X114913676Y-81676904D01*
X115199390Y-82057856D02*
X115008914Y-81914999D01*
X115008914Y-81914999D02*
X115199390Y-81772142D01*
D13*
X171556843Y-90730818D02*
X171556843Y-91637961D01*
X171556843Y-91637961D02*
X171496366Y-91819389D01*
X171496366Y-91819389D02*
X171375414Y-91940342D01*
X171375414Y-91940342D02*
X171193985Y-92000818D01*
X171193985Y-92000818D02*
X171073033Y-92000818D01*
X172161604Y-92000818D02*
X172161604Y-90730818D01*
X172161604Y-90730818D02*
X172645414Y-90730818D01*
X172645414Y-90730818D02*
X172766366Y-90791294D01*
X172766366Y-90791294D02*
X172826843Y-90851770D01*
X172826843Y-90851770D02*
X172887319Y-90972722D01*
X172887319Y-90972722D02*
X172887319Y-91154151D01*
X172887319Y-91154151D02*
X172826843Y-91275103D01*
X172826843Y-91275103D02*
X172766366Y-91335580D01*
X172766366Y-91335580D02*
X172645414Y-91396056D01*
X172645414Y-91396056D02*
X172161604Y-91396056D01*
X173310652Y-90730818D02*
X174096843Y-90730818D01*
X174096843Y-90730818D02*
X173673509Y-91214627D01*
X173673509Y-91214627D02*
X173854938Y-91214627D01*
X173854938Y-91214627D02*
X173975890Y-91275103D01*
X173975890Y-91275103D02*
X174036366Y-91335580D01*
X174036366Y-91335580D02*
X174096843Y-91456532D01*
X174096843Y-91456532D02*
X174096843Y-91758913D01*
X174096843Y-91758913D02*
X174036366Y-91879865D01*
X174036366Y-91879865D02*
X173975890Y-91940342D01*
X173975890Y-91940342D02*
X173854938Y-92000818D01*
X173854938Y-92000818D02*
X173492081Y-92000818D01*
X173492081Y-92000818D02*
X173371128Y-91940342D01*
X173371128Y-91940342D02*
X173310652Y-91879865D01*
X179455033Y-90730818D02*
X179757414Y-92000818D01*
X179757414Y-92000818D02*
X179999319Y-91093675D01*
X179999319Y-91093675D02*
X180241224Y-92000818D01*
X180241224Y-92000818D02*
X180543605Y-90730818D01*
X181571700Y-92000818D02*
X181571700Y-91335580D01*
X181571700Y-91335580D02*
X181511224Y-91214627D01*
X181511224Y-91214627D02*
X181390272Y-91154151D01*
X181390272Y-91154151D02*
X181148367Y-91154151D01*
X181148367Y-91154151D02*
X181027414Y-91214627D01*
X181571700Y-91940342D02*
X181450748Y-92000818D01*
X181450748Y-92000818D02*
X181148367Y-92000818D01*
X181148367Y-92000818D02*
X181027414Y-91940342D01*
X181027414Y-91940342D02*
X180966938Y-91819389D01*
X180966938Y-91819389D02*
X180966938Y-91698437D01*
X180966938Y-91698437D02*
X181027414Y-91577484D01*
X181027414Y-91577484D02*
X181148367Y-91517008D01*
X181148367Y-91517008D02*
X181450748Y-91517008D01*
X181450748Y-91517008D02*
X181571700Y-91456532D01*
X182176462Y-92000818D02*
X182176462Y-91154151D01*
X182176462Y-90730818D02*
X182115986Y-90791294D01*
X182115986Y-90791294D02*
X182176462Y-90851770D01*
X182176462Y-90851770D02*
X182236939Y-90791294D01*
X182236939Y-90791294D02*
X182176462Y-90730818D01*
X182176462Y-90730818D02*
X182176462Y-90851770D01*
X182599796Y-91154151D02*
X183083605Y-91154151D01*
X182781224Y-90730818D02*
X182781224Y-91819389D01*
X182781224Y-91819389D02*
X182841701Y-91940342D01*
X182841701Y-91940342D02*
X182962653Y-92000818D01*
X182962653Y-92000818D02*
X183083605Y-92000818D01*
D11*
X171373225Y-94672771D02*
X171615130Y-94672771D01*
X171615130Y-94672771D02*
X171736082Y-94733247D01*
X171736082Y-94733247D02*
X171857035Y-94854199D01*
X171857035Y-94854199D02*
X171917511Y-95096104D01*
X171917511Y-95096104D02*
X171917511Y-95519437D01*
X171917511Y-95519437D02*
X171857035Y-95761342D01*
X171857035Y-95761342D02*
X171736082Y-95882295D01*
X171736082Y-95882295D02*
X171615130Y-95942771D01*
X171615130Y-95942771D02*
X171373225Y-95942771D01*
X171373225Y-95942771D02*
X171252273Y-95882295D01*
X171252273Y-95882295D02*
X171131320Y-95761342D01*
X171131320Y-95761342D02*
X171070844Y-95519437D01*
X171070844Y-95519437D02*
X171070844Y-95096104D01*
X171070844Y-95096104D02*
X171131320Y-94854199D01*
X171131320Y-94854199D02*
X171252273Y-94733247D01*
X171252273Y-94733247D02*
X171373225Y-94672771D01*
X172461796Y-95096104D02*
X172461796Y-96366104D01*
X172461796Y-95156580D02*
X172582749Y-95096104D01*
X172582749Y-95096104D02*
X172824654Y-95096104D01*
X172824654Y-95096104D02*
X172945606Y-95156580D01*
X172945606Y-95156580D02*
X173006082Y-95217056D01*
X173006082Y-95217056D02*
X173066558Y-95338009D01*
X173066558Y-95338009D02*
X173066558Y-95700866D01*
X173066558Y-95700866D02*
X173006082Y-95821818D01*
X173006082Y-95821818D02*
X172945606Y-95882295D01*
X172945606Y-95882295D02*
X172824654Y-95942771D01*
X172824654Y-95942771D02*
X172582749Y-95942771D01*
X172582749Y-95942771D02*
X172461796Y-95882295D01*
X174094654Y-95882295D02*
X173973702Y-95942771D01*
X173973702Y-95942771D02*
X173731797Y-95942771D01*
X173731797Y-95942771D02*
X173610844Y-95882295D01*
X173610844Y-95882295D02*
X173550368Y-95761342D01*
X173550368Y-95761342D02*
X173550368Y-95277533D01*
X173550368Y-95277533D02*
X173610844Y-95156580D01*
X173610844Y-95156580D02*
X173731797Y-95096104D01*
X173731797Y-95096104D02*
X173973702Y-95096104D01*
X173973702Y-95096104D02*
X174094654Y-95156580D01*
X174094654Y-95156580D02*
X174155130Y-95277533D01*
X174155130Y-95277533D02*
X174155130Y-95398485D01*
X174155130Y-95398485D02*
X173550368Y-95519437D01*
X174699415Y-95096104D02*
X174699415Y-95942771D01*
X174699415Y-95217056D02*
X174759892Y-95156580D01*
X174759892Y-95156580D02*
X174880844Y-95096104D01*
X174880844Y-95096104D02*
X175062273Y-95096104D01*
X175062273Y-95096104D02*
X175183225Y-95156580D01*
X175183225Y-95156580D02*
X175243701Y-95277533D01*
X175243701Y-95277533D02*
X175243701Y-95942771D01*
X179755225Y-95338009D02*
X179755225Y-95942771D01*
X179331892Y-94672771D02*
X179755225Y-95338009D01*
X179755225Y-95338009D02*
X180178559Y-94672771D01*
X181085701Y-95882295D02*
X180964749Y-95942771D01*
X180964749Y-95942771D02*
X180722844Y-95942771D01*
X180722844Y-95942771D02*
X180601891Y-95882295D01*
X180601891Y-95882295D02*
X180541415Y-95761342D01*
X180541415Y-95761342D02*
X180541415Y-95277533D01*
X180541415Y-95277533D02*
X180601891Y-95156580D01*
X180601891Y-95156580D02*
X180722844Y-95096104D01*
X180722844Y-95096104D02*
X180964749Y-95096104D01*
X180964749Y-95096104D02*
X181085701Y-95156580D01*
X181085701Y-95156580D02*
X181146177Y-95277533D01*
X181146177Y-95277533D02*
X181146177Y-95398485D01*
X181146177Y-95398485D02*
X180541415Y-95519437D01*
X181629986Y-95882295D02*
X181750939Y-95942771D01*
X181750939Y-95942771D02*
X181992843Y-95942771D01*
X181992843Y-95942771D02*
X182113796Y-95882295D01*
X182113796Y-95882295D02*
X182174272Y-95761342D01*
X182174272Y-95761342D02*
X182174272Y-95700866D01*
X182174272Y-95700866D02*
X182113796Y-95579914D01*
X182113796Y-95579914D02*
X181992843Y-95519437D01*
X181992843Y-95519437D02*
X181811415Y-95519437D01*
X181811415Y-95519437D02*
X181690462Y-95458961D01*
X181690462Y-95458961D02*
X181629986Y-95338009D01*
X181629986Y-95338009D02*
X181629986Y-95277533D01*
X181629986Y-95277533D02*
X181690462Y-95156580D01*
X181690462Y-95156580D02*
X181811415Y-95096104D01*
X181811415Y-95096104D02*
X181992843Y-95096104D01*
X181992843Y-95096104D02*
X182113796Y-95156580D01*
X184049034Y-96426580D02*
X183988557Y-96366104D01*
X183988557Y-96366104D02*
X183867605Y-96184675D01*
X183867605Y-96184675D02*
X183807129Y-96063723D01*
X183807129Y-96063723D02*
X183746653Y-95882295D01*
X183746653Y-95882295D02*
X183686176Y-95579914D01*
X183686176Y-95579914D02*
X183686176Y-95338009D01*
X183686176Y-95338009D02*
X183746653Y-95035628D01*
X183746653Y-95035628D02*
X183807129Y-94854199D01*
X183807129Y-94854199D02*
X183867605Y-94733247D01*
X183867605Y-94733247D02*
X183988557Y-94551818D01*
X183988557Y-94551818D02*
X184049034Y-94491342D01*
X184472367Y-95882295D02*
X184593320Y-95942771D01*
X184593320Y-95942771D02*
X184835224Y-95942771D01*
X184835224Y-95942771D02*
X184956177Y-95882295D01*
X184956177Y-95882295D02*
X185016653Y-95761342D01*
X185016653Y-95761342D02*
X185016653Y-95700866D01*
X185016653Y-95700866D02*
X184956177Y-95579914D01*
X184956177Y-95579914D02*
X184835224Y-95519437D01*
X184835224Y-95519437D02*
X184653796Y-95519437D01*
X184653796Y-95519437D02*
X184532843Y-95458961D01*
X184532843Y-95458961D02*
X184472367Y-95338009D01*
X184472367Y-95338009D02*
X184472367Y-95277533D01*
X184472367Y-95277533D02*
X184532843Y-95156580D01*
X184532843Y-95156580D02*
X184653796Y-95096104D01*
X184653796Y-95096104D02*
X184835224Y-95096104D01*
X184835224Y-95096104D02*
X184956177Y-95156580D01*
X185742367Y-95942771D02*
X185621415Y-95882295D01*
X185621415Y-95882295D02*
X185560938Y-95761342D01*
X185560938Y-95761342D02*
X185560938Y-94672771D01*
X186407605Y-95942771D02*
X186286653Y-95882295D01*
X186286653Y-95882295D02*
X186226176Y-95821818D01*
X186226176Y-95821818D02*
X186165700Y-95700866D01*
X186165700Y-95700866D02*
X186165700Y-95338009D01*
X186165700Y-95338009D02*
X186226176Y-95217056D01*
X186226176Y-95217056D02*
X186286653Y-95156580D01*
X186286653Y-95156580D02*
X186407605Y-95096104D01*
X186407605Y-95096104D02*
X186589034Y-95096104D01*
X186589034Y-95096104D02*
X186709986Y-95156580D01*
X186709986Y-95156580D02*
X186770462Y-95217056D01*
X186770462Y-95217056D02*
X186830938Y-95338009D01*
X186830938Y-95338009D02*
X186830938Y-95700866D01*
X186830938Y-95700866D02*
X186770462Y-95821818D01*
X186770462Y-95821818D02*
X186709986Y-95882295D01*
X186709986Y-95882295D02*
X186589034Y-95942771D01*
X186589034Y-95942771D02*
X186407605Y-95942771D01*
X187254272Y-95096104D02*
X187496177Y-95942771D01*
X187496177Y-95942771D02*
X187738082Y-95338009D01*
X187738082Y-95338009D02*
X187979986Y-95942771D01*
X187979986Y-95942771D02*
X188221891Y-95096104D01*
X189189510Y-95882295D02*
X189068558Y-95942771D01*
X189068558Y-95942771D02*
X188826653Y-95942771D01*
X188826653Y-95942771D02*
X188705700Y-95882295D01*
X188705700Y-95882295D02*
X188645224Y-95761342D01*
X188645224Y-95761342D02*
X188645224Y-95277533D01*
X188645224Y-95277533D02*
X188705700Y-95156580D01*
X188705700Y-95156580D02*
X188826653Y-95096104D01*
X188826653Y-95096104D02*
X189068558Y-95096104D01*
X189068558Y-95096104D02*
X189189510Y-95156580D01*
X189189510Y-95156580D02*
X189249986Y-95277533D01*
X189249986Y-95277533D02*
X189249986Y-95398485D01*
X189249986Y-95398485D02*
X188645224Y-95519437D01*
X189794271Y-95942771D02*
X189794271Y-95096104D01*
X189794271Y-95338009D02*
X189854748Y-95217056D01*
X189854748Y-95217056D02*
X189915224Y-95156580D01*
X189915224Y-95156580D02*
X190036176Y-95096104D01*
X190036176Y-95096104D02*
X190157129Y-95096104D01*
X190459509Y-96426580D02*
X190519985Y-96366104D01*
X190519985Y-96366104D02*
X190640938Y-96184675D01*
X190640938Y-96184675D02*
X190701414Y-96063723D01*
X190701414Y-96063723D02*
X190761890Y-95882295D01*
X190761890Y-95882295D02*
X190822366Y-95579914D01*
X190822366Y-95579914D02*
X190822366Y-95338009D01*
X190822366Y-95338009D02*
X190761890Y-95035628D01*
X190761890Y-95035628D02*
X190701414Y-94854199D01*
X190701414Y-94854199D02*
X190640938Y-94733247D01*
X190640938Y-94733247D02*
X190519985Y-94551818D01*
X190519985Y-94551818D02*
X190459509Y-94491342D01*
X171857035Y-99758818D02*
X171796559Y-99819295D01*
X171796559Y-99819295D02*
X171615130Y-99879771D01*
X171615130Y-99879771D02*
X171494178Y-99879771D01*
X171494178Y-99879771D02*
X171312749Y-99819295D01*
X171312749Y-99819295D02*
X171191797Y-99698342D01*
X171191797Y-99698342D02*
X171131320Y-99577390D01*
X171131320Y-99577390D02*
X171070844Y-99335485D01*
X171070844Y-99335485D02*
X171070844Y-99154056D01*
X171070844Y-99154056D02*
X171131320Y-98912152D01*
X171131320Y-98912152D02*
X171191797Y-98791199D01*
X171191797Y-98791199D02*
X171312749Y-98670247D01*
X171312749Y-98670247D02*
X171494178Y-98609771D01*
X171494178Y-98609771D02*
X171615130Y-98609771D01*
X171615130Y-98609771D02*
X171796559Y-98670247D01*
X171796559Y-98670247D02*
X171857035Y-98730723D01*
X172582749Y-99879771D02*
X172461797Y-99819295D01*
X172461797Y-99819295D02*
X172401320Y-99698342D01*
X172401320Y-99698342D02*
X172401320Y-98609771D01*
X173247987Y-99879771D02*
X173127035Y-99819295D01*
X173127035Y-99819295D02*
X173066558Y-99758818D01*
X173066558Y-99758818D02*
X173006082Y-99637866D01*
X173006082Y-99637866D02*
X173006082Y-99275009D01*
X173006082Y-99275009D02*
X173066558Y-99154056D01*
X173066558Y-99154056D02*
X173127035Y-99093580D01*
X173127035Y-99093580D02*
X173247987Y-99033104D01*
X173247987Y-99033104D02*
X173429416Y-99033104D01*
X173429416Y-99033104D02*
X173550368Y-99093580D01*
X173550368Y-99093580D02*
X173610844Y-99154056D01*
X173610844Y-99154056D02*
X173671320Y-99275009D01*
X173671320Y-99275009D02*
X173671320Y-99637866D01*
X173671320Y-99637866D02*
X173610844Y-99758818D01*
X173610844Y-99758818D02*
X173550368Y-99819295D01*
X173550368Y-99819295D02*
X173429416Y-99879771D01*
X173429416Y-99879771D02*
X173247987Y-99879771D01*
X174155130Y-99819295D02*
X174276083Y-99879771D01*
X174276083Y-99879771D02*
X174517987Y-99879771D01*
X174517987Y-99879771D02*
X174638940Y-99819295D01*
X174638940Y-99819295D02*
X174699416Y-99698342D01*
X174699416Y-99698342D02*
X174699416Y-99637866D01*
X174699416Y-99637866D02*
X174638940Y-99516914D01*
X174638940Y-99516914D02*
X174517987Y-99456437D01*
X174517987Y-99456437D02*
X174336559Y-99456437D01*
X174336559Y-99456437D02*
X174215606Y-99395961D01*
X174215606Y-99395961D02*
X174155130Y-99275009D01*
X174155130Y-99275009D02*
X174155130Y-99214533D01*
X174155130Y-99214533D02*
X174215606Y-99093580D01*
X174215606Y-99093580D02*
X174336559Y-99033104D01*
X174336559Y-99033104D02*
X174517987Y-99033104D01*
X174517987Y-99033104D02*
X174638940Y-99093580D01*
X175727511Y-99819295D02*
X175606559Y-99879771D01*
X175606559Y-99879771D02*
X175364654Y-99879771D01*
X175364654Y-99879771D02*
X175243701Y-99819295D01*
X175243701Y-99819295D02*
X175183225Y-99698342D01*
X175183225Y-99698342D02*
X175183225Y-99214533D01*
X175183225Y-99214533D02*
X175243701Y-99093580D01*
X175243701Y-99093580D02*
X175364654Y-99033104D01*
X175364654Y-99033104D02*
X175606559Y-99033104D01*
X175606559Y-99033104D02*
X175727511Y-99093580D01*
X175727511Y-99093580D02*
X175787987Y-99214533D01*
X175787987Y-99214533D02*
X175787987Y-99335485D01*
X175787987Y-99335485D02*
X175183225Y-99456437D01*
X176876558Y-99879771D02*
X176876558Y-98609771D01*
X176876558Y-99819295D02*
X176755606Y-99879771D01*
X176755606Y-99879771D02*
X176513701Y-99879771D01*
X176513701Y-99879771D02*
X176392749Y-99819295D01*
X176392749Y-99819295D02*
X176332272Y-99758818D01*
X176332272Y-99758818D02*
X176271796Y-99637866D01*
X176271796Y-99637866D02*
X176271796Y-99275009D01*
X176271796Y-99275009D02*
X176332272Y-99154056D01*
X176332272Y-99154056D02*
X176392749Y-99093580D01*
X176392749Y-99093580D02*
X176513701Y-99033104D01*
X176513701Y-99033104D02*
X176755606Y-99033104D01*
X176755606Y-99033104D02*
X176876558Y-99093580D01*
X179513320Y-99879771D02*
X179513320Y-98609771D01*
X179513320Y-98609771D02*
X180239035Y-99879771D01*
X180239035Y-99879771D02*
X180239035Y-98609771D01*
X181025225Y-99879771D02*
X180904273Y-99819295D01*
X180904273Y-99819295D02*
X180843796Y-99758818D01*
X180843796Y-99758818D02*
X180783320Y-99637866D01*
X180783320Y-99637866D02*
X180783320Y-99275009D01*
X180783320Y-99275009D02*
X180843796Y-99154056D01*
X180843796Y-99154056D02*
X180904273Y-99093580D01*
X180904273Y-99093580D02*
X181025225Y-99033104D01*
X181025225Y-99033104D02*
X181206654Y-99033104D01*
X181206654Y-99033104D02*
X181327606Y-99093580D01*
X181327606Y-99093580D02*
X181388082Y-99154056D01*
X181388082Y-99154056D02*
X181448558Y-99275009D01*
X181448558Y-99275009D02*
X181448558Y-99637866D01*
X181448558Y-99637866D02*
X181388082Y-99758818D01*
X181388082Y-99758818D02*
X181327606Y-99819295D01*
X181327606Y-99819295D02*
X181206654Y-99879771D01*
X181206654Y-99879771D02*
X181025225Y-99879771D01*
X183323321Y-100363580D02*
X183262844Y-100303104D01*
X183262844Y-100303104D02*
X183141892Y-100121675D01*
X183141892Y-100121675D02*
X183081416Y-100000723D01*
X183081416Y-100000723D02*
X183020940Y-99819295D01*
X183020940Y-99819295D02*
X182960463Y-99516914D01*
X182960463Y-99516914D02*
X182960463Y-99275009D01*
X182960463Y-99275009D02*
X183020940Y-98972628D01*
X183020940Y-98972628D02*
X183081416Y-98791199D01*
X183081416Y-98791199D02*
X183141892Y-98670247D01*
X183141892Y-98670247D02*
X183262844Y-98488818D01*
X183262844Y-98488818D02*
X183323321Y-98428342D01*
X184230464Y-99214533D02*
X183807130Y-99214533D01*
X183807130Y-99879771D02*
X183807130Y-98609771D01*
X183807130Y-98609771D02*
X184411892Y-98609771D01*
X185439987Y-99879771D02*
X185439987Y-99214533D01*
X185439987Y-99214533D02*
X185379511Y-99093580D01*
X185379511Y-99093580D02*
X185258559Y-99033104D01*
X185258559Y-99033104D02*
X185016654Y-99033104D01*
X185016654Y-99033104D02*
X184895701Y-99093580D01*
X185439987Y-99819295D02*
X185319035Y-99879771D01*
X185319035Y-99879771D02*
X185016654Y-99879771D01*
X185016654Y-99879771D02*
X184895701Y-99819295D01*
X184895701Y-99819295D02*
X184835225Y-99698342D01*
X184835225Y-99698342D02*
X184835225Y-99577390D01*
X184835225Y-99577390D02*
X184895701Y-99456437D01*
X184895701Y-99456437D02*
X185016654Y-99395961D01*
X185016654Y-99395961D02*
X185319035Y-99395961D01*
X185319035Y-99395961D02*
X185439987Y-99335485D01*
X185984273Y-99819295D02*
X186105226Y-99879771D01*
X186105226Y-99879771D02*
X186347130Y-99879771D01*
X186347130Y-99879771D02*
X186468083Y-99819295D01*
X186468083Y-99819295D02*
X186528559Y-99698342D01*
X186528559Y-99698342D02*
X186528559Y-99637866D01*
X186528559Y-99637866D02*
X186468083Y-99516914D01*
X186468083Y-99516914D02*
X186347130Y-99456437D01*
X186347130Y-99456437D02*
X186165702Y-99456437D01*
X186165702Y-99456437D02*
X186044749Y-99395961D01*
X186044749Y-99395961D02*
X185984273Y-99275009D01*
X185984273Y-99275009D02*
X185984273Y-99214533D01*
X185984273Y-99214533D02*
X186044749Y-99093580D01*
X186044749Y-99093580D02*
X186165702Y-99033104D01*
X186165702Y-99033104D02*
X186347130Y-99033104D01*
X186347130Y-99033104D02*
X186468083Y-99093580D01*
X186891416Y-99033104D02*
X187375225Y-99033104D01*
X187072844Y-98609771D02*
X187072844Y-99698342D01*
X187072844Y-99698342D02*
X187133321Y-99819295D01*
X187133321Y-99819295D02*
X187254273Y-99879771D01*
X187254273Y-99879771D02*
X187375225Y-99879771D01*
X188282368Y-99819295D02*
X188161416Y-99879771D01*
X188161416Y-99879771D02*
X187919511Y-99879771D01*
X187919511Y-99879771D02*
X187798558Y-99819295D01*
X187798558Y-99819295D02*
X187738082Y-99698342D01*
X187738082Y-99698342D02*
X187738082Y-99214533D01*
X187738082Y-99214533D02*
X187798558Y-99093580D01*
X187798558Y-99093580D02*
X187919511Y-99033104D01*
X187919511Y-99033104D02*
X188161416Y-99033104D01*
X188161416Y-99033104D02*
X188282368Y-99093580D01*
X188282368Y-99093580D02*
X188342844Y-99214533D01*
X188342844Y-99214533D02*
X188342844Y-99335485D01*
X188342844Y-99335485D02*
X187738082Y-99456437D01*
X188887129Y-99879771D02*
X188887129Y-99033104D01*
X188887129Y-99275009D02*
X188947606Y-99154056D01*
X188947606Y-99154056D02*
X189008082Y-99093580D01*
X189008082Y-99093580D02*
X189129034Y-99033104D01*
X189129034Y-99033104D02*
X189249987Y-99033104D01*
X189552367Y-100363580D02*
X189612843Y-100303104D01*
X189612843Y-100303104D02*
X189733796Y-100121675D01*
X189733796Y-100121675D02*
X189794272Y-100000723D01*
X189794272Y-100000723D02*
X189854748Y-99819295D01*
X189854748Y-99819295D02*
X189915224Y-99516914D01*
X189915224Y-99516914D02*
X189915224Y-99275009D01*
X189915224Y-99275009D02*
X189854748Y-98972628D01*
X189854748Y-98972628D02*
X189794272Y-98791199D01*
X189794272Y-98791199D02*
X189733796Y-98670247D01*
X189733796Y-98670247D02*
X189612843Y-98488818D01*
X189612843Y-98488818D02*
X189552367Y-98428342D01*
D14*
X178104000Y-89458000D02*
X178104000Y-93395000D01*
X178104000Y-93395000D02*
X178104000Y-97332000D01*
X178104000Y-97332000D02*
X178104000Y-101269000D01*
X178104000Y-93395000D02*
X169722000Y-93395000D01*
X192151000Y-93395000D02*
X178104000Y-93395000D01*
X178104000Y-97332000D02*
X169722000Y-97332000D01*
X192151000Y-97332000D02*
X178104000Y-97332000D01*
X169722000Y-89458000D02*
X192151000Y-89458000D01*
X192151000Y-89458000D02*
X192151000Y-101269000D01*
X192151000Y-101269000D02*
X169722000Y-101269000D01*
X169722000Y-101269000D02*
X169722000Y-89458000D01*
D13*
X67975643Y-68366118D02*
X67975643Y-69273261D01*
X67975643Y-69273261D02*
X67915166Y-69454689D01*
X67915166Y-69454689D02*
X67794214Y-69575642D01*
X67794214Y-69575642D02*
X67612785Y-69636118D01*
X67612785Y-69636118D02*
X67491833Y-69636118D01*
X68580404Y-69636118D02*
X68580404Y-68366118D01*
X68580404Y-68366118D02*
X69064214Y-68366118D01*
X69064214Y-68366118D02*
X69185166Y-68426594D01*
X69185166Y-68426594D02*
X69245643Y-68487070D01*
X69245643Y-68487070D02*
X69306119Y-68608022D01*
X69306119Y-68608022D02*
X69306119Y-68789451D01*
X69306119Y-68789451D02*
X69245643Y-68910403D01*
X69245643Y-68910403D02*
X69185166Y-68970880D01*
X69185166Y-68970880D02*
X69064214Y-69031356D01*
X69064214Y-69031356D02*
X68580404Y-69031356D01*
X70515643Y-69636118D02*
X69789928Y-69636118D01*
X70152785Y-69636118D02*
X70152785Y-68366118D01*
X70152785Y-68366118D02*
X70031833Y-68547546D01*
X70031833Y-68547546D02*
X69910881Y-68668499D01*
X69910881Y-68668499D02*
X69789928Y-68728975D01*
X75748043Y-68366118D02*
X75748043Y-69273261D01*
X75748043Y-69273261D02*
X75687566Y-69454689D01*
X75687566Y-69454689D02*
X75566614Y-69575642D01*
X75566614Y-69575642D02*
X75385185Y-69636118D01*
X75385185Y-69636118D02*
X75264233Y-69636118D01*
X76352804Y-69636118D02*
X76352804Y-68366118D01*
X76352804Y-68366118D02*
X76836614Y-68366118D01*
X76836614Y-68366118D02*
X76957566Y-68426594D01*
X76957566Y-68426594D02*
X77018043Y-68487070D01*
X77018043Y-68487070D02*
X77078519Y-68608022D01*
X77078519Y-68608022D02*
X77078519Y-68789451D01*
X77078519Y-68789451D02*
X77018043Y-68910403D01*
X77018043Y-68910403D02*
X76957566Y-68970880D01*
X76957566Y-68970880D02*
X76836614Y-69031356D01*
X76836614Y-69031356D02*
X76352804Y-69031356D01*
X77562328Y-68487070D02*
X77622804Y-68426594D01*
X77622804Y-68426594D02*
X77743757Y-68366118D01*
X77743757Y-68366118D02*
X78046138Y-68366118D01*
X78046138Y-68366118D02*
X78167090Y-68426594D01*
X78167090Y-68426594D02*
X78227566Y-68487070D01*
X78227566Y-68487070D02*
X78288043Y-68608022D01*
X78288043Y-68608022D02*
X78288043Y-68728975D01*
X78288043Y-68728975D02*
X78227566Y-68910403D01*
X78227566Y-68910403D02*
X77501852Y-69636118D01*
X77501852Y-69636118D02*
X78288043Y-69636118D01*
X83452709Y-69273261D02*
X84057471Y-69273261D01*
X83331757Y-69636118D02*
X83755090Y-68366118D01*
X83755090Y-68366118D02*
X84178424Y-69636118D01*
X85146042Y-69636118D02*
X85146042Y-68366118D01*
X85146042Y-69575642D02*
X85025090Y-69636118D01*
X85025090Y-69636118D02*
X84783185Y-69636118D01*
X84783185Y-69636118D02*
X84662233Y-69575642D01*
X84662233Y-69575642D02*
X84601756Y-69515165D01*
X84601756Y-69515165D02*
X84541280Y-69394213D01*
X84541280Y-69394213D02*
X84541280Y-69031356D01*
X84541280Y-69031356D02*
X84601756Y-68910403D01*
X84601756Y-68910403D02*
X84662233Y-68849927D01*
X84662233Y-68849927D02*
X84783185Y-68789451D01*
X84783185Y-68789451D02*
X85025090Y-68789451D01*
X85025090Y-68789451D02*
X85146042Y-68849927D01*
X86295090Y-69636118D02*
X86295090Y-68366118D01*
X86295090Y-69575642D02*
X86174138Y-69636118D01*
X86174138Y-69636118D02*
X85932233Y-69636118D01*
X85932233Y-69636118D02*
X85811281Y-69575642D01*
X85811281Y-69575642D02*
X85750804Y-69515165D01*
X85750804Y-69515165D02*
X85690328Y-69394213D01*
X85690328Y-69394213D02*
X85690328Y-69031356D01*
X85690328Y-69031356D02*
X85750804Y-68910403D01*
X85750804Y-68910403D02*
X85811281Y-68849927D01*
X85811281Y-68849927D02*
X85932233Y-68789451D01*
X85932233Y-68789451D02*
X86174138Y-68789451D01*
X86174138Y-68789451D02*
X86295090Y-68849927D01*
X86899852Y-69636118D02*
X86899852Y-68789451D01*
X86899852Y-69031356D02*
X86960329Y-68910403D01*
X86960329Y-68910403D02*
X87020805Y-68849927D01*
X87020805Y-68849927D02*
X87141757Y-68789451D01*
X87141757Y-68789451D02*
X87262710Y-68789451D01*
X88169852Y-69575642D02*
X88048900Y-69636118D01*
X88048900Y-69636118D02*
X87806995Y-69636118D01*
X87806995Y-69636118D02*
X87686042Y-69575642D01*
X87686042Y-69575642D02*
X87625566Y-69454689D01*
X87625566Y-69454689D02*
X87625566Y-68970880D01*
X87625566Y-68970880D02*
X87686042Y-68849927D01*
X87686042Y-68849927D02*
X87806995Y-68789451D01*
X87806995Y-68789451D02*
X88048900Y-68789451D01*
X88048900Y-68789451D02*
X88169852Y-68849927D01*
X88169852Y-68849927D02*
X88230328Y-68970880D01*
X88230328Y-68970880D02*
X88230328Y-69091832D01*
X88230328Y-69091832D02*
X87625566Y-69212784D01*
X88714137Y-69575642D02*
X88835090Y-69636118D01*
X88835090Y-69636118D02*
X89076994Y-69636118D01*
X89076994Y-69636118D02*
X89197947Y-69575642D01*
X89197947Y-69575642D02*
X89258423Y-69454689D01*
X89258423Y-69454689D02*
X89258423Y-69394213D01*
X89258423Y-69394213D02*
X89197947Y-69273261D01*
X89197947Y-69273261D02*
X89076994Y-69212784D01*
X89076994Y-69212784D02*
X88895566Y-69212784D01*
X88895566Y-69212784D02*
X88774613Y-69152308D01*
X88774613Y-69152308D02*
X88714137Y-69031356D01*
X88714137Y-69031356D02*
X88714137Y-68970880D01*
X88714137Y-68970880D02*
X88774613Y-68849927D01*
X88774613Y-68849927D02*
X88895566Y-68789451D01*
X88895566Y-68789451D02*
X89076994Y-68789451D01*
X89076994Y-68789451D02*
X89197947Y-68849927D01*
X89742232Y-69575642D02*
X89863185Y-69636118D01*
X89863185Y-69636118D02*
X90105089Y-69636118D01*
X90105089Y-69636118D02*
X90226042Y-69575642D01*
X90226042Y-69575642D02*
X90286518Y-69454689D01*
X90286518Y-69454689D02*
X90286518Y-69394213D01*
X90286518Y-69394213D02*
X90226042Y-69273261D01*
X90226042Y-69273261D02*
X90105089Y-69212784D01*
X90105089Y-69212784D02*
X89923661Y-69212784D01*
X89923661Y-69212784D02*
X89802708Y-69152308D01*
X89802708Y-69152308D02*
X89742232Y-69031356D01*
X89742232Y-69031356D02*
X89742232Y-68970880D01*
X89742232Y-68970880D02*
X89802708Y-68849927D01*
X89802708Y-68849927D02*
X89923661Y-68789451D01*
X89923661Y-68789451D02*
X90105089Y-68789451D01*
X90105089Y-68789451D02*
X90226042Y-68849927D01*
D11*
X68275835Y-72568118D02*
X68215359Y-72628595D01*
X68215359Y-72628595D02*
X68033930Y-72689071D01*
X68033930Y-72689071D02*
X67912978Y-72689071D01*
X67912978Y-72689071D02*
X67731549Y-72628595D01*
X67731549Y-72628595D02*
X67610597Y-72507642D01*
X67610597Y-72507642D02*
X67550120Y-72386690D01*
X67550120Y-72386690D02*
X67489644Y-72144785D01*
X67489644Y-72144785D02*
X67489644Y-71963356D01*
X67489644Y-71963356D02*
X67550120Y-71721452D01*
X67550120Y-71721452D02*
X67610597Y-71600499D01*
X67610597Y-71600499D02*
X67731549Y-71479547D01*
X67731549Y-71479547D02*
X67912978Y-71419071D01*
X67912978Y-71419071D02*
X68033930Y-71419071D01*
X68033930Y-71419071D02*
X68215359Y-71479547D01*
X68215359Y-71479547D02*
X68275835Y-71540023D01*
X69001549Y-72689071D02*
X68880597Y-72628595D01*
X68880597Y-72628595D02*
X68820120Y-72507642D01*
X68820120Y-72507642D02*
X68820120Y-71419071D01*
X69666787Y-72689071D02*
X69545835Y-72628595D01*
X69545835Y-72628595D02*
X69485358Y-72568118D01*
X69485358Y-72568118D02*
X69424882Y-72447166D01*
X69424882Y-72447166D02*
X69424882Y-72084309D01*
X69424882Y-72084309D02*
X69485358Y-71963356D01*
X69485358Y-71963356D02*
X69545835Y-71902880D01*
X69545835Y-71902880D02*
X69666787Y-71842404D01*
X69666787Y-71842404D02*
X69848216Y-71842404D01*
X69848216Y-71842404D02*
X69969168Y-71902880D01*
X69969168Y-71902880D02*
X70029644Y-71963356D01*
X70029644Y-71963356D02*
X70090120Y-72084309D01*
X70090120Y-72084309D02*
X70090120Y-72447166D01*
X70090120Y-72447166D02*
X70029644Y-72568118D01*
X70029644Y-72568118D02*
X69969168Y-72628595D01*
X69969168Y-72628595D02*
X69848216Y-72689071D01*
X69848216Y-72689071D02*
X69666787Y-72689071D01*
X70573930Y-72628595D02*
X70694883Y-72689071D01*
X70694883Y-72689071D02*
X70936787Y-72689071D01*
X70936787Y-72689071D02*
X71057740Y-72628595D01*
X71057740Y-72628595D02*
X71118216Y-72507642D01*
X71118216Y-72507642D02*
X71118216Y-72447166D01*
X71118216Y-72447166D02*
X71057740Y-72326214D01*
X71057740Y-72326214D02*
X70936787Y-72265737D01*
X70936787Y-72265737D02*
X70755359Y-72265737D01*
X70755359Y-72265737D02*
X70634406Y-72205261D01*
X70634406Y-72205261D02*
X70573930Y-72084309D01*
X70573930Y-72084309D02*
X70573930Y-72023833D01*
X70573930Y-72023833D02*
X70634406Y-71902880D01*
X70634406Y-71902880D02*
X70755359Y-71842404D01*
X70755359Y-71842404D02*
X70936787Y-71842404D01*
X70936787Y-71842404D02*
X71057740Y-71902880D01*
X72146311Y-72628595D02*
X72025359Y-72689071D01*
X72025359Y-72689071D02*
X71783454Y-72689071D01*
X71783454Y-72689071D02*
X71662501Y-72628595D01*
X71662501Y-72628595D02*
X71602025Y-72507642D01*
X71602025Y-72507642D02*
X71602025Y-72023833D01*
X71602025Y-72023833D02*
X71662501Y-71902880D01*
X71662501Y-71902880D02*
X71783454Y-71842404D01*
X71783454Y-71842404D02*
X72025359Y-71842404D01*
X72025359Y-71842404D02*
X72146311Y-71902880D01*
X72146311Y-71902880D02*
X72206787Y-72023833D01*
X72206787Y-72023833D02*
X72206787Y-72144785D01*
X72206787Y-72144785D02*
X71602025Y-72265737D01*
X73295358Y-72689071D02*
X73295358Y-71419071D01*
X73295358Y-72628595D02*
X73174406Y-72689071D01*
X73174406Y-72689071D02*
X72932501Y-72689071D01*
X72932501Y-72689071D02*
X72811549Y-72628595D01*
X72811549Y-72628595D02*
X72751072Y-72568118D01*
X72751072Y-72568118D02*
X72690596Y-72447166D01*
X72690596Y-72447166D02*
X72690596Y-72084309D01*
X72690596Y-72084309D02*
X72751072Y-71963356D01*
X72751072Y-71963356D02*
X72811549Y-71902880D01*
X72811549Y-71902880D02*
X72932501Y-71842404D01*
X72932501Y-71842404D02*
X73174406Y-71842404D01*
X73174406Y-71842404D02*
X73295358Y-71902880D01*
X76048235Y-72568118D02*
X75987759Y-72628595D01*
X75987759Y-72628595D02*
X75806330Y-72689071D01*
X75806330Y-72689071D02*
X75685378Y-72689071D01*
X75685378Y-72689071D02*
X75503949Y-72628595D01*
X75503949Y-72628595D02*
X75382997Y-72507642D01*
X75382997Y-72507642D02*
X75322520Y-72386690D01*
X75322520Y-72386690D02*
X75262044Y-72144785D01*
X75262044Y-72144785D02*
X75262044Y-71963356D01*
X75262044Y-71963356D02*
X75322520Y-71721452D01*
X75322520Y-71721452D02*
X75382997Y-71600499D01*
X75382997Y-71600499D02*
X75503949Y-71479547D01*
X75503949Y-71479547D02*
X75685378Y-71419071D01*
X75685378Y-71419071D02*
X75806330Y-71419071D01*
X75806330Y-71419071D02*
X75987759Y-71479547D01*
X75987759Y-71479547D02*
X76048235Y-71540023D01*
X76773949Y-72689071D02*
X76652997Y-72628595D01*
X76652997Y-72628595D02*
X76592520Y-72507642D01*
X76592520Y-72507642D02*
X76592520Y-71419071D01*
X77439187Y-72689071D02*
X77318235Y-72628595D01*
X77318235Y-72628595D02*
X77257758Y-72568118D01*
X77257758Y-72568118D02*
X77197282Y-72447166D01*
X77197282Y-72447166D02*
X77197282Y-72084309D01*
X77197282Y-72084309D02*
X77257758Y-71963356D01*
X77257758Y-71963356D02*
X77318235Y-71902880D01*
X77318235Y-71902880D02*
X77439187Y-71842404D01*
X77439187Y-71842404D02*
X77620616Y-71842404D01*
X77620616Y-71842404D02*
X77741568Y-71902880D01*
X77741568Y-71902880D02*
X77802044Y-71963356D01*
X77802044Y-71963356D02*
X77862520Y-72084309D01*
X77862520Y-72084309D02*
X77862520Y-72447166D01*
X77862520Y-72447166D02*
X77802044Y-72568118D01*
X77802044Y-72568118D02*
X77741568Y-72628595D01*
X77741568Y-72628595D02*
X77620616Y-72689071D01*
X77620616Y-72689071D02*
X77439187Y-72689071D01*
X78346330Y-72628595D02*
X78467283Y-72689071D01*
X78467283Y-72689071D02*
X78709187Y-72689071D01*
X78709187Y-72689071D02*
X78830140Y-72628595D01*
X78830140Y-72628595D02*
X78890616Y-72507642D01*
X78890616Y-72507642D02*
X78890616Y-72447166D01*
X78890616Y-72447166D02*
X78830140Y-72326214D01*
X78830140Y-72326214D02*
X78709187Y-72265737D01*
X78709187Y-72265737D02*
X78527759Y-72265737D01*
X78527759Y-72265737D02*
X78406806Y-72205261D01*
X78406806Y-72205261D02*
X78346330Y-72084309D01*
X78346330Y-72084309D02*
X78346330Y-72023833D01*
X78346330Y-72023833D02*
X78406806Y-71902880D01*
X78406806Y-71902880D02*
X78527759Y-71842404D01*
X78527759Y-71842404D02*
X78709187Y-71842404D01*
X78709187Y-71842404D02*
X78830140Y-71902880D01*
X79918711Y-72628595D02*
X79797759Y-72689071D01*
X79797759Y-72689071D02*
X79555854Y-72689071D01*
X79555854Y-72689071D02*
X79434901Y-72628595D01*
X79434901Y-72628595D02*
X79374425Y-72507642D01*
X79374425Y-72507642D02*
X79374425Y-72023833D01*
X79374425Y-72023833D02*
X79434901Y-71902880D01*
X79434901Y-71902880D02*
X79555854Y-71842404D01*
X79555854Y-71842404D02*
X79797759Y-71842404D01*
X79797759Y-71842404D02*
X79918711Y-71902880D01*
X79918711Y-71902880D02*
X79979187Y-72023833D01*
X79979187Y-72023833D02*
X79979187Y-72144785D01*
X79979187Y-72144785D02*
X79374425Y-72265737D01*
X81067758Y-72689071D02*
X81067758Y-71419071D01*
X81067758Y-72628595D02*
X80946806Y-72689071D01*
X80946806Y-72689071D02*
X80704901Y-72689071D01*
X80704901Y-72689071D02*
X80583949Y-72628595D01*
X80583949Y-72628595D02*
X80523472Y-72568118D01*
X80523472Y-72568118D02*
X80462996Y-72447166D01*
X80462996Y-72447166D02*
X80462996Y-72084309D01*
X80462996Y-72084309D02*
X80523472Y-71963356D01*
X80523472Y-71963356D02*
X80583949Y-71902880D01*
X80583949Y-71902880D02*
X80704901Y-71842404D01*
X80704901Y-71842404D02*
X80946806Y-71842404D01*
X80946806Y-71842404D02*
X81067758Y-71902880D01*
X84115759Y-72689071D02*
X83390044Y-72689071D01*
X83752901Y-72689071D02*
X83752901Y-71419071D01*
X83752901Y-71419071D02*
X83631949Y-71600499D01*
X83631949Y-71600499D02*
X83510997Y-71721452D01*
X83510997Y-71721452D02*
X83390044Y-71781928D01*
X84660044Y-72689071D02*
X84660044Y-71419071D01*
X84660044Y-71419071D02*
X85083378Y-72326214D01*
X85083378Y-72326214D02*
X85506711Y-71419071D01*
X85506711Y-71419071D02*
X85506711Y-72689071D01*
X86534807Y-72023833D02*
X86716235Y-72084309D01*
X86716235Y-72084309D02*
X86776712Y-72144785D01*
X86776712Y-72144785D02*
X86837188Y-72265737D01*
X86837188Y-72265737D02*
X86837188Y-72447166D01*
X86837188Y-72447166D02*
X86776712Y-72568118D01*
X86776712Y-72568118D02*
X86716235Y-72628595D01*
X86716235Y-72628595D02*
X86595283Y-72689071D01*
X86595283Y-72689071D02*
X86111473Y-72689071D01*
X86111473Y-72689071D02*
X86111473Y-71419071D01*
X86111473Y-71419071D02*
X86534807Y-71419071D01*
X86534807Y-71419071D02*
X86655759Y-71479547D01*
X86655759Y-71479547D02*
X86716235Y-71540023D01*
X86716235Y-71540023D02*
X86776712Y-71660975D01*
X86776712Y-71660975D02*
X86776712Y-71781928D01*
X86776712Y-71781928D02*
X86716235Y-71902880D01*
X86716235Y-71902880D02*
X86655759Y-71963356D01*
X86655759Y-71963356D02*
X86534807Y-72023833D01*
X86534807Y-72023833D02*
X86111473Y-72023833D01*
X87381473Y-72205261D02*
X88349093Y-72205261D01*
X89014331Y-72689071D02*
X89256235Y-72689071D01*
X89256235Y-72689071D02*
X89377188Y-72628595D01*
X89377188Y-72628595D02*
X89437664Y-72568118D01*
X89437664Y-72568118D02*
X89558616Y-72386690D01*
X89558616Y-72386690D02*
X89619093Y-72144785D01*
X89619093Y-72144785D02*
X89619093Y-71660975D01*
X89619093Y-71660975D02*
X89558616Y-71540023D01*
X89558616Y-71540023D02*
X89498140Y-71479547D01*
X89498140Y-71479547D02*
X89377188Y-71419071D01*
X89377188Y-71419071D02*
X89135283Y-71419071D01*
X89135283Y-71419071D02*
X89014331Y-71479547D01*
X89014331Y-71479547D02*
X88953854Y-71540023D01*
X88953854Y-71540023D02*
X88893378Y-71660975D01*
X88893378Y-71660975D02*
X88893378Y-71963356D01*
X88893378Y-71963356D02*
X88953854Y-72084309D01*
X88953854Y-72084309D02*
X89014331Y-72144785D01*
X89014331Y-72144785D02*
X89135283Y-72205261D01*
X89135283Y-72205261D02*
X89377188Y-72205261D01*
X89377188Y-72205261D02*
X89498140Y-72144785D01*
X89498140Y-72144785D02*
X89558616Y-72084309D01*
X89558616Y-72084309D02*
X89619093Y-71963356D01*
X90163378Y-72689071D02*
X90163378Y-71419071D01*
X90163378Y-71419071D02*
X90586712Y-72326214D01*
X90586712Y-72326214D02*
X91010045Y-71419071D01*
X91010045Y-71419071D02*
X91010045Y-72689071D01*
X92038141Y-72023833D02*
X92219569Y-72084309D01*
X92219569Y-72084309D02*
X92280046Y-72144785D01*
X92280046Y-72144785D02*
X92340522Y-72265737D01*
X92340522Y-72265737D02*
X92340522Y-72447166D01*
X92340522Y-72447166D02*
X92280046Y-72568118D01*
X92280046Y-72568118D02*
X92219569Y-72628595D01*
X92219569Y-72628595D02*
X92098617Y-72689071D01*
X92098617Y-72689071D02*
X91614807Y-72689071D01*
X91614807Y-72689071D02*
X91614807Y-71419071D01*
X91614807Y-71419071D02*
X92038141Y-71419071D01*
X92038141Y-71419071D02*
X92159093Y-71479547D01*
X92159093Y-71479547D02*
X92219569Y-71540023D01*
X92219569Y-71540023D02*
X92280046Y-71660975D01*
X92280046Y-71660975D02*
X92280046Y-71781928D01*
X92280046Y-71781928D02*
X92219569Y-71902880D01*
X92219569Y-71902880D02*
X92159093Y-71963356D01*
X92159093Y-71963356D02*
X92038141Y-72023833D01*
X92038141Y-72023833D02*
X91614807Y-72023833D01*
X67792025Y-74467071D02*
X68033930Y-74467071D01*
X68033930Y-74467071D02*
X68154882Y-74527547D01*
X68154882Y-74527547D02*
X68275835Y-74648499D01*
X68275835Y-74648499D02*
X68336311Y-74890404D01*
X68336311Y-74890404D02*
X68336311Y-75313737D01*
X68336311Y-75313737D02*
X68275835Y-75555642D01*
X68275835Y-75555642D02*
X68154882Y-75676595D01*
X68154882Y-75676595D02*
X68033930Y-75737071D01*
X68033930Y-75737071D02*
X67792025Y-75737071D01*
X67792025Y-75737071D02*
X67671073Y-75676595D01*
X67671073Y-75676595D02*
X67550120Y-75555642D01*
X67550120Y-75555642D02*
X67489644Y-75313737D01*
X67489644Y-75313737D02*
X67489644Y-74890404D01*
X67489644Y-74890404D02*
X67550120Y-74648499D01*
X67550120Y-74648499D02*
X67671073Y-74527547D01*
X67671073Y-74527547D02*
X67792025Y-74467071D01*
X68880596Y-74890404D02*
X68880596Y-76160404D01*
X68880596Y-74950880D02*
X69001549Y-74890404D01*
X69001549Y-74890404D02*
X69243454Y-74890404D01*
X69243454Y-74890404D02*
X69364406Y-74950880D01*
X69364406Y-74950880D02*
X69424882Y-75011356D01*
X69424882Y-75011356D02*
X69485358Y-75132309D01*
X69485358Y-75132309D02*
X69485358Y-75495166D01*
X69485358Y-75495166D02*
X69424882Y-75616118D01*
X69424882Y-75616118D02*
X69364406Y-75676595D01*
X69364406Y-75676595D02*
X69243454Y-75737071D01*
X69243454Y-75737071D02*
X69001549Y-75737071D01*
X69001549Y-75737071D02*
X68880596Y-75676595D01*
X70513454Y-75676595D02*
X70392502Y-75737071D01*
X70392502Y-75737071D02*
X70150597Y-75737071D01*
X70150597Y-75737071D02*
X70029644Y-75676595D01*
X70029644Y-75676595D02*
X69969168Y-75555642D01*
X69969168Y-75555642D02*
X69969168Y-75071833D01*
X69969168Y-75071833D02*
X70029644Y-74950880D01*
X70029644Y-74950880D02*
X70150597Y-74890404D01*
X70150597Y-74890404D02*
X70392502Y-74890404D01*
X70392502Y-74890404D02*
X70513454Y-74950880D01*
X70513454Y-74950880D02*
X70573930Y-75071833D01*
X70573930Y-75071833D02*
X70573930Y-75192785D01*
X70573930Y-75192785D02*
X69969168Y-75313737D01*
X71118215Y-74890404D02*
X71118215Y-75737071D01*
X71118215Y-75011356D02*
X71178692Y-74950880D01*
X71178692Y-74950880D02*
X71299644Y-74890404D01*
X71299644Y-74890404D02*
X71481073Y-74890404D01*
X71481073Y-74890404D02*
X71602025Y-74950880D01*
X71602025Y-74950880D02*
X71662501Y-75071833D01*
X71662501Y-75071833D02*
X71662501Y-75737071D01*
X76048235Y-75616118D02*
X75987759Y-75676595D01*
X75987759Y-75676595D02*
X75806330Y-75737071D01*
X75806330Y-75737071D02*
X75685378Y-75737071D01*
X75685378Y-75737071D02*
X75503949Y-75676595D01*
X75503949Y-75676595D02*
X75382997Y-75555642D01*
X75382997Y-75555642D02*
X75322520Y-75434690D01*
X75322520Y-75434690D02*
X75262044Y-75192785D01*
X75262044Y-75192785D02*
X75262044Y-75011356D01*
X75262044Y-75011356D02*
X75322520Y-74769452D01*
X75322520Y-74769452D02*
X75382997Y-74648499D01*
X75382997Y-74648499D02*
X75503949Y-74527547D01*
X75503949Y-74527547D02*
X75685378Y-74467071D01*
X75685378Y-74467071D02*
X75806330Y-74467071D01*
X75806330Y-74467071D02*
X75987759Y-74527547D01*
X75987759Y-74527547D02*
X76048235Y-74588023D01*
X76773949Y-75737071D02*
X76652997Y-75676595D01*
X76652997Y-75676595D02*
X76592520Y-75555642D01*
X76592520Y-75555642D02*
X76592520Y-74467071D01*
X77439187Y-75737071D02*
X77318235Y-75676595D01*
X77318235Y-75676595D02*
X77257758Y-75616118D01*
X77257758Y-75616118D02*
X77197282Y-75495166D01*
X77197282Y-75495166D02*
X77197282Y-75132309D01*
X77197282Y-75132309D02*
X77257758Y-75011356D01*
X77257758Y-75011356D02*
X77318235Y-74950880D01*
X77318235Y-74950880D02*
X77439187Y-74890404D01*
X77439187Y-74890404D02*
X77620616Y-74890404D01*
X77620616Y-74890404D02*
X77741568Y-74950880D01*
X77741568Y-74950880D02*
X77802044Y-75011356D01*
X77802044Y-75011356D02*
X77862520Y-75132309D01*
X77862520Y-75132309D02*
X77862520Y-75495166D01*
X77862520Y-75495166D02*
X77802044Y-75616118D01*
X77802044Y-75616118D02*
X77741568Y-75676595D01*
X77741568Y-75676595D02*
X77620616Y-75737071D01*
X77620616Y-75737071D02*
X77439187Y-75737071D01*
X78346330Y-75676595D02*
X78467283Y-75737071D01*
X78467283Y-75737071D02*
X78709187Y-75737071D01*
X78709187Y-75737071D02*
X78830140Y-75676595D01*
X78830140Y-75676595D02*
X78890616Y-75555642D01*
X78890616Y-75555642D02*
X78890616Y-75495166D01*
X78890616Y-75495166D02*
X78830140Y-75374214D01*
X78830140Y-75374214D02*
X78709187Y-75313737D01*
X78709187Y-75313737D02*
X78527759Y-75313737D01*
X78527759Y-75313737D02*
X78406806Y-75253261D01*
X78406806Y-75253261D02*
X78346330Y-75132309D01*
X78346330Y-75132309D02*
X78346330Y-75071833D01*
X78346330Y-75071833D02*
X78406806Y-74950880D01*
X78406806Y-74950880D02*
X78527759Y-74890404D01*
X78527759Y-74890404D02*
X78709187Y-74890404D01*
X78709187Y-74890404D02*
X78830140Y-74950880D01*
X79918711Y-75676595D02*
X79797759Y-75737071D01*
X79797759Y-75737071D02*
X79555854Y-75737071D01*
X79555854Y-75737071D02*
X79434901Y-75676595D01*
X79434901Y-75676595D02*
X79374425Y-75555642D01*
X79374425Y-75555642D02*
X79374425Y-75071833D01*
X79374425Y-75071833D02*
X79434901Y-74950880D01*
X79434901Y-74950880D02*
X79555854Y-74890404D01*
X79555854Y-74890404D02*
X79797759Y-74890404D01*
X79797759Y-74890404D02*
X79918711Y-74950880D01*
X79918711Y-74950880D02*
X79979187Y-75071833D01*
X79979187Y-75071833D02*
X79979187Y-75192785D01*
X79979187Y-75192785D02*
X79374425Y-75313737D01*
X81067758Y-75737071D02*
X81067758Y-74467071D01*
X81067758Y-75676595D02*
X80946806Y-75737071D01*
X80946806Y-75737071D02*
X80704901Y-75737071D01*
X80704901Y-75737071D02*
X80583949Y-75676595D01*
X80583949Y-75676595D02*
X80523472Y-75616118D01*
X80523472Y-75616118D02*
X80462996Y-75495166D01*
X80462996Y-75495166D02*
X80462996Y-75132309D01*
X80462996Y-75132309D02*
X80523472Y-75011356D01*
X80523472Y-75011356D02*
X80583949Y-74950880D01*
X80583949Y-74950880D02*
X80704901Y-74890404D01*
X80704901Y-74890404D02*
X80946806Y-74890404D01*
X80946806Y-74890404D02*
X81067758Y-74950880D01*
X83390044Y-74588023D02*
X83450520Y-74527547D01*
X83450520Y-74527547D02*
X83571473Y-74467071D01*
X83571473Y-74467071D02*
X83873854Y-74467071D01*
X83873854Y-74467071D02*
X83994806Y-74527547D01*
X83994806Y-74527547D02*
X84055282Y-74588023D01*
X84055282Y-74588023D02*
X84115759Y-74708975D01*
X84115759Y-74708975D02*
X84115759Y-74829928D01*
X84115759Y-74829928D02*
X84055282Y-75011356D01*
X84055282Y-75011356D02*
X83329568Y-75737071D01*
X83329568Y-75737071D02*
X84115759Y-75737071D01*
X84660044Y-75737071D02*
X84660044Y-74467071D01*
X84660044Y-74467071D02*
X85083378Y-75374214D01*
X85083378Y-75374214D02*
X85506711Y-74467071D01*
X85506711Y-74467071D02*
X85506711Y-75737071D01*
X86534807Y-75071833D02*
X86716235Y-75132309D01*
X86716235Y-75132309D02*
X86776712Y-75192785D01*
X86776712Y-75192785D02*
X86837188Y-75313737D01*
X86837188Y-75313737D02*
X86837188Y-75495166D01*
X86837188Y-75495166D02*
X86776712Y-75616118D01*
X86776712Y-75616118D02*
X86716235Y-75676595D01*
X86716235Y-75676595D02*
X86595283Y-75737071D01*
X86595283Y-75737071D02*
X86111473Y-75737071D01*
X86111473Y-75737071D02*
X86111473Y-74467071D01*
X86111473Y-74467071D02*
X86534807Y-74467071D01*
X86534807Y-74467071D02*
X86655759Y-74527547D01*
X86655759Y-74527547D02*
X86716235Y-74588023D01*
X86716235Y-74588023D02*
X86776712Y-74708975D01*
X86776712Y-74708975D02*
X86776712Y-74829928D01*
X86776712Y-74829928D02*
X86716235Y-74950880D01*
X86716235Y-74950880D02*
X86655759Y-75011356D01*
X86655759Y-75011356D02*
X86534807Y-75071833D01*
X86534807Y-75071833D02*
X86111473Y-75071833D01*
X87381473Y-75253261D02*
X88349093Y-75253261D01*
X89619093Y-75737071D02*
X88893378Y-75737071D01*
X89256235Y-75737071D02*
X89256235Y-74467071D01*
X89256235Y-74467071D02*
X89135283Y-74648499D01*
X89135283Y-74648499D02*
X89014331Y-74769452D01*
X89014331Y-74769452D02*
X88893378Y-74829928D01*
X90405283Y-74467071D02*
X90526236Y-74467071D01*
X90526236Y-74467071D02*
X90647188Y-74527547D01*
X90647188Y-74527547D02*
X90707664Y-74588023D01*
X90707664Y-74588023D02*
X90768140Y-74708975D01*
X90768140Y-74708975D02*
X90828617Y-74950880D01*
X90828617Y-74950880D02*
X90828617Y-75253261D01*
X90828617Y-75253261D02*
X90768140Y-75495166D01*
X90768140Y-75495166D02*
X90707664Y-75616118D01*
X90707664Y-75616118D02*
X90647188Y-75676595D01*
X90647188Y-75676595D02*
X90526236Y-75737071D01*
X90526236Y-75737071D02*
X90405283Y-75737071D01*
X90405283Y-75737071D02*
X90284331Y-75676595D01*
X90284331Y-75676595D02*
X90223855Y-75616118D01*
X90223855Y-75616118D02*
X90163378Y-75495166D01*
X90163378Y-75495166D02*
X90102902Y-75253261D01*
X90102902Y-75253261D02*
X90102902Y-74950880D01*
X90102902Y-74950880D02*
X90163378Y-74708975D01*
X90163378Y-74708975D02*
X90223855Y-74588023D01*
X90223855Y-74588023D02*
X90284331Y-74527547D01*
X90284331Y-74527547D02*
X90405283Y-74467071D01*
X91372902Y-75737071D02*
X91372902Y-74467071D01*
X91372902Y-74467071D02*
X91796236Y-75374214D01*
X91796236Y-75374214D02*
X92219569Y-74467071D01*
X92219569Y-74467071D02*
X92219569Y-75737071D01*
X93247665Y-75071833D02*
X93429093Y-75132309D01*
X93429093Y-75132309D02*
X93489570Y-75192785D01*
X93489570Y-75192785D02*
X93550046Y-75313737D01*
X93550046Y-75313737D02*
X93550046Y-75495166D01*
X93550046Y-75495166D02*
X93489570Y-75616118D01*
X93489570Y-75616118D02*
X93429093Y-75676595D01*
X93429093Y-75676595D02*
X93308141Y-75737071D01*
X93308141Y-75737071D02*
X92824331Y-75737071D01*
X92824331Y-75737071D02*
X92824331Y-74467071D01*
X92824331Y-74467071D02*
X93247665Y-74467071D01*
X93247665Y-74467071D02*
X93368617Y-74527547D01*
X93368617Y-74527547D02*
X93429093Y-74588023D01*
X93429093Y-74588023D02*
X93489570Y-74708975D01*
X93489570Y-74708975D02*
X93489570Y-74829928D01*
X93489570Y-74829928D02*
X93429093Y-74950880D01*
X93429093Y-74950880D02*
X93368617Y-75011356D01*
X93368617Y-75011356D02*
X93247665Y-75071833D01*
X93247665Y-75071833D02*
X92824331Y-75071833D01*
X68275835Y-78664118D02*
X68215359Y-78724595D01*
X68215359Y-78724595D02*
X68033930Y-78785071D01*
X68033930Y-78785071D02*
X67912978Y-78785071D01*
X67912978Y-78785071D02*
X67731549Y-78724595D01*
X67731549Y-78724595D02*
X67610597Y-78603642D01*
X67610597Y-78603642D02*
X67550120Y-78482690D01*
X67550120Y-78482690D02*
X67489644Y-78240785D01*
X67489644Y-78240785D02*
X67489644Y-78059356D01*
X67489644Y-78059356D02*
X67550120Y-77817452D01*
X67550120Y-77817452D02*
X67610597Y-77696499D01*
X67610597Y-77696499D02*
X67731549Y-77575547D01*
X67731549Y-77575547D02*
X67912978Y-77515071D01*
X67912978Y-77515071D02*
X68033930Y-77515071D01*
X68033930Y-77515071D02*
X68215359Y-77575547D01*
X68215359Y-77575547D02*
X68275835Y-77636023D01*
X69001549Y-78785071D02*
X68880597Y-78724595D01*
X68880597Y-78724595D02*
X68820120Y-78603642D01*
X68820120Y-78603642D02*
X68820120Y-77515071D01*
X69666787Y-78785071D02*
X69545835Y-78724595D01*
X69545835Y-78724595D02*
X69485358Y-78664118D01*
X69485358Y-78664118D02*
X69424882Y-78543166D01*
X69424882Y-78543166D02*
X69424882Y-78180309D01*
X69424882Y-78180309D02*
X69485358Y-78059356D01*
X69485358Y-78059356D02*
X69545835Y-77998880D01*
X69545835Y-77998880D02*
X69666787Y-77938404D01*
X69666787Y-77938404D02*
X69848216Y-77938404D01*
X69848216Y-77938404D02*
X69969168Y-77998880D01*
X69969168Y-77998880D02*
X70029644Y-78059356D01*
X70029644Y-78059356D02*
X70090120Y-78180309D01*
X70090120Y-78180309D02*
X70090120Y-78543166D01*
X70090120Y-78543166D02*
X70029644Y-78664118D01*
X70029644Y-78664118D02*
X69969168Y-78724595D01*
X69969168Y-78724595D02*
X69848216Y-78785071D01*
X69848216Y-78785071D02*
X69666787Y-78785071D01*
X70573930Y-78724595D02*
X70694883Y-78785071D01*
X70694883Y-78785071D02*
X70936787Y-78785071D01*
X70936787Y-78785071D02*
X71057740Y-78724595D01*
X71057740Y-78724595D02*
X71118216Y-78603642D01*
X71118216Y-78603642D02*
X71118216Y-78543166D01*
X71118216Y-78543166D02*
X71057740Y-78422214D01*
X71057740Y-78422214D02*
X70936787Y-78361737D01*
X70936787Y-78361737D02*
X70755359Y-78361737D01*
X70755359Y-78361737D02*
X70634406Y-78301261D01*
X70634406Y-78301261D02*
X70573930Y-78180309D01*
X70573930Y-78180309D02*
X70573930Y-78119833D01*
X70573930Y-78119833D02*
X70634406Y-77998880D01*
X70634406Y-77998880D02*
X70755359Y-77938404D01*
X70755359Y-77938404D02*
X70936787Y-77938404D01*
X70936787Y-77938404D02*
X71057740Y-77998880D01*
X72146311Y-78724595D02*
X72025359Y-78785071D01*
X72025359Y-78785071D02*
X71783454Y-78785071D01*
X71783454Y-78785071D02*
X71662501Y-78724595D01*
X71662501Y-78724595D02*
X71602025Y-78603642D01*
X71602025Y-78603642D02*
X71602025Y-78119833D01*
X71602025Y-78119833D02*
X71662501Y-77998880D01*
X71662501Y-77998880D02*
X71783454Y-77938404D01*
X71783454Y-77938404D02*
X72025359Y-77938404D01*
X72025359Y-77938404D02*
X72146311Y-77998880D01*
X72146311Y-77998880D02*
X72206787Y-78119833D01*
X72206787Y-78119833D02*
X72206787Y-78240785D01*
X72206787Y-78240785D02*
X71602025Y-78361737D01*
X73295358Y-78785071D02*
X73295358Y-77515071D01*
X73295358Y-78724595D02*
X73174406Y-78785071D01*
X73174406Y-78785071D02*
X72932501Y-78785071D01*
X72932501Y-78785071D02*
X72811549Y-78724595D01*
X72811549Y-78724595D02*
X72751072Y-78664118D01*
X72751072Y-78664118D02*
X72690596Y-78543166D01*
X72690596Y-78543166D02*
X72690596Y-78180309D01*
X72690596Y-78180309D02*
X72751072Y-78059356D01*
X72751072Y-78059356D02*
X72811549Y-77998880D01*
X72811549Y-77998880D02*
X72932501Y-77938404D01*
X72932501Y-77938404D02*
X73174406Y-77938404D01*
X73174406Y-77938404D02*
X73295358Y-77998880D01*
X75564425Y-77515071D02*
X75806330Y-77515071D01*
X75806330Y-77515071D02*
X75927282Y-77575547D01*
X75927282Y-77575547D02*
X76048235Y-77696499D01*
X76048235Y-77696499D02*
X76108711Y-77938404D01*
X76108711Y-77938404D02*
X76108711Y-78361737D01*
X76108711Y-78361737D02*
X76048235Y-78603642D01*
X76048235Y-78603642D02*
X75927282Y-78724595D01*
X75927282Y-78724595D02*
X75806330Y-78785071D01*
X75806330Y-78785071D02*
X75564425Y-78785071D01*
X75564425Y-78785071D02*
X75443473Y-78724595D01*
X75443473Y-78724595D02*
X75322520Y-78603642D01*
X75322520Y-78603642D02*
X75262044Y-78361737D01*
X75262044Y-78361737D02*
X75262044Y-77938404D01*
X75262044Y-77938404D02*
X75322520Y-77696499D01*
X75322520Y-77696499D02*
X75443473Y-77575547D01*
X75443473Y-77575547D02*
X75564425Y-77515071D01*
X76652996Y-77938404D02*
X76652996Y-79208404D01*
X76652996Y-77998880D02*
X76773949Y-77938404D01*
X76773949Y-77938404D02*
X77015854Y-77938404D01*
X77015854Y-77938404D02*
X77136806Y-77998880D01*
X77136806Y-77998880D02*
X77197282Y-78059356D01*
X77197282Y-78059356D02*
X77257758Y-78180309D01*
X77257758Y-78180309D02*
X77257758Y-78543166D01*
X77257758Y-78543166D02*
X77197282Y-78664118D01*
X77197282Y-78664118D02*
X77136806Y-78724595D01*
X77136806Y-78724595D02*
X77015854Y-78785071D01*
X77015854Y-78785071D02*
X76773949Y-78785071D01*
X76773949Y-78785071D02*
X76652996Y-78724595D01*
X78285854Y-78724595D02*
X78164902Y-78785071D01*
X78164902Y-78785071D02*
X77922997Y-78785071D01*
X77922997Y-78785071D02*
X77802044Y-78724595D01*
X77802044Y-78724595D02*
X77741568Y-78603642D01*
X77741568Y-78603642D02*
X77741568Y-78119833D01*
X77741568Y-78119833D02*
X77802044Y-77998880D01*
X77802044Y-77998880D02*
X77922997Y-77938404D01*
X77922997Y-77938404D02*
X78164902Y-77938404D01*
X78164902Y-77938404D02*
X78285854Y-77998880D01*
X78285854Y-77998880D02*
X78346330Y-78119833D01*
X78346330Y-78119833D02*
X78346330Y-78240785D01*
X78346330Y-78240785D02*
X77741568Y-78361737D01*
X78890615Y-77938404D02*
X78890615Y-78785071D01*
X78890615Y-78059356D02*
X78951092Y-77998880D01*
X78951092Y-77998880D02*
X79072044Y-77938404D01*
X79072044Y-77938404D02*
X79253473Y-77938404D01*
X79253473Y-77938404D02*
X79374425Y-77998880D01*
X79374425Y-77998880D02*
X79434901Y-78119833D01*
X79434901Y-78119833D02*
X79434901Y-78785071D01*
X83994806Y-77938404D02*
X83994806Y-78785071D01*
X83692425Y-77454595D02*
X83390044Y-78361737D01*
X83390044Y-78361737D02*
X84176235Y-78361737D01*
X84660044Y-78785071D02*
X84660044Y-77515071D01*
X84660044Y-77515071D02*
X85083378Y-78422214D01*
X85083378Y-78422214D02*
X85506711Y-77515071D01*
X85506711Y-77515071D02*
X85506711Y-78785071D01*
X86534807Y-78119833D02*
X86716235Y-78180309D01*
X86716235Y-78180309D02*
X86776712Y-78240785D01*
X86776712Y-78240785D02*
X86837188Y-78361737D01*
X86837188Y-78361737D02*
X86837188Y-78543166D01*
X86837188Y-78543166D02*
X86776712Y-78664118D01*
X86776712Y-78664118D02*
X86716235Y-78724595D01*
X86716235Y-78724595D02*
X86595283Y-78785071D01*
X86595283Y-78785071D02*
X86111473Y-78785071D01*
X86111473Y-78785071D02*
X86111473Y-77515071D01*
X86111473Y-77515071D02*
X86534807Y-77515071D01*
X86534807Y-77515071D02*
X86655759Y-77575547D01*
X86655759Y-77575547D02*
X86716235Y-77636023D01*
X86716235Y-77636023D02*
X86776712Y-77756975D01*
X86776712Y-77756975D02*
X86776712Y-77877928D01*
X86776712Y-77877928D02*
X86716235Y-77998880D01*
X86716235Y-77998880D02*
X86655759Y-78059356D01*
X86655759Y-78059356D02*
X86534807Y-78119833D01*
X86534807Y-78119833D02*
X86111473Y-78119833D01*
X87381473Y-78301261D02*
X88349093Y-78301261D01*
X89619093Y-78785071D02*
X88893378Y-78785071D01*
X89256235Y-78785071D02*
X89256235Y-77515071D01*
X89256235Y-77515071D02*
X89135283Y-77696499D01*
X89135283Y-77696499D02*
X89014331Y-77817452D01*
X89014331Y-77817452D02*
X88893378Y-77877928D01*
X90102902Y-77636023D02*
X90163378Y-77575547D01*
X90163378Y-77575547D02*
X90284331Y-77515071D01*
X90284331Y-77515071D02*
X90586712Y-77515071D01*
X90586712Y-77515071D02*
X90707664Y-77575547D01*
X90707664Y-77575547D02*
X90768140Y-77636023D01*
X90768140Y-77636023D02*
X90828617Y-77756975D01*
X90828617Y-77756975D02*
X90828617Y-77877928D01*
X90828617Y-77877928D02*
X90768140Y-78059356D01*
X90768140Y-78059356D02*
X90042426Y-78785071D01*
X90042426Y-78785071D02*
X90828617Y-78785071D01*
X91372902Y-78785071D02*
X91372902Y-77515071D01*
X91372902Y-77515071D02*
X91796236Y-78422214D01*
X91796236Y-78422214D02*
X92219569Y-77515071D01*
X92219569Y-77515071D02*
X92219569Y-78785071D01*
X93247665Y-78119833D02*
X93429093Y-78180309D01*
X93429093Y-78180309D02*
X93489570Y-78240785D01*
X93489570Y-78240785D02*
X93550046Y-78361737D01*
X93550046Y-78361737D02*
X93550046Y-78543166D01*
X93550046Y-78543166D02*
X93489570Y-78664118D01*
X93489570Y-78664118D02*
X93429093Y-78724595D01*
X93429093Y-78724595D02*
X93308141Y-78785071D01*
X93308141Y-78785071D02*
X92824331Y-78785071D01*
X92824331Y-78785071D02*
X92824331Y-77515071D01*
X92824331Y-77515071D02*
X93247665Y-77515071D01*
X93247665Y-77515071D02*
X93368617Y-77575547D01*
X93368617Y-77575547D02*
X93429093Y-77636023D01*
X93429093Y-77636023D02*
X93489570Y-77756975D01*
X93489570Y-77756975D02*
X93489570Y-77877928D01*
X93489570Y-77877928D02*
X93429093Y-77998880D01*
X93429093Y-77998880D02*
X93368617Y-78059356D01*
X93368617Y-78059356D02*
X93247665Y-78119833D01*
X93247665Y-78119833D02*
X92824331Y-78119833D01*
X67792025Y-80563071D02*
X68033930Y-80563071D01*
X68033930Y-80563071D02*
X68154882Y-80623547D01*
X68154882Y-80623547D02*
X68275835Y-80744499D01*
X68275835Y-80744499D02*
X68336311Y-80986404D01*
X68336311Y-80986404D02*
X68336311Y-81409737D01*
X68336311Y-81409737D02*
X68275835Y-81651642D01*
X68275835Y-81651642D02*
X68154882Y-81772595D01*
X68154882Y-81772595D02*
X68033930Y-81833071D01*
X68033930Y-81833071D02*
X67792025Y-81833071D01*
X67792025Y-81833071D02*
X67671073Y-81772595D01*
X67671073Y-81772595D02*
X67550120Y-81651642D01*
X67550120Y-81651642D02*
X67489644Y-81409737D01*
X67489644Y-81409737D02*
X67489644Y-80986404D01*
X67489644Y-80986404D02*
X67550120Y-80744499D01*
X67550120Y-80744499D02*
X67671073Y-80623547D01*
X67671073Y-80623547D02*
X67792025Y-80563071D01*
X68880596Y-80986404D02*
X68880596Y-82256404D01*
X68880596Y-81046880D02*
X69001549Y-80986404D01*
X69001549Y-80986404D02*
X69243454Y-80986404D01*
X69243454Y-80986404D02*
X69364406Y-81046880D01*
X69364406Y-81046880D02*
X69424882Y-81107356D01*
X69424882Y-81107356D02*
X69485358Y-81228309D01*
X69485358Y-81228309D02*
X69485358Y-81591166D01*
X69485358Y-81591166D02*
X69424882Y-81712118D01*
X69424882Y-81712118D02*
X69364406Y-81772595D01*
X69364406Y-81772595D02*
X69243454Y-81833071D01*
X69243454Y-81833071D02*
X69001549Y-81833071D01*
X69001549Y-81833071D02*
X68880596Y-81772595D01*
X70513454Y-81772595D02*
X70392502Y-81833071D01*
X70392502Y-81833071D02*
X70150597Y-81833071D01*
X70150597Y-81833071D02*
X70029644Y-81772595D01*
X70029644Y-81772595D02*
X69969168Y-81651642D01*
X69969168Y-81651642D02*
X69969168Y-81167833D01*
X69969168Y-81167833D02*
X70029644Y-81046880D01*
X70029644Y-81046880D02*
X70150597Y-80986404D01*
X70150597Y-80986404D02*
X70392502Y-80986404D01*
X70392502Y-80986404D02*
X70513454Y-81046880D01*
X70513454Y-81046880D02*
X70573930Y-81167833D01*
X70573930Y-81167833D02*
X70573930Y-81288785D01*
X70573930Y-81288785D02*
X69969168Y-81409737D01*
X71118215Y-80986404D02*
X71118215Y-81833071D01*
X71118215Y-81107356D02*
X71178692Y-81046880D01*
X71178692Y-81046880D02*
X71299644Y-80986404D01*
X71299644Y-80986404D02*
X71481073Y-80986404D01*
X71481073Y-80986404D02*
X71602025Y-81046880D01*
X71602025Y-81046880D02*
X71662501Y-81167833D01*
X71662501Y-81167833D02*
X71662501Y-81833071D01*
X75564425Y-80563071D02*
X75806330Y-80563071D01*
X75806330Y-80563071D02*
X75927282Y-80623547D01*
X75927282Y-80623547D02*
X76048235Y-80744499D01*
X76048235Y-80744499D02*
X76108711Y-80986404D01*
X76108711Y-80986404D02*
X76108711Y-81409737D01*
X76108711Y-81409737D02*
X76048235Y-81651642D01*
X76048235Y-81651642D02*
X75927282Y-81772595D01*
X75927282Y-81772595D02*
X75806330Y-81833071D01*
X75806330Y-81833071D02*
X75564425Y-81833071D01*
X75564425Y-81833071D02*
X75443473Y-81772595D01*
X75443473Y-81772595D02*
X75322520Y-81651642D01*
X75322520Y-81651642D02*
X75262044Y-81409737D01*
X75262044Y-81409737D02*
X75262044Y-80986404D01*
X75262044Y-80986404D02*
X75322520Y-80744499D01*
X75322520Y-80744499D02*
X75443473Y-80623547D01*
X75443473Y-80623547D02*
X75564425Y-80563071D01*
X76652996Y-80986404D02*
X76652996Y-82256404D01*
X76652996Y-81046880D02*
X76773949Y-80986404D01*
X76773949Y-80986404D02*
X77015854Y-80986404D01*
X77015854Y-80986404D02*
X77136806Y-81046880D01*
X77136806Y-81046880D02*
X77197282Y-81107356D01*
X77197282Y-81107356D02*
X77257758Y-81228309D01*
X77257758Y-81228309D02*
X77257758Y-81591166D01*
X77257758Y-81591166D02*
X77197282Y-81712118D01*
X77197282Y-81712118D02*
X77136806Y-81772595D01*
X77136806Y-81772595D02*
X77015854Y-81833071D01*
X77015854Y-81833071D02*
X76773949Y-81833071D01*
X76773949Y-81833071D02*
X76652996Y-81772595D01*
X78285854Y-81772595D02*
X78164902Y-81833071D01*
X78164902Y-81833071D02*
X77922997Y-81833071D01*
X77922997Y-81833071D02*
X77802044Y-81772595D01*
X77802044Y-81772595D02*
X77741568Y-81651642D01*
X77741568Y-81651642D02*
X77741568Y-81167833D01*
X77741568Y-81167833D02*
X77802044Y-81046880D01*
X77802044Y-81046880D02*
X77922997Y-80986404D01*
X77922997Y-80986404D02*
X78164902Y-80986404D01*
X78164902Y-80986404D02*
X78285854Y-81046880D01*
X78285854Y-81046880D02*
X78346330Y-81167833D01*
X78346330Y-81167833D02*
X78346330Y-81288785D01*
X78346330Y-81288785D02*
X77741568Y-81409737D01*
X78890615Y-80986404D02*
X78890615Y-81833071D01*
X78890615Y-81107356D02*
X78951092Y-81046880D01*
X78951092Y-81046880D02*
X79072044Y-80986404D01*
X79072044Y-80986404D02*
X79253473Y-80986404D01*
X79253473Y-80986404D02*
X79374425Y-81046880D01*
X79374425Y-81046880D02*
X79434901Y-81167833D01*
X79434901Y-81167833D02*
X79434901Y-81833071D01*
X83631949Y-81107356D02*
X83510997Y-81046880D01*
X83510997Y-81046880D02*
X83450520Y-80986404D01*
X83450520Y-80986404D02*
X83390044Y-80865452D01*
X83390044Y-80865452D02*
X83390044Y-80804975D01*
X83390044Y-80804975D02*
X83450520Y-80684023D01*
X83450520Y-80684023D02*
X83510997Y-80623547D01*
X83510997Y-80623547D02*
X83631949Y-80563071D01*
X83631949Y-80563071D02*
X83873854Y-80563071D01*
X83873854Y-80563071D02*
X83994806Y-80623547D01*
X83994806Y-80623547D02*
X84055282Y-80684023D01*
X84055282Y-80684023D02*
X84115759Y-80804975D01*
X84115759Y-80804975D02*
X84115759Y-80865452D01*
X84115759Y-80865452D02*
X84055282Y-80986404D01*
X84055282Y-80986404D02*
X83994806Y-81046880D01*
X83994806Y-81046880D02*
X83873854Y-81107356D01*
X83873854Y-81107356D02*
X83631949Y-81107356D01*
X83631949Y-81107356D02*
X83510997Y-81167833D01*
X83510997Y-81167833D02*
X83450520Y-81228309D01*
X83450520Y-81228309D02*
X83390044Y-81349261D01*
X83390044Y-81349261D02*
X83390044Y-81591166D01*
X83390044Y-81591166D02*
X83450520Y-81712118D01*
X83450520Y-81712118D02*
X83510997Y-81772595D01*
X83510997Y-81772595D02*
X83631949Y-81833071D01*
X83631949Y-81833071D02*
X83873854Y-81833071D01*
X83873854Y-81833071D02*
X83994806Y-81772595D01*
X83994806Y-81772595D02*
X84055282Y-81712118D01*
X84055282Y-81712118D02*
X84115759Y-81591166D01*
X84115759Y-81591166D02*
X84115759Y-81349261D01*
X84115759Y-81349261D02*
X84055282Y-81228309D01*
X84055282Y-81228309D02*
X83994806Y-81167833D01*
X83994806Y-81167833D02*
X83873854Y-81107356D01*
X84660044Y-81833071D02*
X84660044Y-80563071D01*
X84660044Y-80563071D02*
X85083378Y-81470214D01*
X85083378Y-81470214D02*
X85506711Y-80563071D01*
X85506711Y-80563071D02*
X85506711Y-81833071D01*
X86534807Y-81167833D02*
X86716235Y-81228309D01*
X86716235Y-81228309D02*
X86776712Y-81288785D01*
X86776712Y-81288785D02*
X86837188Y-81409737D01*
X86837188Y-81409737D02*
X86837188Y-81591166D01*
X86837188Y-81591166D02*
X86776712Y-81712118D01*
X86776712Y-81712118D02*
X86716235Y-81772595D01*
X86716235Y-81772595D02*
X86595283Y-81833071D01*
X86595283Y-81833071D02*
X86111473Y-81833071D01*
X86111473Y-81833071D02*
X86111473Y-80563071D01*
X86111473Y-80563071D02*
X86534807Y-80563071D01*
X86534807Y-80563071D02*
X86655759Y-80623547D01*
X86655759Y-80623547D02*
X86716235Y-80684023D01*
X86716235Y-80684023D02*
X86776712Y-80804975D01*
X86776712Y-80804975D02*
X86776712Y-80925928D01*
X86776712Y-80925928D02*
X86716235Y-81046880D01*
X86716235Y-81046880D02*
X86655759Y-81107356D01*
X86655759Y-81107356D02*
X86534807Y-81167833D01*
X86534807Y-81167833D02*
X86111473Y-81167833D01*
X87381473Y-81349261D02*
X88349093Y-81349261D01*
X89619093Y-81833071D02*
X88893378Y-81833071D01*
X89256235Y-81833071D02*
X89256235Y-80563071D01*
X89256235Y-80563071D02*
X89135283Y-80744499D01*
X89135283Y-80744499D02*
X89014331Y-80865452D01*
X89014331Y-80865452D02*
X88893378Y-80925928D01*
X90707664Y-80563071D02*
X90465759Y-80563071D01*
X90465759Y-80563071D02*
X90344807Y-80623547D01*
X90344807Y-80623547D02*
X90284331Y-80684023D01*
X90284331Y-80684023D02*
X90163378Y-80865452D01*
X90163378Y-80865452D02*
X90102902Y-81107356D01*
X90102902Y-81107356D02*
X90102902Y-81591166D01*
X90102902Y-81591166D02*
X90163378Y-81712118D01*
X90163378Y-81712118D02*
X90223855Y-81772595D01*
X90223855Y-81772595D02*
X90344807Y-81833071D01*
X90344807Y-81833071D02*
X90586712Y-81833071D01*
X90586712Y-81833071D02*
X90707664Y-81772595D01*
X90707664Y-81772595D02*
X90768140Y-81712118D01*
X90768140Y-81712118D02*
X90828617Y-81591166D01*
X90828617Y-81591166D02*
X90828617Y-81288785D01*
X90828617Y-81288785D02*
X90768140Y-81167833D01*
X90768140Y-81167833D02*
X90707664Y-81107356D01*
X90707664Y-81107356D02*
X90586712Y-81046880D01*
X90586712Y-81046880D02*
X90344807Y-81046880D01*
X90344807Y-81046880D02*
X90223855Y-81107356D01*
X90223855Y-81107356D02*
X90163378Y-81167833D01*
X90163378Y-81167833D02*
X90102902Y-81288785D01*
X91372902Y-81833071D02*
X91372902Y-80563071D01*
X91372902Y-80563071D02*
X91796236Y-81470214D01*
X91796236Y-81470214D02*
X92219569Y-80563071D01*
X92219569Y-80563071D02*
X92219569Y-81833071D01*
X93247665Y-81167833D02*
X93429093Y-81228309D01*
X93429093Y-81228309D02*
X93489570Y-81288785D01*
X93489570Y-81288785D02*
X93550046Y-81409737D01*
X93550046Y-81409737D02*
X93550046Y-81591166D01*
X93550046Y-81591166D02*
X93489570Y-81712118D01*
X93489570Y-81712118D02*
X93429093Y-81772595D01*
X93429093Y-81772595D02*
X93308141Y-81833071D01*
X93308141Y-81833071D02*
X92824331Y-81833071D01*
X92824331Y-81833071D02*
X92824331Y-80563071D01*
X92824331Y-80563071D02*
X93247665Y-80563071D01*
X93247665Y-80563071D02*
X93368617Y-80623547D01*
X93368617Y-80623547D02*
X93429093Y-80684023D01*
X93429093Y-80684023D02*
X93489570Y-80804975D01*
X93489570Y-80804975D02*
X93489570Y-80925928D01*
X93489570Y-80925928D02*
X93429093Y-81046880D01*
X93429093Y-81046880D02*
X93368617Y-81107356D01*
X93368617Y-81107356D02*
X93247665Y-81167833D01*
X93247665Y-81167833D02*
X92824331Y-81167833D01*
D14*
X73913200Y-67537800D02*
X73913200Y-70585800D01*
X73913200Y-70585800D02*
X73913200Y-73633800D01*
X73913200Y-73633800D02*
X73913200Y-76681800D01*
X73913200Y-76681800D02*
X73913200Y-79729800D01*
X73913200Y-79729800D02*
X73913200Y-82777800D01*
X82041200Y-67537800D02*
X82041200Y-70585800D01*
X82041200Y-70585800D02*
X82041200Y-73633800D01*
X82041200Y-73633800D02*
X82041200Y-76681800D01*
X82041200Y-76681800D02*
X82041200Y-79729800D01*
X82041200Y-79729800D02*
X82041200Y-82777800D01*
X73913200Y-70585800D02*
X66140800Y-70585800D01*
X82041200Y-70585800D02*
X73913200Y-70585800D01*
X94665000Y-70585800D02*
X82041200Y-70585800D01*
X73913200Y-73633800D02*
X66140800Y-73633800D01*
X82041200Y-73633800D02*
X73913200Y-73633800D01*
X94665000Y-73633800D02*
X82041200Y-73633800D01*
X73913200Y-76681800D02*
X66140800Y-76681800D01*
X82041200Y-76681800D02*
X73913200Y-76681800D01*
X94665000Y-76681800D02*
X82041200Y-76681800D01*
X73913200Y-79729800D02*
X66140800Y-79729800D01*
X82041200Y-79729800D02*
X73913200Y-79729800D01*
X94665000Y-79729800D02*
X82041200Y-79729800D01*
X66140800Y-67537800D02*
X94665000Y-67537800D01*
X94665000Y-67537800D02*
X94665000Y-82777800D01*
X94665000Y-82777800D02*
X66140800Y-82777800D01*
X66140800Y-82777800D02*
X66140800Y-67537800D01*
D12*
X122882095Y-103340819D02*
X122882095Y-104150342D01*
X122882095Y-104150342D02*
X122929714Y-104245580D01*
X122929714Y-104245580D02*
X122977333Y-104293200D01*
X122977333Y-104293200D02*
X123072571Y-104340819D01*
X123072571Y-104340819D02*
X123263047Y-104340819D01*
X123263047Y-104340819D02*
X123358285Y-104293200D01*
X123358285Y-104293200D02*
X123405904Y-104245580D01*
X123405904Y-104245580D02*
X123453523Y-104150342D01*
X123453523Y-104150342D02*
X123453523Y-103340819D01*
X123882095Y-103436057D02*
X123929714Y-103388438D01*
X123929714Y-103388438D02*
X124024952Y-103340819D01*
X124024952Y-103340819D02*
X124263047Y-103340819D01*
X124263047Y-103340819D02*
X124358285Y-103388438D01*
X124358285Y-103388438D02*
X124405904Y-103436057D01*
X124405904Y-103436057D02*
X124453523Y-103531295D01*
X124453523Y-103531295D02*
X124453523Y-103626533D01*
X124453523Y-103626533D02*
X124405904Y-103769390D01*
X124405904Y-103769390D02*
X123834476Y-104340819D01*
X123834476Y-104340819D02*
X124453523Y-104340819D01*
X117536933Y-130255180D02*
X117489314Y-130302800D01*
X117489314Y-130302800D02*
X117346457Y-130350419D01*
X117346457Y-130350419D02*
X117251219Y-130350419D01*
X117251219Y-130350419D02*
X117108362Y-130302800D01*
X117108362Y-130302800D02*
X117013124Y-130207561D01*
X117013124Y-130207561D02*
X116965505Y-130112323D01*
X116965505Y-130112323D02*
X116917886Y-129921847D01*
X116917886Y-129921847D02*
X116917886Y-129778990D01*
X116917886Y-129778990D02*
X116965505Y-129588514D01*
X116965505Y-129588514D02*
X117013124Y-129493276D01*
X117013124Y-129493276D02*
X117108362Y-129398038D01*
X117108362Y-129398038D02*
X117251219Y-129350419D01*
X117251219Y-129350419D02*
X117346457Y-129350419D01*
X117346457Y-129350419D02*
X117489314Y-129398038D01*
X117489314Y-129398038D02*
X117536933Y-129445657D01*
X117870267Y-129350419D02*
X118536933Y-129350419D01*
X118536933Y-129350419D02*
X118108362Y-130350419D01*
X67143333Y-104086819D02*
X66810000Y-103610628D01*
X66571905Y-104086819D02*
X66571905Y-103086819D01*
X66571905Y-103086819D02*
X66952857Y-103086819D01*
X66952857Y-103086819D02*
X67048095Y-103134438D01*
X67048095Y-103134438D02*
X67095714Y-103182057D01*
X67095714Y-103182057D02*
X67143333Y-103277295D01*
X67143333Y-103277295D02*
X67143333Y-103420152D01*
X67143333Y-103420152D02*
X67095714Y-103515390D01*
X67095714Y-103515390D02*
X67048095Y-103563009D01*
X67048095Y-103563009D02*
X66952857Y-103610628D01*
X66952857Y-103610628D02*
X66571905Y-103610628D01*
X67524286Y-103182057D02*
X67571905Y-103134438D01*
X67571905Y-103134438D02*
X67667143Y-103086819D01*
X67667143Y-103086819D02*
X67905238Y-103086819D01*
X67905238Y-103086819D02*
X68000476Y-103134438D01*
X68000476Y-103134438D02*
X68048095Y-103182057D01*
X68048095Y-103182057D02*
X68095714Y-103277295D01*
X68095714Y-103277295D02*
X68095714Y-103372533D01*
X68095714Y-103372533D02*
X68048095Y-103515390D01*
X68048095Y-103515390D02*
X67476667Y-104086819D01*
X67476667Y-104086819D02*
X68095714Y-104086819D01*
X80783133Y-120882580D02*
X80735514Y-120930200D01*
X80735514Y-120930200D02*
X80592657Y-120977819D01*
X80592657Y-120977819D02*
X80497419Y-120977819D01*
X80497419Y-120977819D02*
X80354562Y-120930200D01*
X80354562Y-120930200D02*
X80259324Y-120834961D01*
X80259324Y-120834961D02*
X80211705Y-120739723D01*
X80211705Y-120739723D02*
X80164086Y-120549247D01*
X80164086Y-120549247D02*
X80164086Y-120406390D01*
X80164086Y-120406390D02*
X80211705Y-120215914D01*
X80211705Y-120215914D02*
X80259324Y-120120676D01*
X80259324Y-120120676D02*
X80354562Y-120025438D01*
X80354562Y-120025438D02*
X80497419Y-119977819D01*
X80497419Y-119977819D02*
X80592657Y-119977819D01*
X80592657Y-119977819D02*
X80735514Y-120025438D01*
X80735514Y-120025438D02*
X80783133Y-120073057D01*
X81354562Y-120406390D02*
X81259324Y-120358771D01*
X81259324Y-120358771D02*
X81211705Y-120311152D01*
X81211705Y-120311152D02*
X81164086Y-120215914D01*
X81164086Y-120215914D02*
X81164086Y-120168295D01*
X81164086Y-120168295D02*
X81211705Y-120073057D01*
X81211705Y-120073057D02*
X81259324Y-120025438D01*
X81259324Y-120025438D02*
X81354562Y-119977819D01*
X81354562Y-119977819D02*
X81545038Y-119977819D01*
X81545038Y-119977819D02*
X81640276Y-120025438D01*
X81640276Y-120025438D02*
X81687895Y-120073057D01*
X81687895Y-120073057D02*
X81735514Y-120168295D01*
X81735514Y-120168295D02*
X81735514Y-120215914D01*
X81735514Y-120215914D02*
X81687895Y-120311152D01*
X81687895Y-120311152D02*
X81640276Y-120358771D01*
X81640276Y-120358771D02*
X81545038Y-120406390D01*
X81545038Y-120406390D02*
X81354562Y-120406390D01*
X81354562Y-120406390D02*
X81259324Y-120454009D01*
X81259324Y-120454009D02*
X81211705Y-120501628D01*
X81211705Y-120501628D02*
X81164086Y-120596866D01*
X81164086Y-120596866D02*
X81164086Y-120787342D01*
X81164086Y-120787342D02*
X81211705Y-120882580D01*
X81211705Y-120882580D02*
X81259324Y-120930200D01*
X81259324Y-120930200D02*
X81354562Y-120977819D01*
X81354562Y-120977819D02*
X81545038Y-120977819D01*
X81545038Y-120977819D02*
X81640276Y-120930200D01*
X81640276Y-120930200D02*
X81687895Y-120882580D01*
X81687895Y-120882580D02*
X81735514Y-120787342D01*
X81735514Y-120787342D02*
X81735514Y-120596866D01*
X81735514Y-120596866D02*
X81687895Y-120501628D01*
X81687895Y-120501628D02*
X81640276Y-120454009D01*
X81640276Y-120454009D02*
X81545038Y-120406390D01*
X76350476Y-128469819D02*
X76683809Y-129469819D01*
X76683809Y-129469819D02*
X77017142Y-128469819D01*
X77921904Y-129469819D02*
X77588571Y-128993628D01*
X77350476Y-129469819D02*
X77350476Y-128469819D01*
X77350476Y-128469819D02*
X77731428Y-128469819D01*
X77731428Y-128469819D02*
X77826666Y-128517438D01*
X77826666Y-128517438D02*
X77874285Y-128565057D01*
X77874285Y-128565057D02*
X77921904Y-128660295D01*
X77921904Y-128660295D02*
X77921904Y-128803152D01*
X77921904Y-128803152D02*
X77874285Y-128898390D01*
X77874285Y-128898390D02*
X77826666Y-128946009D01*
X77826666Y-128946009D02*
X77731428Y-128993628D01*
X77731428Y-128993628D02*
X77350476Y-128993628D01*
X78874285Y-129469819D02*
X78302857Y-129469819D01*
X78588571Y-129469819D02*
X78588571Y-128469819D01*
X78588571Y-128469819D02*
X78493333Y-128612676D01*
X78493333Y-128612676D02*
X78398095Y-128707914D01*
X78398095Y-128707914D02*
X78302857Y-128755533D01*
X145796095Y-124379819D02*
X145796095Y-125189342D01*
X145796095Y-125189342D02*
X145843714Y-125284580D01*
X145843714Y-125284580D02*
X145891333Y-125332200D01*
X145891333Y-125332200D02*
X145986571Y-125379819D01*
X145986571Y-125379819D02*
X146177047Y-125379819D01*
X146177047Y-125379819D02*
X146272285Y-125332200D01*
X146272285Y-125332200D02*
X146319904Y-125284580D01*
X146319904Y-125284580D02*
X146367523Y-125189342D01*
X146367523Y-125189342D02*
X146367523Y-124379819D01*
X146748476Y-124379819D02*
X147367523Y-124379819D01*
X147367523Y-124379819D02*
X147034190Y-124760771D01*
X147034190Y-124760771D02*
X147177047Y-124760771D01*
X147177047Y-124760771D02*
X147272285Y-124808390D01*
X147272285Y-124808390D02*
X147319904Y-124856009D01*
X147319904Y-124856009D02*
X147367523Y-124951247D01*
X147367523Y-124951247D02*
X147367523Y-125189342D01*
X147367523Y-125189342D02*
X147319904Y-125284580D01*
X147319904Y-125284580D02*
X147272285Y-125332200D01*
X147272285Y-125332200D02*
X147177047Y-125379819D01*
X147177047Y-125379819D02*
X146891333Y-125379819D01*
X146891333Y-125379819D02*
X146796095Y-125332200D01*
X146796095Y-125332200D02*
X146748476Y-125284580D01*
X67127333Y-98244819D02*
X66794000Y-97768628D01*
X66555905Y-98244819D02*
X66555905Y-97244819D01*
X66555905Y-97244819D02*
X66936857Y-97244819D01*
X66936857Y-97244819D02*
X67032095Y-97292438D01*
X67032095Y-97292438D02*
X67079714Y-97340057D01*
X67079714Y-97340057D02*
X67127333Y-97435295D01*
X67127333Y-97435295D02*
X67127333Y-97578152D01*
X67127333Y-97578152D02*
X67079714Y-97673390D01*
X67079714Y-97673390D02*
X67032095Y-97721009D01*
X67032095Y-97721009D02*
X66936857Y-97768628D01*
X66936857Y-97768628D02*
X66555905Y-97768628D01*
X68079714Y-98244819D02*
X67508286Y-98244819D01*
X67794000Y-98244819D02*
X67794000Y-97244819D01*
X67794000Y-97244819D02*
X67698762Y-97387676D01*
X67698762Y-97387676D02*
X67603524Y-97482914D01*
X67603524Y-97482914D02*
X67508286Y-97530533D01*
X154813095Y-55842819D02*
X154813095Y-56652342D01*
X154813095Y-56652342D02*
X154860714Y-56747580D01*
X154860714Y-56747580D02*
X154908333Y-56795200D01*
X154908333Y-56795200D02*
X155003571Y-56842819D01*
X155003571Y-56842819D02*
X155194047Y-56842819D01*
X155194047Y-56842819D02*
X155289285Y-56795200D01*
X155289285Y-56795200D02*
X155336904Y-56747580D01*
X155336904Y-56747580D02*
X155384523Y-56652342D01*
X155384523Y-56652342D02*
X155384523Y-55842819D01*
X156336904Y-55842819D02*
X155860714Y-55842819D01*
X155860714Y-55842819D02*
X155813095Y-56319009D01*
X155813095Y-56319009D02*
X155860714Y-56271390D01*
X155860714Y-56271390D02*
X155955952Y-56223771D01*
X155955952Y-56223771D02*
X156194047Y-56223771D01*
X156194047Y-56223771D02*
X156289285Y-56271390D01*
X156289285Y-56271390D02*
X156336904Y-56319009D01*
X156336904Y-56319009D02*
X156384523Y-56414247D01*
X156384523Y-56414247D02*
X156384523Y-56652342D01*
X156384523Y-56652342D02*
X156336904Y-56747580D01*
X156336904Y-56747580D02*
X156289285Y-56795200D01*
X156289285Y-56795200D02*
X156194047Y-56842819D01*
X156194047Y-56842819D02*
X155955952Y-56842819D01*
X155955952Y-56842819D02*
X155860714Y-56795200D01*
X155860714Y-56795200D02*
X155813095Y-56747580D01*
X165677850Y-70127219D02*
X165677850Y-70365314D01*
X165439755Y-70270076D02*
X165677850Y-70365314D01*
X165677850Y-70365314D02*
X165915945Y-70270076D01*
X165534993Y-70555790D02*
X165677850Y-70365314D01*
X165677850Y-70365314D02*
X165820707Y-70555790D01*
X86828333Y-86719580D02*
X86780714Y-86767200D01*
X86780714Y-86767200D02*
X86637857Y-86814819D01*
X86637857Y-86814819D02*
X86542619Y-86814819D01*
X86542619Y-86814819D02*
X86399762Y-86767200D01*
X86399762Y-86767200D02*
X86304524Y-86671961D01*
X86304524Y-86671961D02*
X86256905Y-86576723D01*
X86256905Y-86576723D02*
X86209286Y-86386247D01*
X86209286Y-86386247D02*
X86209286Y-86243390D01*
X86209286Y-86243390D02*
X86256905Y-86052914D01*
X86256905Y-86052914D02*
X86304524Y-85957676D01*
X86304524Y-85957676D02*
X86399762Y-85862438D01*
X86399762Y-85862438D02*
X86542619Y-85814819D01*
X86542619Y-85814819D02*
X86637857Y-85814819D01*
X86637857Y-85814819D02*
X86780714Y-85862438D01*
X86780714Y-85862438D02*
X86828333Y-85910057D01*
X87780714Y-86814819D02*
X87209286Y-86814819D01*
X87495000Y-86814819D02*
X87495000Y-85814819D01*
X87495000Y-85814819D02*
X87399762Y-85957676D01*
X87399762Y-85957676D02*
X87304524Y-86052914D01*
X87304524Y-86052914D02*
X87209286Y-86100533D01*
X69886533Y-129874180D02*
X69838914Y-129921800D01*
X69838914Y-129921800D02*
X69696057Y-129969419D01*
X69696057Y-129969419D02*
X69600819Y-129969419D01*
X69600819Y-129969419D02*
X69457962Y-129921800D01*
X69457962Y-129921800D02*
X69362724Y-129826561D01*
X69362724Y-129826561D02*
X69315105Y-129731323D01*
X69315105Y-129731323D02*
X69267486Y-129540847D01*
X69267486Y-129540847D02*
X69267486Y-129397990D01*
X69267486Y-129397990D02*
X69315105Y-129207514D01*
X69315105Y-129207514D02*
X69362724Y-129112276D01*
X69362724Y-129112276D02*
X69457962Y-129017038D01*
X69457962Y-129017038D02*
X69600819Y-128969419D01*
X69600819Y-128969419D02*
X69696057Y-128969419D01*
X69696057Y-128969419D02*
X69838914Y-129017038D01*
X69838914Y-129017038D02*
X69886533Y-129064657D01*
X70362724Y-129969419D02*
X70553200Y-129969419D01*
X70553200Y-129969419D02*
X70648438Y-129921800D01*
X70648438Y-129921800D02*
X70696057Y-129874180D01*
X70696057Y-129874180D02*
X70791295Y-129731323D01*
X70791295Y-129731323D02*
X70838914Y-129540847D01*
X70838914Y-129540847D02*
X70838914Y-129159895D01*
X70838914Y-129159895D02*
X70791295Y-129064657D01*
X70791295Y-129064657D02*
X70743676Y-129017038D01*
X70743676Y-129017038D02*
X70648438Y-128969419D01*
X70648438Y-128969419D02*
X70457962Y-128969419D01*
X70457962Y-128969419D02*
X70362724Y-129017038D01*
X70362724Y-129017038D02*
X70315105Y-129064657D01*
X70315105Y-129064657D02*
X70267486Y-129159895D01*
X70267486Y-129159895D02*
X70267486Y-129397990D01*
X70267486Y-129397990D02*
X70315105Y-129493228D01*
X70315105Y-129493228D02*
X70362724Y-129540847D01*
X70362724Y-129540847D02*
X70457962Y-129588466D01*
X70457962Y-129588466D02*
X70648438Y-129588466D01*
X70648438Y-129588466D02*
X70743676Y-129540847D01*
X70743676Y-129540847D02*
X70791295Y-129493228D01*
X70791295Y-129493228D02*
X70838914Y-129397990D01*
X153630333Y-73384580D02*
X153582714Y-73432200D01*
X153582714Y-73432200D02*
X153439857Y-73479819D01*
X153439857Y-73479819D02*
X153344619Y-73479819D01*
X153344619Y-73479819D02*
X153201762Y-73432200D01*
X153201762Y-73432200D02*
X153106524Y-73336961D01*
X153106524Y-73336961D02*
X153058905Y-73241723D01*
X153058905Y-73241723D02*
X153011286Y-73051247D01*
X153011286Y-73051247D02*
X153011286Y-72908390D01*
X153011286Y-72908390D02*
X153058905Y-72717914D01*
X153058905Y-72717914D02*
X153106524Y-72622676D01*
X153106524Y-72622676D02*
X153201762Y-72527438D01*
X153201762Y-72527438D02*
X153344619Y-72479819D01*
X153344619Y-72479819D02*
X153439857Y-72479819D01*
X153439857Y-72479819D02*
X153582714Y-72527438D01*
X153582714Y-72527438D02*
X153630333Y-72575057D01*
X154535095Y-72479819D02*
X154058905Y-72479819D01*
X154058905Y-72479819D02*
X154011286Y-72956009D01*
X154011286Y-72956009D02*
X154058905Y-72908390D01*
X154058905Y-72908390D02*
X154154143Y-72860771D01*
X154154143Y-72860771D02*
X154392238Y-72860771D01*
X154392238Y-72860771D02*
X154487476Y-72908390D01*
X154487476Y-72908390D02*
X154535095Y-72956009D01*
X154535095Y-72956009D02*
X154582714Y-73051247D01*
X154582714Y-73051247D02*
X154582714Y-73289342D01*
X154582714Y-73289342D02*
X154535095Y-73384580D01*
X154535095Y-73384580D02*
X154487476Y-73432200D01*
X154487476Y-73432200D02*
X154392238Y-73479819D01*
X154392238Y-73479819D02*
X154154143Y-73479819D01*
X154154143Y-73479819D02*
X154058905Y-73432200D01*
X154058905Y-73432200D02*
X154011286Y-73384580D01*
X106386333Y-100435580D02*
X106338714Y-100483200D01*
X106338714Y-100483200D02*
X106195857Y-100530819D01*
X106195857Y-100530819D02*
X106100619Y-100530819D01*
X106100619Y-100530819D02*
X105957762Y-100483200D01*
X105957762Y-100483200D02*
X105862524Y-100387961D01*
X105862524Y-100387961D02*
X105814905Y-100292723D01*
X105814905Y-100292723D02*
X105767286Y-100102247D01*
X105767286Y-100102247D02*
X105767286Y-99959390D01*
X105767286Y-99959390D02*
X105814905Y-99768914D01*
X105814905Y-99768914D02*
X105862524Y-99673676D01*
X105862524Y-99673676D02*
X105957762Y-99578438D01*
X105957762Y-99578438D02*
X106100619Y-99530819D01*
X106100619Y-99530819D02*
X106195857Y-99530819D01*
X106195857Y-99530819D02*
X106338714Y-99578438D01*
X106338714Y-99578438D02*
X106386333Y-99626057D01*
X106767286Y-99626057D02*
X106814905Y-99578438D01*
X106814905Y-99578438D02*
X106910143Y-99530819D01*
X106910143Y-99530819D02*
X107148238Y-99530819D01*
X107148238Y-99530819D02*
X107243476Y-99578438D01*
X107243476Y-99578438D02*
X107291095Y-99626057D01*
X107291095Y-99626057D02*
X107338714Y-99721295D01*
X107338714Y-99721295D02*
X107338714Y-99816533D01*
X107338714Y-99816533D02*
X107291095Y-99959390D01*
X107291095Y-99959390D02*
X106719667Y-100530819D01*
X106719667Y-100530819D02*
X107338714Y-100530819D01*
X143383095Y-79337819D02*
X143383095Y-80147342D01*
X143383095Y-80147342D02*
X143430714Y-80242580D01*
X143430714Y-80242580D02*
X143478333Y-80290200D01*
X143478333Y-80290200D02*
X143573571Y-80337819D01*
X143573571Y-80337819D02*
X143764047Y-80337819D01*
X143764047Y-80337819D02*
X143859285Y-80290200D01*
X143859285Y-80290200D02*
X143906904Y-80242580D01*
X143906904Y-80242580D02*
X143954523Y-80147342D01*
X143954523Y-80147342D02*
X143954523Y-79337819D01*
X144859285Y-79337819D02*
X144668809Y-79337819D01*
X144668809Y-79337819D02*
X144573571Y-79385438D01*
X144573571Y-79385438D02*
X144525952Y-79433057D01*
X144525952Y-79433057D02*
X144430714Y-79575914D01*
X144430714Y-79575914D02*
X144383095Y-79766390D01*
X144383095Y-79766390D02*
X144383095Y-80147342D01*
X144383095Y-80147342D02*
X144430714Y-80242580D01*
X144430714Y-80242580D02*
X144478333Y-80290200D01*
X144478333Y-80290200D02*
X144573571Y-80337819D01*
X144573571Y-80337819D02*
X144764047Y-80337819D01*
X144764047Y-80337819D02*
X144859285Y-80290200D01*
X144859285Y-80290200D02*
X144906904Y-80242580D01*
X144906904Y-80242580D02*
X144954523Y-80147342D01*
X144954523Y-80147342D02*
X144954523Y-79909247D01*
X144954523Y-79909247D02*
X144906904Y-79814009D01*
X144906904Y-79814009D02*
X144859285Y-79766390D01*
X144859285Y-79766390D02*
X144764047Y-79718771D01*
X144764047Y-79718771D02*
X144573571Y-79718771D01*
X144573571Y-79718771D02*
X144478333Y-79766390D01*
X144478333Y-79766390D02*
X144430714Y-79814009D01*
X144430714Y-79814009D02*
X144383095Y-79909247D01*
X154559000Y-93307819D02*
X154559000Y-93545914D01*
X154320905Y-93450676D02*
X154559000Y-93545914D01*
X154559000Y-93545914D02*
X154797095Y-93450676D01*
X154416143Y-93736390D02*
X154559000Y-93545914D01*
X154559000Y-93545914D02*
X154701857Y-93736390D01*
X71048666Y-102451819D02*
X71048666Y-103166104D01*
X71048666Y-103166104D02*
X71001047Y-103308961D01*
X71001047Y-103308961D02*
X70905809Y-103404200D01*
X70905809Y-103404200D02*
X70762952Y-103451819D01*
X70762952Y-103451819D02*
X70667714Y-103451819D01*
X71524857Y-103451819D02*
X71524857Y-102451819D01*
X71524857Y-102451819D02*
X71905809Y-102451819D01*
X71905809Y-102451819D02*
X72001047Y-102499438D01*
X72001047Y-102499438D02*
X72048666Y-102547057D01*
X72048666Y-102547057D02*
X72096285Y-102642295D01*
X72096285Y-102642295D02*
X72096285Y-102785152D01*
X72096285Y-102785152D02*
X72048666Y-102880390D01*
X72048666Y-102880390D02*
X72001047Y-102928009D01*
X72001047Y-102928009D02*
X71905809Y-102975628D01*
X71905809Y-102975628D02*
X71524857Y-102975628D01*
X72477238Y-102547057D02*
X72524857Y-102499438D01*
X72524857Y-102499438D02*
X72620095Y-102451819D01*
X72620095Y-102451819D02*
X72858190Y-102451819D01*
X72858190Y-102451819D02*
X72953428Y-102499438D01*
X72953428Y-102499438D02*
X73001047Y-102547057D01*
X73001047Y-102547057D02*
X73048666Y-102642295D01*
X73048666Y-102642295D02*
X73048666Y-102737533D01*
X73048666Y-102737533D02*
X73001047Y-102880390D01*
X73001047Y-102880390D02*
X72429619Y-103451819D01*
X72429619Y-103451819D02*
X73048666Y-103451819D01*
X174553666Y-103848819D02*
X174553666Y-104563104D01*
X174553666Y-104563104D02*
X174506047Y-104705961D01*
X174506047Y-104705961D02*
X174410809Y-104801200D01*
X174410809Y-104801200D02*
X174267952Y-104848819D01*
X174267952Y-104848819D02*
X174172714Y-104848819D01*
X175029857Y-104848819D02*
X175029857Y-103848819D01*
X175029857Y-103848819D02*
X175410809Y-103848819D01*
X175410809Y-103848819D02*
X175506047Y-103896438D01*
X175506047Y-103896438D02*
X175553666Y-103944057D01*
X175553666Y-103944057D02*
X175601285Y-104039295D01*
X175601285Y-104039295D02*
X175601285Y-104182152D01*
X175601285Y-104182152D02*
X175553666Y-104277390D01*
X175553666Y-104277390D02*
X175506047Y-104325009D01*
X175506047Y-104325009D02*
X175410809Y-104372628D01*
X175410809Y-104372628D02*
X175029857Y-104372628D01*
X175934619Y-103848819D02*
X176553666Y-103848819D01*
X176553666Y-103848819D02*
X176220333Y-104229771D01*
X176220333Y-104229771D02*
X176363190Y-104229771D01*
X176363190Y-104229771D02*
X176458428Y-104277390D01*
X176458428Y-104277390D02*
X176506047Y-104325009D01*
X176506047Y-104325009D02*
X176553666Y-104420247D01*
X176553666Y-104420247D02*
X176553666Y-104658342D01*
X176553666Y-104658342D02*
X176506047Y-104753580D01*
X176506047Y-104753580D02*
X176458428Y-104801200D01*
X176458428Y-104801200D02*
X176363190Y-104848819D01*
X176363190Y-104848819D02*
X176077476Y-104848819D01*
X176077476Y-104848819D02*
X175982238Y-104801200D01*
X175982238Y-104801200D02*
X175934619Y-104753580D01*
X70921666Y-93594819D02*
X70921666Y-94309104D01*
X70921666Y-94309104D02*
X70874047Y-94451961D01*
X70874047Y-94451961D02*
X70778809Y-94547200D01*
X70778809Y-94547200D02*
X70635952Y-94594819D01*
X70635952Y-94594819D02*
X70540714Y-94594819D01*
X71397857Y-94594819D02*
X71397857Y-93594819D01*
X71397857Y-93594819D02*
X71778809Y-93594819D01*
X71778809Y-93594819D02*
X71874047Y-93642438D01*
X71874047Y-93642438D02*
X71921666Y-93690057D01*
X71921666Y-93690057D02*
X71969285Y-93785295D01*
X71969285Y-93785295D02*
X71969285Y-93928152D01*
X71969285Y-93928152D02*
X71921666Y-94023390D01*
X71921666Y-94023390D02*
X71874047Y-94071009D01*
X71874047Y-94071009D02*
X71778809Y-94118628D01*
X71778809Y-94118628D02*
X71397857Y-94118628D01*
X72921666Y-94594819D02*
X72350238Y-94594819D01*
X72635952Y-94594819D02*
X72635952Y-93594819D01*
X72635952Y-93594819D02*
X72540714Y-93737676D01*
X72540714Y-93737676D02*
X72445476Y-93832914D01*
X72445476Y-93832914D02*
X72350238Y-93880533D01*
X112293695Y-138545219D02*
X112293695Y-139354742D01*
X112293695Y-139354742D02*
X112341314Y-139449980D01*
X112341314Y-139449980D02*
X112388933Y-139497600D01*
X112388933Y-139497600D02*
X112484171Y-139545219D01*
X112484171Y-139545219D02*
X112674647Y-139545219D01*
X112674647Y-139545219D02*
X112769885Y-139497600D01*
X112769885Y-139497600D02*
X112817504Y-139449980D01*
X112817504Y-139449980D02*
X112865123Y-139354742D01*
X112865123Y-139354742D02*
X112865123Y-138545219D01*
X113246076Y-138545219D02*
X113912742Y-138545219D01*
X113912742Y-138545219D02*
X113484171Y-139545219D01*
X116038333Y-67891819D02*
X115705000Y-67415628D01*
X115466905Y-67891819D02*
X115466905Y-66891819D01*
X115466905Y-66891819D02*
X115847857Y-66891819D01*
X115847857Y-66891819D02*
X115943095Y-66939438D01*
X115943095Y-66939438D02*
X115990714Y-66987057D01*
X115990714Y-66987057D02*
X116038333Y-67082295D01*
X116038333Y-67082295D02*
X116038333Y-67225152D01*
X116038333Y-67225152D02*
X115990714Y-67320390D01*
X115990714Y-67320390D02*
X115943095Y-67368009D01*
X115943095Y-67368009D02*
X115847857Y-67415628D01*
X115847857Y-67415628D02*
X115466905Y-67415628D01*
X116371667Y-66891819D02*
X116990714Y-66891819D01*
X116990714Y-66891819D02*
X116657381Y-67272771D01*
X116657381Y-67272771D02*
X116800238Y-67272771D01*
X116800238Y-67272771D02*
X116895476Y-67320390D01*
X116895476Y-67320390D02*
X116943095Y-67368009D01*
X116943095Y-67368009D02*
X116990714Y-67463247D01*
X116990714Y-67463247D02*
X116990714Y-67701342D01*
X116990714Y-67701342D02*
X116943095Y-67796580D01*
X116943095Y-67796580D02*
X116895476Y-67844200D01*
X116895476Y-67844200D02*
X116800238Y-67891819D01*
X116800238Y-67891819D02*
X116514524Y-67891819D01*
X116514524Y-67891819D02*
X116419286Y-67844200D01*
X116419286Y-67844200D02*
X116371667Y-67796580D01*
X135701833Y-95228580D02*
X135654214Y-95276200D01*
X135654214Y-95276200D02*
X135511357Y-95323819D01*
X135511357Y-95323819D02*
X135416119Y-95323819D01*
X135416119Y-95323819D02*
X135273262Y-95276200D01*
X135273262Y-95276200D02*
X135178024Y-95180961D01*
X135178024Y-95180961D02*
X135130405Y-95085723D01*
X135130405Y-95085723D02*
X135082786Y-94895247D01*
X135082786Y-94895247D02*
X135082786Y-94752390D01*
X135082786Y-94752390D02*
X135130405Y-94561914D01*
X135130405Y-94561914D02*
X135178024Y-94466676D01*
X135178024Y-94466676D02*
X135273262Y-94371438D01*
X135273262Y-94371438D02*
X135416119Y-94323819D01*
X135416119Y-94323819D02*
X135511357Y-94323819D01*
X135511357Y-94323819D02*
X135654214Y-94371438D01*
X135654214Y-94371438D02*
X135701833Y-94419057D01*
X136558976Y-94323819D02*
X136368500Y-94323819D01*
X136368500Y-94323819D02*
X136273262Y-94371438D01*
X136273262Y-94371438D02*
X136225643Y-94419057D01*
X136225643Y-94419057D02*
X136130405Y-94561914D01*
X136130405Y-94561914D02*
X136082786Y-94752390D01*
X136082786Y-94752390D02*
X136082786Y-95133342D01*
X136082786Y-95133342D02*
X136130405Y-95228580D01*
X136130405Y-95228580D02*
X136178024Y-95276200D01*
X136178024Y-95276200D02*
X136273262Y-95323819D01*
X136273262Y-95323819D02*
X136463738Y-95323819D01*
X136463738Y-95323819D02*
X136558976Y-95276200D01*
X136558976Y-95276200D02*
X136606595Y-95228580D01*
X136606595Y-95228580D02*
X136654214Y-95133342D01*
X136654214Y-95133342D02*
X136654214Y-94895247D01*
X136654214Y-94895247D02*
X136606595Y-94800009D01*
X136606595Y-94800009D02*
X136558976Y-94752390D01*
X136558976Y-94752390D02*
X136463738Y-94704771D01*
X136463738Y-94704771D02*
X136273262Y-94704771D01*
X136273262Y-94704771D02*
X136178024Y-94752390D01*
X136178024Y-94752390D02*
X136130405Y-94800009D01*
X136130405Y-94800009D02*
X136082786Y-94895247D01*
X112268095Y-127496219D02*
X112268095Y-128305742D01*
X112268095Y-128305742D02*
X112315714Y-128400980D01*
X112315714Y-128400980D02*
X112363333Y-128448600D01*
X112363333Y-128448600D02*
X112458571Y-128496219D01*
X112458571Y-128496219D02*
X112649047Y-128496219D01*
X112649047Y-128496219D02*
X112744285Y-128448600D01*
X112744285Y-128448600D02*
X112791904Y-128400980D01*
X112791904Y-128400980D02*
X112839523Y-128305742D01*
X112839523Y-128305742D02*
X112839523Y-127496219D01*
X113744285Y-127829552D02*
X113744285Y-128496219D01*
X113506190Y-127448600D02*
X113268095Y-128162885D01*
X113268095Y-128162885D02*
X113887142Y-128162885D01*
X81899096Y-87846819D02*
X81899096Y-88656342D01*
X81899096Y-88656342D02*
X81946715Y-88751580D01*
X81946715Y-88751580D02*
X81994334Y-88799200D01*
X81994334Y-88799200D02*
X82089572Y-88846819D01*
X82089572Y-88846819D02*
X82280048Y-88846819D01*
X82280048Y-88846819D02*
X82375286Y-88799200D01*
X82375286Y-88799200D02*
X82422905Y-88751580D01*
X82422905Y-88751580D02*
X82470524Y-88656342D01*
X82470524Y-88656342D02*
X82470524Y-87846819D01*
X83470524Y-88846819D02*
X82899096Y-88846819D01*
X83184810Y-88846819D02*
X83184810Y-87846819D01*
X83184810Y-87846819D02*
X83089572Y-87989676D01*
X83089572Y-87989676D02*
X82994334Y-88084914D01*
X82994334Y-88084914D02*
X82899096Y-88132533D01*
X78232000Y-89472419D02*
X78232000Y-89710514D01*
X77993905Y-89615276D02*
X78232000Y-89710514D01*
X78232000Y-89710514D02*
X78470095Y-89615276D01*
X78089143Y-89900990D02*
X78232000Y-89710514D01*
X78232000Y-89710514D02*
X78374857Y-89900990D01*
X116927333Y-118977580D02*
X116879714Y-119025200D01*
X116879714Y-119025200D02*
X116736857Y-119072819D01*
X116736857Y-119072819D02*
X116641619Y-119072819D01*
X116641619Y-119072819D02*
X116498762Y-119025200D01*
X116498762Y-119025200D02*
X116403524Y-118929961D01*
X116403524Y-118929961D02*
X116355905Y-118834723D01*
X116355905Y-118834723D02*
X116308286Y-118644247D01*
X116308286Y-118644247D02*
X116308286Y-118501390D01*
X116308286Y-118501390D02*
X116355905Y-118310914D01*
X116355905Y-118310914D02*
X116403524Y-118215676D01*
X116403524Y-118215676D02*
X116498762Y-118120438D01*
X116498762Y-118120438D02*
X116641619Y-118072819D01*
X116641619Y-118072819D02*
X116736857Y-118072819D01*
X116736857Y-118072819D02*
X116879714Y-118120438D01*
X116879714Y-118120438D02*
X116927333Y-118168057D01*
X117784476Y-118406152D02*
X117784476Y-119072819D01*
X117546381Y-118025200D02*
X117308286Y-118739485D01*
X117308286Y-118739485D02*
X117927333Y-118739485D01*
X164168080Y-127039666D02*
X164215700Y-127087285D01*
X164215700Y-127087285D02*
X164263319Y-127230142D01*
X164263319Y-127230142D02*
X164263319Y-127325380D01*
X164263319Y-127325380D02*
X164215700Y-127468237D01*
X164215700Y-127468237D02*
X164120461Y-127563475D01*
X164120461Y-127563475D02*
X164025223Y-127611094D01*
X164025223Y-127611094D02*
X163834747Y-127658713D01*
X163834747Y-127658713D02*
X163691890Y-127658713D01*
X163691890Y-127658713D02*
X163501414Y-127611094D01*
X163501414Y-127611094D02*
X163406176Y-127563475D01*
X163406176Y-127563475D02*
X163310938Y-127468237D01*
X163310938Y-127468237D02*
X163263319Y-127325380D01*
X163263319Y-127325380D02*
X163263319Y-127230142D01*
X163263319Y-127230142D02*
X163310938Y-127087285D01*
X163310938Y-127087285D02*
X163358557Y-127039666D01*
X163263319Y-126706332D02*
X163263319Y-126087285D01*
X163263319Y-126087285D02*
X163644271Y-126420618D01*
X163644271Y-126420618D02*
X163644271Y-126277761D01*
X163644271Y-126277761D02*
X163691890Y-126182523D01*
X163691890Y-126182523D02*
X163739509Y-126134904D01*
X163739509Y-126134904D02*
X163834747Y-126087285D01*
X163834747Y-126087285D02*
X164072842Y-126087285D01*
X164072842Y-126087285D02*
X164168080Y-126134904D01*
X164168080Y-126134904D02*
X164215700Y-126182523D01*
X164215700Y-126182523D02*
X164263319Y-126277761D01*
X164263319Y-126277761D02*
X164263319Y-126563475D01*
X164263319Y-126563475D02*
X164215700Y-126658713D01*
X164215700Y-126658713D02*
X164168080Y-126706332D01*
D15*
%TO.C,U2*%
X110082000Y-100836000D02*
X110082000Y-106936000D01*
X122582000Y-100836000D02*
X122582000Y-106936000D01*
D16*
X122462000Y-98796000D02*
G75*
G02*
X122262000Y-98796000I-100000J0D01*
G01*
X122262000Y-98796000D02*
G75*
G02*
X122462000Y-98796000I100000J0D01*
G01*
D17*
%TO.C,C7*%
X115069252Y-129109800D02*
X114546748Y-129109800D01*
X115069252Y-130579800D02*
X114546748Y-130579800D01*
%TO.C,R2*%
X67521064Y-104675000D02*
X67066936Y-104675000D01*
X67521064Y-106145000D02*
X67066936Y-106145000D01*
D18*
%TO.C,C8*%
X84556600Y-125095000D02*
X84556600Y-123825000D01*
X85191600Y-124460000D02*
X83921600Y-124460000D01*
X83794600Y-124460000D02*
G75*
G02*
X78028800Y-124460000I-2882900J0D01*
G01*
X78028800Y-124460000D02*
G75*
G02*
X83794600Y-124460000I2882900J0D01*
G01*
D15*
%TO.C,VR1*%
X76990000Y-130100000D02*
X76990000Y-130265000D01*
X76990000Y-136600000D02*
X76990000Y-136435000D01*
X76990000Y-136600000D02*
X80490000Y-136600000D01*
X80490000Y-130100000D02*
X76990000Y-130100000D01*
X80490000Y-131415000D02*
X80490000Y-130100000D01*
X80490000Y-136600000D02*
X80490000Y-135285000D01*
D16*
X73835000Y-131050000D02*
G75*
G02*
X73635000Y-131050000I-100000J0D01*
G01*
X73635000Y-131050000D02*
G75*
G02*
X73835000Y-131050000I100000J0D01*
G01*
%TO.C,U3*%
X147703500Y-122531000D02*
X147703500Y-127230998D01*
X160303498Y-120580999D02*
X160303498Y-127230998D01*
D17*
%TO.C,R1*%
X67066936Y-98690000D02*
X67521064Y-98690000D01*
X67066936Y-100160000D02*
X67521064Y-100160000D01*
%TO.C,J1*%
X63430000Y-143490000D02*
X63030000Y-143490000D01*
X63430000Y-152440000D02*
X63430000Y-143490000D01*
X111830000Y-144840000D02*
X116780000Y-144840000D01*
X111830000Y-152440000D02*
X111830000Y-144840000D01*
X116780000Y-144840000D02*
X116780000Y-152440000D01*
X198180000Y-143490000D02*
X198580000Y-143490000D01*
X198180000Y-152440000D02*
X198180000Y-143490000D01*
D18*
%TO.C,U5*%
X146505213Y-69672200D02*
X164644791Y-69672200D01*
X164644787Y-57327800D02*
X146505209Y-57327800D01*
D19*
G36*
X144868900Y-60440499D02*
G01*
X144614900Y-60440499D01*
X144614900Y-60059499D01*
X144868900Y-60059499D01*
X144868900Y-60440499D01*
G37*
G36*
X144868900Y-65440502D02*
G01*
X144614900Y-65440502D01*
X144614900Y-65059502D01*
X144868900Y-65059502D01*
X144868900Y-65440502D01*
G37*
G36*
X166535100Y-59940500D02*
G01*
X166281100Y-59940500D01*
X166281100Y-59559500D01*
X166535100Y-59559500D01*
X166535100Y-59940500D01*
G37*
G36*
X166535100Y-64940500D02*
G01*
X166281100Y-64940500D01*
X166281100Y-64559500D01*
X166535100Y-64559500D01*
X166535100Y-64940500D01*
G37*
D17*
%TO.C,C1*%
X84355000Y-86098748D02*
X84355000Y-86621252D01*
X85825000Y-86098748D02*
X85825000Y-86621252D01*
D18*
%TO.C,C9*%
X73736200Y-133832600D02*
X73736200Y-132562600D01*
X74371200Y-133197600D02*
X73101200Y-133197600D01*
X72974200Y-133197600D02*
G75*
G02*
X67208400Y-133197600I-2882900J0D01*
G01*
X67208400Y-133197600D02*
G75*
G02*
X72974200Y-133197600I2882900J0D01*
G01*
D17*
%TO.C,C5*%
X151137252Y-72290000D02*
X150614748Y-72290000D01*
X151137252Y-73760000D02*
X150614748Y-73760000D01*
%TO.C,C2*%
X105767200Y-102659548D02*
X105767200Y-103182052D01*
X107237200Y-102659548D02*
X107237200Y-103182052D01*
D18*
%TO.C,U6*%
X135075213Y-93167200D02*
X153214791Y-93167200D01*
X153214787Y-80822800D02*
X135075209Y-80822800D01*
D19*
G36*
X133438900Y-83935499D02*
G01*
X133184900Y-83935499D01*
X133184900Y-83554499D01*
X133438900Y-83554499D01*
X133438900Y-83935499D01*
G37*
G36*
X133438900Y-88935502D02*
G01*
X133184900Y-88935502D01*
X133184900Y-88554502D01*
X133438900Y-88554502D01*
X133438900Y-88935502D01*
G37*
G36*
X155105100Y-83435500D02*
G01*
X154851100Y-83435500D01*
X154851100Y-83054500D01*
X155105100Y-83054500D01*
X155105100Y-83435500D01*
G37*
G36*
X155105100Y-88435500D02*
G01*
X154851100Y-88435500D01*
X154851100Y-88054500D01*
X155105100Y-88054500D01*
X155105100Y-88435500D01*
G37*
D17*
%TO.C,JP2*%
X70375000Y-106680000D02*
X70375000Y-104030000D01*
X73135000Y-104030000D02*
X70375000Y-104030000D01*
X73135000Y-106680000D02*
X70375000Y-106680000D01*
X73135000Y-106680000D02*
X73135000Y-104030000D01*
X73135000Y-107950000D02*
X73135000Y-109330000D01*
X73135000Y-109330000D02*
X71755000Y-109330000D01*
%TO.C,JP3*%
X172660800Y-108314000D02*
X172660800Y-106934000D01*
X174040800Y-108314000D02*
X172660800Y-108314000D01*
X175310800Y-105554000D02*
X177960800Y-105554000D01*
X175310800Y-108314000D02*
X175310800Y-105554000D01*
X175310800Y-108314000D02*
X177960800Y-108314000D01*
X177960800Y-108314000D02*
X177960800Y-105554000D01*
%TO.C,JP1*%
X70375000Y-95140000D02*
X71755000Y-95140000D01*
X70375000Y-96520000D02*
X70375000Y-95140000D01*
X70375000Y-97790000D02*
X70375000Y-100440000D01*
X70375000Y-97790000D02*
X73135000Y-97790000D01*
X70375000Y-100440000D02*
X73135000Y-100440000D01*
X73135000Y-97790000D02*
X73135000Y-100440000D01*
D15*
%TO.C,U7*%
X110881000Y-131220800D02*
X115281000Y-131220800D01*
X110881000Y-138120800D02*
X115281000Y-138120800D01*
D16*
X108991000Y-131745800D02*
G75*
G02*
X108791000Y-131745800I-100000J0D01*
G01*
X108791000Y-131745800D02*
G75*
G02*
X108991000Y-131745800I100000J0D01*
G01*
D18*
%TO.C,R3*%
X114833400Y-68580000D02*
X114833400Y-81280000D01*
X114833400Y-81280000D02*
X117576600Y-81280000D01*
X117576600Y-68580000D02*
X114833400Y-68580000D01*
X117576600Y-81280000D02*
X117576600Y-68580000D01*
D17*
%TO.C,C6*%
X135628748Y-96039000D02*
X136151252Y-96039000D01*
X135628748Y-97509000D02*
X136151252Y-97509000D01*
D15*
%TO.C,U4*%
X110881000Y-120008400D02*
X115281000Y-120008400D01*
X110881000Y-126908400D02*
X115281000Y-126908400D01*
D16*
X108991000Y-120533400D02*
G75*
G02*
X108791000Y-120533400I-100000J0D01*
G01*
X108791000Y-120533400D02*
G75*
G02*
X108991000Y-120533400I100000J0D01*
G01*
D18*
%TO.C,U1*%
X78978001Y-89281000D02*
X78978001Y-90446860D01*
X78978001Y-92433140D02*
X78978001Y-93015799D01*
X78978001Y-94944201D02*
X78978001Y-95555799D01*
X78978001Y-97484201D02*
X78978001Y-98095799D01*
X78978001Y-100024201D02*
X78978001Y-100635799D01*
X78978001Y-102564201D02*
X78978001Y-103175799D01*
X78978001Y-105104201D02*
X78978001Y-105715799D01*
X78978001Y-107644201D02*
X78978001Y-108255799D01*
X78978001Y-110184201D02*
X78978001Y-110795799D01*
X78978001Y-112724201D02*
X78978001Y-113335799D01*
X78978001Y-115264201D02*
X78978001Y-116459000D01*
X78978001Y-116459000D02*
X86344001Y-116459000D01*
X86344001Y-89281000D02*
X78978001Y-89281000D01*
X86344001Y-90475799D02*
X86344001Y-89281000D01*
X86344001Y-93015799D02*
X86344001Y-92404201D01*
X86344001Y-95555799D02*
X86344001Y-94944201D01*
X86344001Y-98095799D02*
X86344001Y-97484201D01*
X86344001Y-100635799D02*
X86344001Y-100024201D01*
X86344001Y-103175799D02*
X86344001Y-102564201D01*
X86344001Y-105715799D02*
X86344001Y-105104201D01*
X86344001Y-108255799D02*
X86344001Y-107644201D01*
X86344001Y-110795799D02*
X86344001Y-110184201D01*
X86344001Y-113335799D02*
X86344001Y-112724201D01*
X86344001Y-116459000D02*
X86344001Y-115264201D01*
D17*
%TO.C,C4*%
X114231052Y-117766400D02*
X113708548Y-117766400D01*
X114231052Y-119236400D02*
X113708548Y-119236400D01*
%TO.C,C3*%
X161317000Y-127134252D02*
X161317000Y-126611748D01*
X162787000Y-127134252D02*
X162787000Y-126611748D01*
%TD*%
M02*
